LeagueScriptNumberOne.ufo
<glyph name="exclam" format="1">
  <advance width="622"/>
  <unicode hex="0021"/>
  <outline>
    <contour>
      <point x="204" y="174"/>
      <point x="207" y="177"/>
      <point x="209" y="180" type="curve"/>
      <point x="277" y="347"/>
      <point x="389" y="522"/>
      <point x="470" y="640" type="curve" smooth="yes"/>
      <point x="558" y="768"/>
      <point x="631" y="857"/>
      <point x="632" y="858" type="curve"/>
      <point x="635" y="862"/>
      <point x="635" y="868"/>
      <point x="631" y="871" type="curve" smooth="yes"/>
      <point x="627" y="874"/>
      <point x="621" y="873"/>
      <point x="618" y="870" type="curve" smooth="yes"/>
      <point x="617" y="869"/>
      <point x="544" y="779"/>
      <point x="455" y="650" type="curve" smooth="yes"/>
      <point x="373" y="532"/>
      <point x="261" y="355"/>
      <point x="192" y="187" type="curve" smooth="yes"/>
      <point x="190" y="182"/>
      <point x="192" y="177"/>
      <point x="197" y="175" type="curve"/>
      <point x="198" y="175"/>
      <point x="199" y="174"/>
      <point x="200" y="174" type="curve" smooth="yes"/>
    </contour>
    <contour>
      <point x="190" y="78"/>
      <point x="164" y="103"/>
      <point x="133" y="103" type="curve" smooth="yes"/>
      <point x="102" y="103"/>
      <point x="77" y="78"/>
      <point x="77" y="46" type="curve" smooth="yes"/>
      <point x="77" y="15"/>
      <point x="102" y="-10"/>
      <point x="133" y="-10" type="curve" smooth="yes"/>
      <point x="164" y="-10"/>
      <point x="190" y="15"/>
      <point x="190" y="46" type="curve" smooth="yes"/>
    </contour>
  </outline>
</glyph>
<glyph name="quotedbl" format="1">
  <advance width="407"/>
  <unicode hex="0022"/>
  <outline>
    <contour>
      <point x="57" y="504"/>
      <point x="59" y="505"/>
      <point x="61" y="506" type="curve"/>
      <point x="106" y="540"/>
      <point x="142" y="576"/>
      <point x="169" y="613" type="curve" smooth="yes"/>
      <point x="190" y="643"/>
      <point x="205" y="674"/>
      <point x="213" y="704" type="curve" smooth="yes"/>
      <point x="227" y="756"/>
      <point x="216" y="790"/>
      <point x="215" y="791" type="curve"/>
      <point x="214" y="796"/>
      <point x="209" y="798"/>
      <point x="204" y="797" type="curve"/>
      <point x="199" y="795"/>
      <point x="197" y="790"/>
      <point x="198" y="786" type="curve"/>
      <point x="198" y="785"/>
      <point x="208" y="755"/>
      <point x="195" y="707" type="curve" smooth="yes"/>
      <point x="183" y="663"/>
      <point x="148" y="595"/>
      <point x="50" y="520" type="curve" smooth="yes"/>
      <point x="46" y="517"/>
      <point x="45" y="512"/>
      <point x="48" y="508" type="curve"/>
      <point x="50" y="505"/>
      <point x="53" y="504"/>
      <point x="56" y="504" type="curve" smooth="yes"/>
    </contour>
    <contour>
      <point x="166" y="504"/>
      <point x="168" y="505"/>
      <point x="170" y="506" type="curve"/>
      <point x="215" y="540"/>
      <point x="251" y="576"/>
      <point x="278" y="613" type="curve" smooth="yes"/>
      <point x="299" y="643"/>
      <point x="314" y="674"/>
      <point x="322" y="704" type="curve" smooth="yes"/>
      <point x="336" y="756"/>
      <point x="325" y="790"/>
      <point x="324" y="791" type="curve"/>
      <point x="323" y="796"/>
      <point x="318" y="798"/>
      <point x="313" y="797" type="curve"/>
      <point x="308" y="795"/>
      <point x="306" y="790"/>
      <point x="307" y="786" type="curve"/>
      <point x="307" y="785"/>
      <point x="317" y="755"/>
      <point x="304" y="707" type="curve" smooth="yes"/>
      <point x="292" y="663"/>
      <point x="257" y="595"/>
      <point x="159" y="520" type="curve" smooth="yes"/>
      <point x="155" y="517"/>
      <point x="154" y="512"/>
      <point x="157" y="508" type="curve"/>
      <point x="159" y="505"/>
      <point x="162" y="504"/>
      <point x="165" y="504" type="curve" smooth="yes"/>
    </contour>
  </outline>
</glyph>
<glyph name="numbersign" format="1">
  <advance width="962"/>
  <unicode hex="0023"/>
  <outline>
    <contour>
      <point x="44" y="-74"/>
      <point x="47" y="-72"/>
      <point x="48" y="-70" type="curve"/>
      <point x="643" y="846" type="line"/>
      <point x="646" y="850"/>
      <point x="645" y="855"/>
      <point x="641" y="858" type="curve"/>
      <point x="636" y="861"/>
      <point x="631" y="860"/>
      <point x="628" y="856" type="curve"/>
      <point x="33" y="-60" type="line"/>
      <point x="31" y="-64"/>
      <point x="32" y="-70"/>
      <point x="36" y="-72" type="curve"/>
      <point x="37" y="-73"/>
      <point x="39" y="-74"/>
      <point x="41" y="-74" type="curve" smooth="yes"/>
    </contour>
    <contour>
      <point x="341" y="-74"/>
      <point x="344" y="-72"/>
      <point x="346" y="-70" type="curve"/>
      <point x="941" y="846" type="line"/>
      <point x="943" y="850"/>
      <point x="942" y="855"/>
      <point x="938" y="858" type="curve" smooth="yes"/>
      <point x="934" y="861"/>
      <point x="928" y="860"/>
      <point x="926" y="856" type="curve"/>
      <point x="331" y="-60" type="line"/>
      <point x="328" y="-64"/>
      <point x="329" y="-70"/>
      <point x="333" y="-72" type="curve" smooth="yes"/>
      <point x="335" y="-73"/>
      <point x="337" y="-74"/>
      <point x="338" y="-74" type="curve" smooth="yes"/>
    </contour>
    <contour>
      <point x="884" y="556" type="line" smooth="yes"/>
      <point x="889" y="556"/>
      <point x="893" y="560"/>
      <point x="893" y="565" type="curve" smooth="yes"/>
      <point x="893" y="570"/>
      <point x="889" y="574"/>
      <point x="884" y="574" type="curve" smooth="yes"/>
      <point x="279" y="574" type="line" smooth="yes"/>
      <point x="274" y="574"/>
      <point x="270" y="570"/>
      <point x="270" y="565" type="curve" smooth="yes"/>
      <point x="270" y="560"/>
      <point x="274" y="556"/>
      <point x="279" y="556" type="curve" smooth="yes"/>
    </contour>
    <contour>
      <point x="711" y="234" type="line" smooth="yes"/>
      <point x="716" y="234"/>
      <point x="720" y="238"/>
      <point x="720" y="243" type="curve" smooth="yes"/>
      <point x="720" y="248"/>
      <point x="716" y="252"/>
      <point x="711" y="252" type="curve" smooth="yes"/>
      <point x="106" y="252" type="line" smooth="yes"/>
      <point x="101" y="252"/>
      <point x="97" y="248"/>
      <point x="97" y="243" type="curve" smooth="yes"/>
      <point x="97" y="238"/>
      <point x="101" y="234"/>
      <point x="106" y="234" type="curve" smooth="yes"/>
    </contour>
  </outline>
</glyph>
<glyph name="dollar" format="1">
  <advance width="950"/>
  <unicode hex="0024"/>
  <outline>
    <contour>
      <point x="363" y="-97"/>
      <point x="477" y="-40"/>
      <point x="537" y="76" type="curve" smooth="yes"/>
      <point x="575" y="148"/>
      <point x="594" y="221"/>
      <point x="597" y="299" type="curve" smooth="yes"/>
      <point x="599" y="369"/>
      <point x="588" y="437"/>
      <point x="577" y="502" type="curve" smooth="yes"/>
      <point x="559" y="611"/>
      <point x="535" y="726"/>
      <point x="585" y="852" type="curve" smooth="yes"/>
      <point x="644" y="1000"/>
      <point x="787" y="1021"/>
      <point x="859" y="982" type="curve" smooth="yes"/>
      <point x="925" y="946"/>
      <point x="957" y="879"/>
      <point x="910" y="788" type="curve" smooth="yes"/>
      <point x="877" y="724"/>
      <point x="788" y="694"/>
      <point x="787" y="694" type="curve"/>
      <point x="782" y="692"/>
      <point x="780" y="687"/>
      <point x="782" y="682" type="curve" smooth="yes"/>
      <point x="784" y="677"/>
      <point x="789" y="675"/>
      <point x="793" y="677" type="curve"/>
      <point x="797" y="678"/>
      <point x="893" y="708"/>
      <point x="930" y="782" type="curve" smooth="yes"/>
      <point x="979" y="880"/>
      <point x="942" y="960"/>
      <point x="868" y="997" type="curve" smooth="yes"/>
      <point x="778" y="1042"/>
      <point x="631" y="1017"/>
      <point x="567" y="858" type="curve" smooth="yes"/>
      <point x="515" y="728"/>
      <point x="541" y="610"/>
      <point x="559" y="499" type="curve" smooth="yes"/>
      <point x="581" y="365"/>
      <point x="602" y="239"/>
      <point x="521" y="84" type="curve" smooth="yes"/>
      <point x="456" y="-40"/>
      <point x="334" y="-80"/>
      <point x="242" y="-76" type="curve" smooth="yes"/>
      <point x="155" y="-72"/>
      <point x="84" y="-32"/>
      <point x="59" y="27" type="curve" smooth="yes"/>
      <point x="35" y="83"/>
      <point x="43" y="139"/>
      <point x="83" y="193" type="curve" smooth="yes"/>
      <point x="114" y="235"/>
      <point x="153" y="259"/>
      <point x="153" y="260" type="curve"/>
      <point x="158" y="262"/>
      <point x="159" y="268"/>
      <point x="156" y="272" type="curve"/>
      <point x="154" y="276"/>
      <point x="148" y="277"/>
      <point x="144" y="275" type="curve" smooth="yes"/>
      <point x="142" y="274"/>
      <point x="102" y="248"/>
      <point x="69" y="205" type="curve" smooth="yes"/>
      <point x="25" y="146"/>
      <point x="16" y="82"/>
      <point x="42" y="20" type="curve" smooth="yes"/>
      <point x="74" y="-55"/>
      <point x="161" y="-92"/>
      <point x="241" y="-94" type="curve" smooth="yes"/>
    </contour>
    <contour>
      <point x="110" y="-188"/>
      <point x="116" y="-190"/>
      <point x="120" y="-184" type="curve" smooth="yes"/>
      <point x="933" y="1086" type="line"/>
      <point x="936" y="1090"/>
      <point x="935" y="1097"/>
      <point x="931" y="1099" type="curve"/>
      <point x="926" y="1102"/>
      <point x="921" y="1100"/>
      <point x="918" y="1096" type="curve"/>
      <point x="105" y="-174" type="line"/>
      <point x="102" y="-178"/>
      <point x="103" y="-184"/>
      <point x="107" y="-186" type="curve"/>
    </contour>
  </outline>
</glyph>
<glyph name="percent" format="1">
  <advance width="833"/>
  <unicode hex="0025"/>
  <outline>
    <contour>
      <point x="495" y="850"/>
      <point x="448" y="896"/>
      <point x="391" y="896" type="curve" smooth="yes"/>
      <point x="335" y="896"/>
      <point x="288" y="850"/>
      <point x="288" y="793" type="curve" smooth="yes"/>
      <point x="288" y="736"/>
      <point x="335" y="690"/>
      <point x="391" y="690" type="curve" smooth="yes"/>
      <point x="448" y="690"/>
      <point x="495" y="736"/>
      <point x="495" y="793" type="curve" smooth="yes"/>
    </contour>
    <contour>
      <point x="503" y="128"/>
      <point x="457" y="174"/>
      <point x="400" y="174" type="curve" smooth="yes"/>
      <point x="343" y="174"/>
      <point x="297" y="128"/>
      <point x="297" y="71" type="curve" smooth="yes"/>
      <point x="297" y="14"/>
      <point x="343" y="-32"/>
      <point x="400" y="-32" type="curve" smooth="yes"/>
      <point x="457" y="-32"/>
      <point x="503" y="14"/>
      <point x="503" y="71" type="curve" smooth="yes"/>
    </contour>
    <contour>
      <point x="109" y="-34"/>
      <point x="112" y="-33"/>
      <point x="114" y="-30" type="curve" smooth="yes"/>
      <point x="702" y="885" type="line"/>
      <point x="704" y="890"/>
      <point x="703" y="895"/>
      <point x="699" y="898" type="curve" smooth="yes"/>
      <point x="695" y="901"/>
      <point x="689" y="899"/>
      <point x="686" y="895" type="curve"/>
      <point x="99" y="-20" type="line"/>
      <point x="96" y="-24"/>
      <point x="97" y="-30"/>
      <point x="102" y="-33" type="curve"/>
      <point x="103" y="-34"/>
      <point x="105" y="-34"/>
      <point x="106" y="-34" type="curve" smooth="yes"/>
    </contour>
  </outline>
</glyph>
<glyph name="ampersand" format="1">
  <advance width="1163"/>
  <unicode hex="0026"/>
  <outline>
    <contour>
      <point x="446" y="-140"/>
      <point x="505" y="-128"/>
      <point x="562" y="-106" type="curve"/>
      <point x="588" y="-123"/>
      <point x="621" y="-133"/>
      <point x="663" y="-134" type="curve" smooth="yes"/>
      <point x="748" y="-138"/>
      <point x="830" y="-101"/>
      <point x="895" y="-43" type="curve" smooth="yes"/>
      <point x="949" y="5"/>
      <point x="977" y="53"/>
      <point x="979" y="55" type="curve"/>
      <point x="981" y="59"/>
      <point x="980" y="65"/>
      <point x="976" y="67" type="curve"/>
      <point x="971" y="70"/>
      <point x="966" y="68"/>
      <point x="963" y="64" type="curve"/>
      <point x="963" y="64"/>
      <point x="935" y="17"/>
      <point x="883" y="-29" type="curve" smooth="yes"/>
      <point x="836" y="-71"/>
      <point x="760" y="-120"/>
      <point x="664" y="-116" type="curve" smooth="yes"/>
      <point x="631" y="-115"/>
      <point x="604" y="-109"/>
      <point x="583" y="-97" type="curve"/>
      <point x="591" y="-94"/>
      <point x="599" y="-90"/>
      <point x="607" y="-86" type="curve" smooth="yes"/>
      <point x="663" y="-57"/>
      <point x="717" y="-17"/>
      <point x="766" y="33" type="curve" smooth="yes"/>
      <point x="850" y="118"/>
      <point x="892" y="202"/>
      <point x="894" y="206" type="curve" smooth="yes"/>
      <point x="896" y="210"/>
      <point x="894" y="216"/>
      <point x="890" y="218" type="curve"/>
      <point x="885" y="220"/>
      <point x="880" y="218"/>
      <point x="878" y="214" type="curve"/>
      <point x="877" y="213"/>
      <point x="835" y="129"/>
      <point x="753" y="46" type="curve" smooth="yes"/>
      <point x="708" y="0"/>
      <point x="644" y="-52"/>
      <point x="564" y="-85" type="curve"/>
      <point x="553" y="-76"/>
      <point x="544" y="-65"/>
      <point x="537" y="-52" type="curve" smooth="yes"/>
      <point x="502" y="16"/>
      <point x="526" y="138"/>
      <point x="608" y="311" type="curve" smooth="yes"/>
      <point x="659" y="420"/>
      <point x="727" y="535"/>
      <point x="788" y="633" type="curve"/>
      <point x="816" y="641"/>
      <point x="844" y="649"/>
      <point x="871" y="657" type="curve" smooth="yes"/>
      <point x="1029" y="706"/>
      <point x="1115" y="763"/>
      <point x="1128" y="827" type="curve" smooth="yes"/>
      <point x="1133" y="852"/>
      <point x="1129" y="874"/>
      <point x="1117" y="890" type="curve" smooth="yes"/>
      <point x="1085" y="931"/>
      <point x="979" y="960"/>
      <point x="849" y="760" type="curve" smooth="yes"/>
      <point x="827" y="727"/>
      <point x="802" y="689"/>
      <point x="777" y="648" type="curve"/>
      <point x="758" y="643"/>
      <point x="739" y="637"/>
      <point x="720" y="632" type="curve" smooth="yes"/>
      <point x="495" y="569"/>
      <point x="232" y="497"/>
      <point x="136" y="240" type="curve" smooth="yes"/>
      <point x="107" y="161"/>
      <point x="103" y="82"/>
      <point x="126" y="17" type="curve" smooth="yes"/>
      <point x="165" y="-91"/>
      <point x="265" y="-140"/>
      <point x="385" y="-140" type="curve" smooth="yes"/>
    </contour>
    <contour>
      <point x="704" y="531"/>
      <point x="641" y="423"/>
      <point x="592" y="319" type="curve" smooth="yes"/>
      <point x="553" y="236"/>
      <point x="526" y="164"/>
      <point x="513" y="105" type="curve" smooth="yes"/>
      <point x="498" y="35"/>
      <point x="501" y="-21"/>
      <point x="521" y="-60" type="curve"/>
      <point x="527" y="-73"/>
      <point x="536" y="-84"/>
      <point x="545" y="-93" type="curve"/>
      <point x="498" y="-111"/>
      <point x="444" y="-122"/>
      <point x="385" y="-122" type="curve" smooth="yes"/>
      <point x="262" y="-122"/>
      <point x="176" y="-70"/>
      <point x="143" y="23" type="curve" smooth="yes"/>
      <point x="121" y="84"/>
      <point x="125" y="159"/>
      <point x="153" y="234" type="curve" smooth="yes"/>
      <point x="246" y="478"/>
      <point x="483" y="547"/>
      <point x="725" y="615" type="curve" smooth="yes"/>
      <point x="737" y="618"/>
      <point x="750" y="622"/>
      <point x="762" y="625" type="curve"/>
    </contour>
    <contour>
      <point x="1035" y="905"/>
      <point x="1081" y="908"/>
      <point x="1103" y="878" type="curve"/>
      <point x="1111" y="866"/>
      <point x="1114" y="851"/>
      <point x="1110" y="830" type="curve" smooth="yes"/>
      <point x="1102" y="791"/>
      <point x="1054" y="733"/>
      <point x="866" y="675" type="curve" smooth="yes"/>
      <point x="845" y="668"/>
      <point x="824" y="662"/>
      <point x="803" y="656" type="curve"/>
      <point x="824" y="690"/>
      <point x="845" y="722"/>
      <point x="864" y="750" type="curve" smooth="yes"/>
      <point x="925" y="844"/>
      <point x="977" y="878"/>
      <point x="1009" y="893" type="curve" smooth="yes"/>
    </contour>
  </outline>
</glyph>
<glyph name="quotesingle" format="1">
  <advance width="243"/>
  <unicode hex="0027"/>
  <outline>
    <contour>
      <point x="279" y="560"/>
      <point x="283" y="562"/>
      <point x="284" y="565" type="curve"/>
      <point x="421" y="840" type="line"/>
      <point x="423" y="845"/>
      <point x="422" y="850"/>
      <point x="417" y="852" type="curve"/>
      <point x="413" y="855"/>
      <point x="407" y="853"/>
      <point x="405" y="848" type="curve"/>
      <point x="268" y="573" type="line" smooth="yes"/>
      <point x="266" y="569"/>
      <point x="268" y="563"/>
      <point x="272" y="561" type="curve"/>
      <point x="273" y="560"/>
      <point x="275" y="560"/>
      <point x="276" y="560" type="curve" smooth="yes"/>
    </contour>
  </outline>
</glyph>
<glyph name="parenleft" format="1">
  <advance width="384"/>
  <unicode hex="0028"/>
  <outline>
    <contour>
      <point x="119" y="-145"/>
      <point x="120" y="-145"/>
      <point x="120" y="-145" type="curve"/>
      <point x="125" y="-144"/>
      <point x="129" y="-139"/>
      <point x="128" y="-135" type="curve"/>
      <point x="87" y="202"/>
      <point x="266" y="485"/>
      <point x="424" y="662" type="curve" smooth="yes"/>
      <point x="513" y="764"/>
      <point x="605" y="842"/>
      <point x="667" y="891" type="curve" smooth="yes"/>
      <point x="733" y="943"/>
      <point x="779" y="972"/>
      <point x="780" y="972" type="curve"/>
      <point x="784" y="975"/>
      <point x="785" y="980"/>
      <point x="783" y="984" type="curve"/>
      <point x="780" y="989"/>
      <point x="775" y="990"/>
      <point x="770" y="987" type="curve"/>
      <point x="770" y="987"/>
      <point x="723" y="958"/>
      <point x="656" y="905" type="curve" smooth="yes"/>
      <point x="594" y="856"/>
      <point x="501" y="777"/>
      <point x="411" y="675" type="curve" smooth="yes"/>
      <point x="309" y="560"/>
      <point x="231" y="441"/>
      <point x="180" y="320" type="curve" smooth="yes"/>
      <point x="115" y="169"/>
      <point x="92" y="15"/>
      <point x="110" y="-137" type="curve"/>
      <point x="111" y="-141"/>
      <point x="115" y="-145"/>
      <point x="119" y="-145" type="curve"/>
    </contour>
  </outline>
</glyph>
<glyph name="parenright" format="1">
  <advance width="593"/>
  <unicode hex="0029"/>
  <outline>
    <contour>
      <point x="-154" y="-183"/>
      <point x="-152" y="-182"/>
      <point x="-151" y="-181" type="curve"/>
      <point x="-150" y="-181"/>
      <point x="-104" y="-152"/>
      <point x="-36" y="-99" type="curve" smooth="yes"/>
      <point x="26" y="-50"/>
      <point x="119" y="29"/>
      <point x="209" y="131" type="curve" smooth="yes"/>
      <point x="311" y="246"/>
      <point x="388" y="366"/>
      <point x="440" y="486" type="curve" smooth="yes"/>
      <point x="504" y="638"/>
      <point x="528" y="791"/>
      <point x="509" y="943" type="curve"/>
      <point x="509" y="948"/>
      <point x="504" y="951"/>
      <point x="499" y="951" type="curve"/>
      <point x="494" y="950"/>
      <point x="491" y="946"/>
      <point x="491" y="941" type="curve"/>
      <point x="532" y="604"/>
      <point x="353" y="322"/>
      <point x="196" y="144" type="curve" smooth="yes"/>
      <point x="106" y="43"/>
      <point x="14" y="-36"/>
      <point x="-47" y="-84" type="curve" smooth="yes"/>
      <point x="-114" y="-137"/>
      <point x="-160" y="-166"/>
      <point x="-160" y="-166" type="curve"/>
      <point x="-165" y="-169"/>
      <point x="-166" y="-174"/>
      <point x="-163" y="-178" type="curve"/>
      <point x="-162" y="-181"/>
      <point x="-159" y="-183"/>
      <point x="-156" y="-183" type="curve" smooth="yes"/>
    </contour>
  </outline>
</glyph>
<glyph name="asterisk" format="1">
  <advance width="431"/>
  <unicode hex="002A"/>
  <outline>
    <contour>
      <point x="399" y="699" type="line"/>
      <point x="397" y="734"/>
      <point x="357" y="741"/>
      <point x="318" y="724" type="curve" smooth="yes"/>
      <point x="297" y="715"/>
      <point x="263" y="707"/>
      <point x="240" y="704" type="curve"/>
      <point x="258" y="719"/>
      <point x="288" y="737"/>
      <point x="309" y="746" type="curve"/>
      <point x="348" y="761"/>
      <point x="373" y="794"/>
      <point x="350" y="820" type="curve"/>
      <point x="347" y="823" type="line"/>
      <point x="321" y="845"/>
      <point x="288" y="822"/>
      <point x="272" y="783" type="curve"/>
      <point x="264" y="761"/>
      <point x="245" y="731"/>
      <point x="231" y="714" type="curve"/>
      <point x="233" y="736"/>
      <point x="241" y="771"/>
      <point x="250" y="792" type="curve" smooth="yes"/>
      <point x="267" y="831"/>
      <point x="260" y="870"/>
      <point x="226" y="873" type="curve"/>
      <point x="224" y="873"/>
      <point x="223" y="873"/>
      <point x="223" y="873" type="curve"/>
      <point x="188" y="870"/>
      <point x="181" y="831"/>
      <point x="198" y="792" type="curve" smooth="yes"/>
      <point x="207" y="771"/>
      <point x="215" y="736"/>
      <point x="218" y="714" type="curve"/>
      <point x="203" y="731"/>
      <point x="185" y="761"/>
      <point x="176" y="783" type="curve" smooth="yes"/>
      <point x="161" y="822"/>
      <point x="128" y="845"/>
      <point x="102" y="823" type="curve"/>
      <point x="99" y="820" type="line"/>
      <point x="77" y="794"/>
      <point x="100" y="761"/>
      <point x="139" y="746" type="curve" smooth="yes"/>
      <point x="161" y="737"/>
      <point x="191" y="719"/>
      <point x="208" y="704" type="curve"/>
      <point x="186" y="707"/>
      <point x="151" y="715"/>
      <point x="130" y="724" type="curve" smooth="yes"/>
      <point x="91" y="741"/>
      <point x="52" y="734"/>
      <point x="49" y="699" type="curve"/>
      <point x="49" y="697"/>
      <point x="49" y="697"/>
      <point x="49" y="696" type="curve"/>
      <point x="52" y="662"/>
      <point x="91" y="655"/>
      <point x="130" y="672" type="curve" smooth="yes"/>
      <point x="151" y="681"/>
      <point x="186" y="689"/>
      <point x="208" y="691" type="curve"/>
      <point x="191" y="677"/>
      <point x="161" y="658"/>
      <point x="139" y="650" type="curve"/>
      <point x="98" y="633"/>
      <point x="76" y="596"/>
      <point x="101" y="572" type="curve"/>
      <point x="128" y="550"/>
      <point x="161" y="574"/>
      <point x="176" y="613" type="curve"/>
      <point x="185" y="634"/>
      <point x="203" y="664"/>
      <point x="218" y="682" type="curve"/>
      <point x="215" y="659"/>
      <point x="207" y="625"/>
      <point x="198" y="604" type="curve" smooth="yes"/>
      <point x="181" y="565"/>
      <point x="188" y="525"/>
      <point x="223" y="523" type="curve"/>
      <point x="226" y="523" type="line"/>
      <point x="260" y="525"/>
      <point x="267" y="565"/>
      <point x="250" y="604" type="curve" smooth="yes"/>
      <point x="241" y="625"/>
      <point x="233" y="659"/>
      <point x="231" y="682" type="curve"/>
      <point x="245" y="664"/>
      <point x="264" y="634"/>
      <point x="272" y="613" type="curve" smooth="yes"/>
      <point x="288" y="574"/>
      <point x="321" y="550"/>
      <point x="347" y="573" type="curve"/>
      <point x="349" y="575" type="line"/>
      <point x="372" y="601"/>
      <point x="348" y="634"/>
      <point x="309" y="650" type="curve" smooth="yes"/>
      <point x="288" y="658"/>
      <point x="258" y="677"/>
      <point x="240" y="691" type="curve"/>
      <point x="263" y="689"/>
      <point x="297" y="681"/>
      <point x="318" y="672" type="curve" smooth="yes"/>
      <point x="357" y="655"/>
      <point x="397" y="662"/>
      <point x="399" y="696" type="curve"/>
    </contour>
  </outline>
</glyph>
<glyph name="plus" format="1">
  <advance width="833"/>
  <unicode hex="002B"/>
  <outline>
    <contour>
      <point x="207" y="59"/>
      <point x="210" y="61"/>
      <point x="212" y="63" type="curve"/>
      <point x="588" y="641" type="line"/>
      <point x="590" y="645"/>
      <point x="589" y="650"/>
      <point x="585" y="653" type="curve" smooth="yes"/>
      <point x="581" y="656"/>
      <point x="575" y="655"/>
      <point x="573" y="651" type="curve"/>
      <point x="197" y="73" type="line"/>
      <point x="194" y="69"/>
      <point x="195" y="63"/>
      <point x="199" y="61" type="curve" smooth="yes"/>
      <point x="201" y="60"/>
      <point x="203" y="59"/>
      <point x="204" y="59" type="curve" smooth="yes"/>
    </contour>
    <contour>
      <point x="725" y="367" type="line" smooth="yes"/>
      <point x="730" y="367"/>
      <point x="734" y="371"/>
      <point x="734" y="376" type="curve" smooth="yes"/>
      <point x="734" y="381"/>
      <point x="730" y="385"/>
      <point x="725" y="385" type="curve" smooth="yes"/>
      <point x="120" y="385" type="line" smooth="yes"/>
      <point x="115" y="385"/>
      <point x="111" y="381"/>
      <point x="111" y="376" type="curve" smooth="yes"/>
      <point x="111" y="371"/>
      <point x="115" y="367"/>
      <point x="120" y="367" type="curve" smooth="yes"/>
    </contour>
  </outline>
</glyph>
<glyph name="comma" format="1">
  <advance width="203"/>
  <unicode hex="002C"/>
  <outline>
    <contour>
      <point x="182" y="84"/>
      <point x="157" y="109"/>
      <point x="125" y="109" type="curve" smooth="yes"/>
      <point x="94" y="109"/>
      <point x="69" y="84"/>
      <point x="69" y="52" type="curve" smooth="yes"/>
      <point x="69" y="21"/>
      <point x="94" y="-4"/>
      <point x="125" y="-4" type="curve" smooth="yes"/>
      <point x="128" y="-4"/>
      <point x="131" y="-4"/>
      <point x="134" y="-3" type="curve"/>
      <point x="120" y="-16"/>
      <point x="99" y="-28"/>
      <point x="69" y="-36" type="curve"/>
      <point x="64" y="-38"/>
      <point x="61" y="-42"/>
      <point x="63" y="-47" type="curve"/>
      <point x="64" y="-51"/>
      <point x="67" y="-53"/>
      <point x="71" y="-53" type="curve"/>
      <point x="71" y="-53"/>
      <point x="72" y="-53"/>
      <point x="73" y="-53" type="curve"/>
      <point x="143" y="-34"/>
      <point x="168" y="5"/>
      <point x="177" y="29" type="curve"/>
      <point x="180" y="36"/>
      <point x="182" y="44"/>
      <point x="182" y="52" type="curve" smooth="yes"/>
    </contour>
  </outline>
</glyph>
<glyph name="hyphen" format="1">
  <advance width="716"/>
  <unicode hex="002D"/>
  <outline>
    <contour>
      <point x="666" y="303"/>
      <point x="670" y="307"/>
      <point x="670" y="312" type="curve" smooth="yes"/>
      <point x="670" y="317"/>
      <point x="666" y="321"/>
      <point x="661" y="321" type="curve" smooth="yes"/>
      <point x="56" y="321" type="line" smooth="yes"/>
      <point x="51" y="321"/>
      <point x="47" y="317"/>
      <point x="47" y="312" type="curve" smooth="yes"/>
      <point x="47" y="307"/>
      <point x="51" y="303"/>
      <point x="56" y="303" type="curve" smooth="yes"/>
      <point x="661" y="303" type="line" smooth="yes"/>
    </contour>
  </outline>
</glyph>
<glyph name="period" format="1">
  <advance width="223"/>
  <unicode hex="002E"/>
  <outline>
    <contour>
      <point x="190" y="78"/>
      <point x="164" y="103"/>
      <point x="133" y="103" type="curve" smooth="yes"/>
      <point x="102" y="103"/>
      <point x="77" y="78"/>
      <point x="77" y="46" type="curve" smooth="yes"/>
      <point x="77" y="15"/>
      <point x="102" y="-10"/>
      <point x="133" y="-10" type="curve" smooth="yes"/>
      <point x="164" y="-10"/>
      <point x="190" y="15"/>
      <point x="190" y="46" type="curve" smooth="yes"/>
    </contour>
  </outline>
</glyph>
<glyph name="slash" format="1">
  <advance width="969"/>
  <unicode hex="002F"/>
  <outline>
    <contour>
      <point x="179" y="-225"/>
      <point x="182" y="-224"/>
      <point x="184" y="-221" type="curve" smooth="yes"/>
      <point x="997" y="1049" type="line"/>
      <point x="1000" y="1053"/>
      <point x="999" y="1059"/>
      <point x="995" y="1061" type="curve"/>
      <point x="990" y="1064"/>
      <point x="985" y="1063"/>
      <point x="982" y="1059" type="curve"/>
      <point x="169" y="-211" type="line"/>
      <point x="166" y="-215"/>
      <point x="167" y="-221"/>
      <point x="171" y="-224" type="curve"/>
      <point x="173" y="-225"/>
      <point x="174" y="-225"/>
      <point x="176" y="-225" type="curve" smooth="yes"/>
    </contour>
  </outline>
</glyph>
<glyph name="zero" format="1">
  <advance width="778"/>
  <unicode hex="0030"/>
  <outline>
    <contour>
      <point x="266" y="-22" type="line"/>
      <point x="300" y="-22"/>
      <point x="335" y="-16"/>
      <point x="369" y="-2" type="curve" smooth="yes"/>
      <point x="413" y="15"/>
      <point x="456" y="43"/>
      <point x="498" y="82" type="curve" smooth="yes"/>
      <point x="584" y="162"/>
      <point x="662" y="285"/>
      <point x="729" y="448" type="curve" smooth="yes"/>
      <point x="769" y="544"/>
      <point x="787" y="631"/>
      <point x="784" y="705" type="curve" smooth="yes"/>
      <point x="782" y="768"/>
      <point x="762" y="822"/>
      <point x="729" y="859" type="curve" smooth="yes"/>
      <point x="688" y="905"/>
      <point x="628" y="923"/>
      <point x="572" y="906" type="curve"/>
      <point x="570" y="906"/>
      <point x="556" y="902"/>
      <point x="541" y="889" type="curve" smooth="yes"/>
      <point x="527" y="877"/>
      <point x="509" y="855"/>
      <point x="507" y="818" type="curve" smooth="yes"/>
      <point x="505" y="783"/>
      <point x="525" y="756"/>
      <point x="566" y="737" type="curve" smooth="yes"/>
      <point x="594" y="723"/>
      <point x="623" y="719"/>
      <point x="625" y="719" type="curve"/>
      <point x="630" y="718"/>
      <point x="635" y="722"/>
      <point x="636" y="728" type="curve" smooth="yes"/>
      <point x="637" y="733"/>
      <point x="633" y="738"/>
      <point x="627" y="739" type="curve"/>
      <point x="626" y="739"/>
      <point x="523" y="754"/>
      <point x="527" y="816" type="curve" smooth="yes"/>
      <point x="530" y="873"/>
      <point x="576" y="887"/>
      <point x="577" y="887" type="curve" smooth="yes"/>
      <point x="578" y="887" type="line"/>
      <point x="626" y="901"/>
      <point x="678" y="885"/>
      <point x="714" y="846" type="curve" smooth="yes"/>
      <point x="746" y="810"/>
      <point x="811" y="699"/>
      <point x="711" y="456" type="curve" smooth="yes"/>
      <point x="645" y="296"/>
      <point x="569" y="175"/>
      <point x="484" y="96" type="curve" smooth="yes"/>
      <point x="405" y="23"/>
      <point x="323" y="-10"/>
      <point x="239" y="-1" type="curve" smooth="yes"/>
      <point x="181" y="5"/>
      <point x="137" y="36"/>
      <point x="112" y="88" type="curve" smooth="yes"/>
      <point x="84" y="146"/>
      <point x="79" y="226"/>
      <point x="99" y="321" type="curve" smooth="yes"/>
      <point x="119" y="420"/>
      <point x="165" y="528"/>
      <point x="231" y="634" type="curve" smooth="yes"/>
      <point x="356" y="832"/>
      <point x="483" y="909"/>
      <point x="568" y="939" type="curve" smooth="yes"/>
      <point x="660" y="971"/>
      <point x="724" y="956"/>
      <point x="724" y="956" type="curve"/>
      <point x="730" y="955"/>
      <point x="735" y="958"/>
      <point x="736" y="964" type="curve"/>
      <point x="738" y="969"/>
      <point x="734" y="974"/>
      <point x="729" y="976" type="curve"/>
      <point x="726" y="976"/>
      <point x="660" y="992"/>
      <point x="563" y="958" type="curve" smooth="yes"/>
      <point x="507" y="939"/>
      <point x="451" y="907"/>
      <point x="398" y="863" type="curve" smooth="yes"/>
      <point x="333" y="808"/>
      <point x="271" y="734"/>
      <point x="214" y="645" type="curve" smooth="yes"/>
      <point x="147" y="537"/>
      <point x="100" y="426"/>
      <point x="79" y="325" type="curve" smooth="yes"/>
      <point x="59" y="226"/>
      <point x="64" y="141"/>
      <point x="94" y="79" type="curve" smooth="yes"/>
      <point x="122" y="21"/>
      <point x="172" y="-14"/>
      <point x="237" y="-21" type="curve" smooth="yes"/>
      <point x="247" y="-22"/>
      <point x="256" y="-22"/>
      <point x="266" y="-22" type="curve"/>
    </contour>
  </outline>
</glyph>
<glyph name="one" format="1">
  <advance width="567"/>
  <unicode hex="0031"/>
  <outline>
    <contour>
      <point x="95" y="-12"/>
      <point x="99" y="-9"/>
      <point x="101" y="-6" type="curve" smooth="yes"/>
      <point x="373" y="402"/>
      <point x="804" y="966"/>
      <point x="808" y="972" type="curve"/>
      <point x="793" y="984" type="line"/>
      <point x="679" y="858"/>
      <point x="506" y="798"/>
      <point x="381" y="770" type="curve" smooth="yes"/>
      <point x="245" y="740"/>
      <point x="134" y="739"/>
      <point x="133" y="739" type="curve" smooth="yes"/>
      <point x="128" y="739"/>
      <point x="123" y="735"/>
      <point x="123" y="729" type="curve" smooth="yes"/>
      <point x="123" y="724"/>
      <point x="128" y="719"/>
      <point x="133" y="719" type="curve" smooth="yes"/>
      <point x="134" y="719"/>
      <point x="247" y="720"/>
      <point x="385" y="751" type="curve" smooth="yes"/>
      <point x="467" y="769"/>
      <point x="541" y="794"/>
      <point x="606" y="825" type="curve" smooth="yes"/>
      <point x="651" y="846"/>
      <point x="691" y="871"/>
      <point x="727" y="897" type="curve"/>
      <point x="595" y="723"/>
      <point x="293" y="318"/>
      <point x="84" y="6" type="curve"/>
      <point x="81" y="1"/>
      <point x="82" y="-5"/>
      <point x="87" y="-8" type="curve"/>
    </contour>
  </outline>
</glyph>
<glyph name="two" format="1">
  <advance width="806"/>
  <unicode hex="0032"/>
  <outline>
    <contour>
      <point x="650" y="-41"/>
      <point x="673" y="-28"/>
      <point x="696" y="0" type="curve"/>
      <point x="699" y="5"/>
      <point x="699" y="11"/>
      <point x="694" y="14" type="curve"/>
      <point x="690" y="18"/>
      <point x="684" y="17"/>
      <point x="680" y="13" type="curve"/>
      <point x="638" y="-41"/>
      <point x="598" y="-22"/>
      <point x="534" y="8" type="curve" smooth="yes"/>
      <point x="488" y="30"/>
      <point x="431" y="56"/>
      <point x="358" y="61" type="curve" smooth="yes"/>
      <point x="298" y="65"/>
      <point x="224" y="40"/>
      <point x="165" y="20" type="curve" smooth="yes"/>
      <point x="140" y="12"/>
      <point x="117" y="6"/>
      <point x="99" y="0" type="curve" smooth="yes"/>
      <point x="67" y="-10"/>
      <point x="63" y="-2"/>
      <point x="63" y="-2" type="curve"/>
      <point x="59" y="3"/>
      <point x="69" y="14"/>
      <point x="77" y="24" type="curve"/>
      <point x="191" y="178"/>
      <point x="427" y="327"/>
      <point x="616" y="446" type="curve" smooth="yes"/>
      <point x="694" y="495"/>
      <point x="760" y="537"/>
      <point x="808" y="572" type="curve" smooth="yes"/>
      <point x="890" y="634"/>
      <point x="975" y="743"/>
      <point x="944" y="857" type="curve" smooth="yes"/>
      <point x="924" y="928"/>
      <point x="858" y="968"/>
      <point x="785" y="975" type="curve" smooth="yes"/>
      <point x="643" y="990"/>
      <point x="502" y="922"/>
      <point x="427" y="787" type="curve" smooth="yes"/>
      <point x="398" y="735"/>
      <point x="410" y="666"/>
      <point x="492" y="653" type="curve" smooth="yes"/>
      <point x="546" y="644"/>
      <point x="594" y="673"/>
      <point x="631" y="733" type="curve" smooth="yes"/>
      <point x="658" y="777"/>
      <point x="670" y="823"/>
      <point x="670" y="825" type="curve"/>
      <point x="672" y="831"/>
      <point x="668" y="836"/>
      <point x="663" y="837" type="curve"/>
      <point x="658" y="839"/>
      <point x="652" y="836"/>
      <point x="651" y="830" type="curve"/>
      <point x="651" y="830"/>
      <point x="639" y="785"/>
      <point x="614" y="744" type="curve" smooth="yes"/>
      <point x="581" y="690"/>
      <point x="541" y="666"/>
      <point x="495" y="673" type="curve" smooth="yes"/>
      <point x="431" y="683"/>
      <point x="421" y="728"/>
      <point x="445" y="777" type="curve"/>
      <point x="513" y="903"/>
      <point x="659" y="968"/>
      <point x="783" y="956" type="curve" smooth="yes"/>
      <point x="856" y="948"/>
      <point x="908" y="910"/>
      <point x="925" y="851" type="curve" smooth="yes"/>
      <point x="948" y="768"/>
      <point x="898" y="664"/>
      <point x="796" y="588" type="curve" smooth="yes"/>
      <point x="749" y="553"/>
      <point x="683" y="512"/>
      <point x="605" y="463" type="curve" smooth="yes"/>
      <point x="415" y="343"/>
      <point x="178" y="192"/>
      <point x="61" y="36" type="curve" smooth="yes"/>
      <point x="55" y="28"/>
      <point x="37" y="5"/>
      <point x="47" y="-12" type="curve" smooth="yes"/>
      <point x="57" y="-28"/>
      <point x="84" y="-24"/>
      <point x="104" y="-19" type="curve"/>
      <point x="123" y="-15"/>
      <point x="146" y="-7"/>
      <point x="171" y="1" type="curve" smooth="yes"/>
      <point x="229" y="21"/>
      <point x="301" y="45"/>
      <point x="356" y="41" type="curve" smooth="yes"/>
      <point x="426" y="37"/>
      <point x="479" y="12"/>
      <point x="525" y="-10" type="curve" smooth="yes"/>
      <point x="558" y="-26"/>
      <point x="587" y="-39"/>
      <point x="614" y="-41" type="curve"/>
    </contour>
  </outline>
</glyph>
<glyph name="three" format="1">
  <advance width="833"/>
  <unicode hex="0033"/>
  <outline>
    <contour>
      <point x="259" y="-87" type="line"/>
      <point x="265" y="-87"/>
      <point x="272" y="-87"/>
      <point x="278" y="-86" type="curve"/>
      <point x="329" y="-84"/>
      <point x="380" y="-73"/>
      <point x="429" y="-53" type="curve" smooth="yes"/>
      <point x="483" y="-32"/>
      <point x="533" y="-3"/>
      <point x="577" y="35" type="curve" smooth="yes"/>
      <point x="626" y="77"/>
      <point x="667" y="127"/>
      <point x="700" y="185" type="curve" smooth="yes"/>
      <point x="732" y="239"/>
      <point x="750" y="294"/>
      <point x="755" y="347" type="curve" smooth="yes"/>
      <point x="760" y="389"/>
      <point x="755" y="431"/>
      <point x="743" y="471" type="curve" smooth="yes"/>
      <point x="733" y="502"/>
      <point x="719" y="527"/>
      <point x="707" y="545" type="curve"/>
      <point x="718" y="548"/>
      <point x="731" y="551"/>
      <point x="745" y="557" type="curve"/>
      <point x="783" y="571"/>
      <point x="837" y="602"/>
      <point x="884" y="665" type="curve" smooth="yes"/>
      <point x="927" y="724"/>
      <point x="937" y="803"/>
      <point x="909" y="866" type="curve" smooth="yes"/>
      <point x="898" y="891"/>
      <point x="881" y="912"/>
      <point x="860" y="928" type="curve" smooth="yes"/>
      <point x="837" y="945"/>
      <point x="809" y="955"/>
      <point x="778" y="958" type="curve" smooth="yes"/>
      <point x="732" y="963"/>
      <point x="690" y="957"/>
      <point x="652" y="942" type="curve"/>
      <point x="623" y="929"/>
      <point x="597" y="911"/>
      <point x="578" y="889" type="curve"/>
      <point x="574" y="885"/>
      <point x="575" y="879"/>
      <point x="579" y="875" type="curve"/>
      <point x="583" y="872"/>
      <point x="590" y="872"/>
      <point x="593" y="876" type="curve"/>
      <point x="608" y="894"/>
      <point x="666" y="950"/>
      <point x="776" y="939" type="curve" smooth="yes"/>
      <point x="829" y="933"/>
      <point x="870" y="904"/>
      <point x="891" y="858" type="curve" smooth="yes"/>
      <point x="916" y="801"/>
      <point x="907" y="731"/>
      <point x="868" y="677" type="curve" smooth="yes"/>
      <point x="824" y="618"/>
      <point x="774" y="589"/>
      <point x="739" y="576" type="curve" smooth="yes"/>
      <point x="721" y="569"/>
      <point x="706" y="565"/>
      <point x="694" y="563" type="curve"/>
      <point x="689" y="570"/>
      <point x="684" y="575"/>
      <point x="682" y="577" type="curve"/>
      <point x="679" y="582"/>
      <point x="668" y="600"/>
      <point x="646" y="618" type="curve" smooth="yes"/>
      <point x="614" y="645"/>
      <point x="576" y="658"/>
      <point x="535" y="655" type="curve" smooth="yes"/>
      <point x="495" y="652"/>
      <point x="486" y="630"/>
      <point x="484" y="620" type="curve" smooth="yes"/>
      <point x="480" y="599"/>
      <point x="495" y="576"/>
      <point x="521" y="562" type="curve" smooth="yes"/>
      <point x="580" y="531"/>
      <point x="666" y="540"/>
      <point x="674" y="541" type="curve"/>
      <point x="675" y="541"/>
      <point x="679" y="541"/>
      <point x="685" y="541" type="curve"/>
      <point x="697" y="525"/>
      <point x="713" y="499"/>
      <point x="724" y="465" type="curve" smooth="yes"/>
      <point x="742" y="406"/>
      <point x="750" y="312"/>
      <point x="683" y="195" type="curve" smooth="yes"/>
      <point x="605" y="59"/>
      <point x="498" y="-5"/>
      <point x="422" y="-35" type="curve" smooth="yes"/>
      <point x="328" y="-72"/>
      <point x="228" y="-77"/>
      <point x="150" y="-49" type="curve" smooth="yes"/>
      <point x="106" y="-34"/>
      <point x="76" y="-8"/>
      <point x="60" y="27" type="curve" smooth="yes"/>
      <point x="31" y="90"/>
      <point x="55" y="162"/>
      <point x="63" y="182" type="curve" smooth="yes"/>
      <point x="87" y="242"/>
      <point x="139" y="273"/>
      <point x="140" y="273" type="curve"/>
      <point x="140" y="273" type="line" smooth="yes"/>
      <point x="140" y="273"/>
      <point x="172" y="291"/>
      <point x="202" y="282" type="curve" smooth="yes"/>
      <point x="218" y="277"/>
      <point x="230" y="264"/>
      <point x="239" y="243" type="curve" smooth="yes"/>
      <point x="247" y="224"/>
      <point x="248" y="207"/>
      <point x="241" y="190" type="curve" smooth="yes"/>
      <point x="227" y="156"/>
      <point x="183" y="138"/>
      <point x="183" y="138" type="curve"/>
      <point x="178" y="136"/>
      <point x="175" y="130"/>
      <point x="177" y="125" type="curve"/>
      <point x="180" y="120"/>
      <point x="185" y="117"/>
      <point x="190" y="119" type="curve"/>
      <point x="193" y="120"/>
      <point x="242" y="140"/>
      <point x="259" y="183" type="curve" smooth="yes"/>
      <point x="268" y="204"/>
      <point x="267" y="227"/>
      <point x="257" y="251" type="curve" smooth="yes"/>
      <point x="246" y="277"/>
      <point x="229" y="294"/>
      <point x="208" y="301" type="curve" smooth="yes"/>
      <point x="170" y="313"/>
      <point x="132" y="292"/>
      <point x="130" y="290" type="curve"/>
      <point x="127" y="288"/>
      <point x="71" y="256"/>
      <point x="45" y="190" type="curve" smooth="yes"/>
      <point x="37" y="171"/>
      <point x="28" y="143"/>
      <point x="26" y="108" type="curve" smooth="yes"/>
      <point x="25" y="75"/>
      <point x="30" y="45"/>
      <point x="42" y="19" type="curve" smooth="yes"/>
      <point x="60" y="-22"/>
      <point x="94" y="-51"/>
      <point x="143" y="-68" type="curve" smooth="yes"/>
      <point x="178" y="-81"/>
      <point x="217" y="-87"/>
      <point x="259" y="-87" type="curve"/>
    </contour>
    <contour>
      <point x="548" y="635" type="line"/>
      <point x="579" y="635"/>
      <point x="608" y="625"/>
      <point x="633" y="603" type="curve"/>
      <point x="655" y="585"/>
      <point x="665" y="566"/>
      <point x="666" y="566" type="curve"/>
      <point x="666" y="564" type="line"/>
      <point x="667" y="563" type="line"/>
      <point x="667" y="563"/>
      <point x="668" y="562"/>
      <point x="670" y="560" type="curve"/>
      <point x="657" y="559"/>
      <point x="581" y="553"/>
      <point x="530" y="580" type="curve" smooth="yes"/>
      <point x="512" y="589"/>
      <point x="501" y="604"/>
      <point x="504" y="616" type="curve"/>
      <point x="506" y="627"/>
      <point x="518" y="633"/>
      <point x="537" y="635" type="curve"/>
      <point x="540" y="635"/>
      <point x="544" y="635"/>
      <point x="548" y="635" type="curve"/>
    </contour>
  </outline>
</glyph>
<glyph name="four" format="1">
  <advance width="822"/>
  <unicode hex="0034"/>
  <outline>
    <contour>
      <point x="299" y="-25" type="line"/>
      <point x="302" y="-25"/>
      <point x="305" y="-24"/>
      <point x="307" y="-21" type="curve"/>
      <point x="627" y="387" type="line"/>
      <point x="635" y="385"/>
      <point x="644" y="383"/>
      <point x="652" y="381" type="curve" smooth="yes"/>
      <point x="731" y="359"/>
      <point x="783" y="326"/>
      <point x="807" y="281" type="curve"/>
      <point x="809" y="276"/>
      <point x="815" y="274"/>
      <point x="820" y="277" type="curve" smooth="yes"/>
      <point x="825" y="280"/>
      <point x="827" y="286"/>
      <point x="824" y="291" type="curve"/>
      <point x="798" y="340"/>
      <point x="742" y="377"/>
      <point x="657" y="400" type="curve"/>
      <point x="652" y="402"/>
      <point x="646" y="403"/>
      <point x="640" y="405" type="curve"/>
      <point x="1067" y="950" type="line"/>
      <point x="1053" y="964" type="line"/>
      <point x="1052" y="963"/>
      <point x="911" y="850"/>
      <point x="722" y="726" type="curve" smooth="yes"/>
      <point x="548" y="611"/>
      <point x="296" y="463"/>
      <point x="84" y="408" type="curve"/>
      <point x="88" y="388" type="line"/>
      <point x="89" y="388"/>
      <point x="244" y="412"/>
      <point x="409" y="409" type="curve" smooth="yes"/>
      <point x="484" y="408"/>
      <point x="549" y="403"/>
      <point x="605" y="392" type="curve"/>
      <point x="291" y="-9" type="line" smooth="yes"/>
      <point x="288" y="-13"/>
      <point x="289" y="-19"/>
      <point x="293" y="-23" type="curve"/>
      <point x="295" y="-24"/>
      <point x="297" y="-25"/>
      <point x="299" y="-25" type="curve"/>
    </contour>
    <contour>
      <point x="387" y="430" type="line" smooth="yes"/>
      <point x="314" y="430"/>
      <point x="244" y="425"/>
      <point x="190" y="420" type="curve"/>
      <point x="260" y="445"/>
      <point x="336" y="479"/>
      <point x="417" y="522" type="curve" smooth="yes"/>
      <point x="515" y="573"/>
      <point x="622" y="636"/>
      <point x="733" y="709" type="curve" smooth="yes"/>
      <point x="847" y="784"/>
      <point x="943" y="854"/>
      <point x="1002" y="899" type="curve"/>
      <point x="619" y="409" type="line"/>
      <point x="560" y="422"/>
      <point x="490" y="428"/>
      <point x="409" y="429" type="curve"/>
      <point x="402" y="430"/>
      <point x="394" y="430"/>
      <point x="387" y="430" type="curve" smooth="yes"/>
    </contour>
  </outline>
</glyph>
<glyph name="five" format="1">
  <advance width="857"/>
  <unicode hex="0035"/>
  <outline>
    <contour>
      <point x="264" y="-54" type="line"/>
      <point x="287" y="-54"/>
      <point x="310" y="-51"/>
      <point x="334" y="-45" type="curve" smooth="yes"/>
      <point x="397" y="-30"/>
      <point x="462" y="8"/>
      <point x="522" y="64" type="curve" smooth="yes"/>
      <point x="578" y="117"/>
      <point x="622" y="180"/>
      <point x="650" y="223" type="curve" smooth="yes"/>
      <point x="679" y="270"/>
      <point x="695" y="304"/>
      <point x="697" y="306" type="curve"/>
      <point x="698" y="309"/>
      <point x="717" y="347"/>
      <point x="730" y="399" type="curve" smooth="yes"/>
      <point x="738" y="431"/>
      <point x="742" y="460"/>
      <point x="742" y="488" type="curve" smooth="yes"/>
      <point x="742" y="522"/>
      <point x="736" y="553"/>
      <point x="724" y="579" type="curve" smooth="yes"/>
      <point x="700" y="629"/>
      <point x="655" y="662"/>
      <point x="589" y="677" type="curve" smooth="yes"/>
      <point x="560" y="684"/>
      <point x="526" y="682"/>
      <point x="488" y="672" type="curve" smooth="yes"/>
      <point x="459" y="664"/>
      <point x="428" y="651"/>
      <point x="395" y="633" type="curve" smooth="yes"/>
      <point x="381" y="625"/>
      <point x="368" y="617"/>
      <point x="357" y="610" type="curve"/>
      <point x="549" y="858" type="line"/>
      <point x="550" y="859" type="line"/>
      <point x="550" y="859" type="line"/>
      <point x="550" y="860"/>
      <point x="564" y="887"/>
      <point x="612" y="871" type="curve" smooth="yes"/>
      <point x="652" y="858"/>
      <point x="696" y="851"/>
      <point x="744" y="850" type="curve" smooth="yes"/>
      <point x="782" y="849"/>
      <point x="823" y="853"/>
      <point x="865" y="859" type="curve" smooth="yes"/>
      <point x="936" y="871"/>
      <point x="986" y="889"/>
      <point x="988" y="890" type="curve"/>
      <point x="993" y="892"/>
      <point x="996" y="898"/>
      <point x="994" y="903" type="curve" smooth="yes"/>
      <point x="992" y="908"/>
      <point x="986" y="911"/>
      <point x="981" y="909" type="curve"/>
      <point x="981" y="909"/>
      <point x="931" y="890"/>
      <point x="861" y="879" type="curve" smooth="yes"/>
      <point x="797" y="869"/>
      <point x="704" y="862"/>
      <point x="619" y="890" type="curve" smooth="yes"/>
      <point x="586" y="901"/>
      <point x="564" y="895"/>
      <point x="552" y="888" type="curve" smooth="yes"/>
      <point x="540" y="881"/>
      <point x="535" y="872"/>
      <point x="533" y="869" type="curve"/>
      <point x="297" y="565" type="line"/>
      <point x="312" y="552" type="line"/>
      <point x="313" y="553"/>
      <point x="467" y="685"/>
      <point x="585" y="657" type="curve" smooth="yes"/>
      <point x="644" y="644"/>
      <point x="685" y="614"/>
      <point x="705" y="570" type="curve" smooth="yes"/>
      <point x="730" y="517"/>
      <point x="722" y="451"/>
      <point x="711" y="405" type="curve" smooth="yes"/>
      <point x="698" y="354"/>
      <point x="679" y="315"/>
      <point x="679" y="315" type="curve" smooth="yes"/>
      <point x="679" y="315" type="line"/>
      <point x="678" y="313"/>
      <point x="612" y="177"/>
      <point x="508" y="79" type="curve" smooth="yes"/>
      <point x="456" y="30"/>
      <point x="369" y="-34"/>
      <point x="264" y="-34" type="curve" smooth="yes"/>
      <point x="219" y="-34"/>
      <point x="170" y="-22"/>
      <point x="120" y="8" type="curve"/>
      <point x="120" y="9"/>
      <point x="76" y="36"/>
      <point x="68" y="91" type="curve" smooth="yes"/>
      <point x="61" y="146"/>
      <point x="92" y="209"/>
      <point x="159" y="278" type="curve" smooth="yes"/>
      <point x="163" y="282"/>
      <point x="163" y="288"/>
      <point x="159" y="292" type="curve" smooth="yes"/>
      <point x="155" y="296"/>
      <point x="149" y="296"/>
      <point x="145" y="292" type="curve" smooth="yes"/>
      <point x="73" y="218"/>
      <point x="41" y="150"/>
      <point x="49" y="89" type="curve" smooth="yes"/>
      <point x="57" y="24"/>
      <point x="108" y="-8"/>
      <point x="110" y="-9" type="curve"/>
      <point x="159" y="-39"/>
      <point x="211" y="-54"/>
      <point x="264" y="-54" type="curve"/>
    </contour>
  </outline>
</glyph>
<glyph name="six" format="1">
  <advance width="697"/>
  <unicode hex="0036"/>
  <outline>
    <contour>
      <point x="251" y="-69" type="line"/>
      <point x="444" y="-69"/>
      <point x="563" y="109"/>
      <point x="617" y="216" type="curve" smooth="yes"/>
      <point x="645" y="270"/>
      <point x="663" y="325"/>
      <point x="668" y="374" type="curve" smooth="yes"/>
      <point x="673" y="424"/>
      <point x="665" y="467"/>
      <point x="646" y="500" type="curve" smooth="yes"/>
      <point x="621" y="544"/>
      <point x="577" y="568"/>
      <point x="518" y="572" type="curve" smooth="yes"/>
      <point x="474" y="574"/>
      <point x="432" y="567"/>
      <point x="392" y="550" type="curve" smooth="yes"/>
      <point x="361" y="537"/>
      <point x="330" y="518"/>
      <point x="302" y="494" type="curve" smooth="yes"/>
      <point x="255" y="453"/>
      <point x="230" y="412"/>
      <point x="229" y="410" type="curve"/>
      <point x="227" y="405"/>
      <point x="228" y="399"/>
      <point x="233" y="396" type="curve" smooth="yes"/>
      <point x="238" y="393"/>
      <point x="244" y="395"/>
      <point x="247" y="400" type="curve"/>
      <point x="247" y="400"/>
      <point x="271" y="441"/>
      <point x="316" y="480" type="curve" smooth="yes"/>
      <point x="376" y="531"/>
      <point x="443" y="555"/>
      <point x="517" y="552" type="curve" smooth="yes"/>
      <point x="568" y="549"/>
      <point x="607" y="528"/>
      <point x="629" y="490" type="curve" smooth="yes"/>
      <point x="664" y="430"/>
      <point x="653" y="330"/>
      <point x="600" y="225" type="curve" smooth="yes"/>
      <point x="547" y="120"/>
      <point x="430" y="-54"/>
      <point x="244" y="-49" type="curve" smooth="yes"/>
      <point x="178" y="-48"/>
      <point x="133" y="-25"/>
      <point x="110" y="20" type="curve" smooth="yes"/>
      <point x="82" y="72"/>
      <point x="84" y="155"/>
      <point x="115" y="258" type="curve" smooth="yes"/>
      <point x="141" y="345"/>
      <point x="186" y="442"/>
      <point x="239" y="525" type="curve" smooth="yes"/>
      <point x="330" y="665"/>
      <point x="420" y="770"/>
      <point x="509" y="837" type="curve" smooth="yes"/>
      <point x="543" y="864"/>
      <point x="577" y="883"/>
      <point x="608" y="896" type="curve" smooth="yes"/>
      <point x="633" y="906"/>
      <point x="657" y="911"/>
      <point x="676" y="911" type="curve" smooth="yes"/>
      <point x="677" y="911"/>
      <point x="677" y="911"/>
      <point x="677" y="911" type="curve"/>
      <point x="718" y="911"/>
      <point x="745" y="900"/>
      <point x="758" y="877" type="curve" smooth="yes"/>
      <point x="789" y="824"/>
      <point x="735" y="723"/>
      <point x="735" y="722" type="curve"/>
      <point x="735" y="722" type="line"/>
      <point x="732" y="717"/>
      <point x="734" y="711"/>
      <point x="739" y="708" type="curve" smooth="yes"/>
      <point x="744" y="705"/>
      <point x="750" y="707"/>
      <point x="752" y="712" type="curve"/>
      <point x="755" y="717"/>
      <point x="812" y="824"/>
      <point x="775" y="887" type="curve" smooth="yes"/>
      <point x="758" y="916"/>
      <point x="725" y="931"/>
      <point x="678" y="931" type="curve" smooth="yes"/>
      <point x="649" y="932"/>
      <point x="587" y="922"/>
      <point x="496" y="853" type="curve" smooth="yes"/>
      <point x="407" y="785"/>
      <point x="314" y="678"/>
      <point x="223" y="535" type="curve" smooth="yes"/>
      <point x="168" y="451"/>
      <point x="122" y="352"/>
      <point x="96" y="264" type="curve" smooth="yes"/>
      <point x="73" y="188"/>
      <point x="54" y="83"/>
      <point x="92" y="10" type="curve" smooth="yes"/>
      <point x="119" y="-41"/>
      <point x="170" y="-68"/>
      <point x="244" y="-69" type="curve" smooth="yes"/>
      <point x="246" y="-69"/>
      <point x="249" y="-69"/>
      <point x="251" y="-69" type="curve"/>
    </contour>
  </outline>
</glyph>
<glyph name="seven" format="1">
  <advance width="467"/>
  <unicode hex="0037"/>
  <outline>
    <contour>
      <point x="42" y="-108" type="line"/>
      <point x="45" y="-108"/>
      <point x="48" y="-107"/>
      <point x="50" y="-105" type="curve"/>
      <point x="52" y="-102"/>
      <point x="248" y="126"/>
      <point x="435" y="360" type="curve" smooth="yes"/>
      <point x="545" y="498"/>
      <point x="630" y="611"/>
      <point x="689" y="696" type="curve" smooth="yes"/>
      <point x="790" y="841"/>
      <point x="792" y="876"/>
      <point x="782" y="891" type="curve" smooth="yes"/>
      <point x="775" y="901"/>
      <point x="762" y="903"/>
      <point x="743" y="896" type="curve" smooth="yes"/>
      <point x="639" y="858"/>
      <point x="503" y="860"/>
      <point x="408" y="869" type="curve" smooth="yes"/>
      <point x="304" y="878"/>
      <point x="223" y="896"/>
      <point x="222" y="896" type="curve"/>
      <point x="217" y="897"/>
      <point x="211" y="894"/>
      <point x="210" y="889" type="curve" smooth="yes"/>
      <point x="209" y="883"/>
      <point x="212" y="878"/>
      <point x="218" y="877" type="curve"/>
      <point x="218" y="877"/>
      <point x="300" y="858"/>
      <point x="406" y="849" type="curve" smooth="yes"/>
      <point x="468" y="843"/>
      <point x="526" y="842"/>
      <point x="579" y="845" type="curve" smooth="yes"/>
      <point x="645" y="849"/>
      <point x="702" y="860"/>
      <point x="750" y="877" type="curve" smooth="yes"/>
      <point x="761" y="881"/>
      <point x="765" y="880"/>
      <point x="766" y="880" type="curve"/>
      <point x="766" y="879"/>
      <point x="770" y="869"/>
      <point x="748" y="827" type="curve" smooth="yes"/>
      <point x="732" y="797"/>
      <point x="707" y="757"/>
      <point x="673" y="707" type="curve" smooth="yes"/>
      <point x="614" y="623"/>
      <point x="529" y="510"/>
      <point x="419" y="373" type="curve" smooth="yes"/>
      <point x="232" y="139"/>
      <point x="37" y="-89"/>
      <point x="35" y="-91" type="curve"/>
      <point x="31" y="-96"/>
      <point x="32" y="-102"/>
      <point x="36" y="-106" type="curve"/>
      <point x="38" y="-107"/>
      <point x="40" y="-108"/>
      <point x="42" y="-108" type="curve"/>
    </contour>
  </outline>
</glyph>
<glyph name="eight" format="1">
  <advance width="1000"/>
  <unicode hex="0038"/>
  <outline>
    <contour>
      <point x="225" y="-123" type="line"/>
      <point x="286" y="-123"/>
      <point x="359" y="-102"/>
      <point x="424" y="-66" type="curve" smooth="yes"/>
      <point x="494" y="-28"/>
      <point x="552" y="25"/>
      <point x="585" y="84" type="curve" smooth="yes"/>
      <point x="638" y="174"/>
      <point x="658" y="257"/>
      <point x="648" y="339" type="curve" smooth="yes"/>
      <point x="640" y="406"/>
      <point x="613" y="463"/>
      <point x="586" y="517" type="curve"/>
      <point x="681" y="552"/>
      <point x="773" y="593"/>
      <point x="817" y="654" type="curve" smooth="yes"/>
      <point x="847" y="696"/>
      <point x="865" y="741"/>
      <point x="871" y="789" type="curve" smooth="yes"/>
      <point x="872" y="799"/>
      <point x="873" y="809"/>
      <point x="873" y="820" type="curve"/>
      <point x="899" y="782"/>
      <point x="913" y="731"/>
      <point x="903" y="663" type="curve"/>
      <point x="903" y="657"/>
      <point x="906" y="652"/>
      <point x="912" y="651" type="curve" smooth="yes"/>
      <point x="917" y="650"/>
      <point x="922" y="654"/>
      <point x="923" y="660" type="curve" smooth="yes"/>
      <point x="932" y="721"/>
      <point x="923" y="777"/>
      <point x="896" y="821" type="curve" smooth="yes"/>
      <point x="889" y="833"/>
      <point x="881" y="843"/>
      <point x="872" y="853" type="curve"/>
      <point x="870" y="871"/>
      <point x="866" y="890"/>
      <point x="861" y="909" type="curve" smooth="yes"/>
      <point x="842" y="978"/>
      <point x="808" y="1025"/>
      <point x="807" y="1027" type="curve"/>
      <point x="803" y="1031"/>
      <point x="797" y="1032"/>
      <point x="793" y="1029" type="curve" smooth="yes"/>
      <point x="788" y="1025"/>
      <point x="787" y="1019"/>
      <point x="791" y="1015" type="curve"/>
      <point x="791" y="1014"/>
      <point x="824" y="969"/>
      <point x="842" y="904" type="curve" smooth="yes"/>
      <point x="845" y="894"/>
      <point x="847" y="884"/>
      <point x="849" y="874" type="curve"/>
      <point x="831" y="887"/>
      <point x="811" y="897"/>
      <point x="789" y="905" type="curve"/>
      <point x="742" y="920"/>
      <point x="691" y="918"/>
      <point x="645" y="901" type="curve" smooth="yes"/>
      <point x="595" y="882"/>
      <point x="555" y="846"/>
      <point x="530" y="797" type="curve" smooth="yes"/>
      <point x="477" y="695"/>
      <point x="515" y="614"/>
      <point x="558" y="528" type="curve"/>
      <point x="543" y="523"/>
      <point x="526" y="518"/>
      <point x="506" y="512" type="curve" smooth="yes"/>
      <point x="457" y="498"/>
      <point x="396" y="480"/>
      <point x="325" y="447" type="curve" smooth="yes"/>
      <point x="270" y="422"/>
      <point x="219" y="390"/>
      <point x="176" y="352" type="curve" smooth="yes"/>
      <point x="141" y="322"/>
      <point x="110" y="288"/>
      <point x="84" y="251" type="curve" smooth="yes"/>
      <point x="41" y="191"/>
      <point x="26" y="143"/>
      <point x="24" y="138" type="curve"/>
      <point x="23" y="134"/>
      <point x="13" y="109"/>
      <point x="9" y="75" type="curve" smooth="yes"/>
      <point x="3" y="26"/>
      <point x="12" y="-16"/>
      <point x="33" y="-48" type="curve" smooth="yes"/>
      <point x="67" y="-98"/>
      <point x="131" y="-123"/>
      <point x="225" y="-123" type="curve"/>
    </contour>
    <contour>
      <point x="567" y="510" type="line"/>
      <point x="621" y="403"/>
      <point x="677" y="281"/>
      <point x="568" y="94" type="curve" smooth="yes"/>
      <point x="498" y="-28"/>
      <point x="335" y="-103"/>
      <point x="225" y="-103" type="curve" smooth="yes"/>
      <point x="139" y="-103"/>
      <point x="80" y="-81"/>
      <point x="50" y="-37" type="curve" smooth="yes"/>
      <point x="4" y="31"/>
      <point x="43" y="130"/>
      <point x="43" y="131" type="curve"/>
      <point x="43" y="131" type="line"/>
      <point x="43" y="132" type="line"/>
      <point x="43" y="132"/>
      <point x="57" y="179"/>
      <point x="100" y="239" type="curve" smooth="yes"/>
      <point x="139" y="295"/>
      <point x="212" y="373"/>
      <point x="334" y="429" type="curve" smooth="yes"/>
      <point x="403" y="461"/>
      <point x="464" y="479"/>
      <point x="512" y="493" type="curve" smooth="yes"/>
      <point x="533" y="499"/>
      <point x="551" y="504"/>
      <point x="567" y="510" type="curve"/>
    </contour>
    <contour>
      <point x="723" y="895" type="line"/>
      <point x="744" y="895"/>
      <point x="764" y="891"/>
      <point x="783" y="885" type="curve" smooth="yes"/>
      <point x="807" y="878"/>
      <point x="832" y="864"/>
      <point x="852" y="844" type="curve"/>
      <point x="857" y="779"/>
      <point x="840" y="720"/>
      <point x="801" y="666" type="curve" smooth="yes"/>
      <point x="759" y="608"/>
      <point x="669" y="569"/>
      <point x="577" y="535" type="curve"/>
      <point x="534" y="620"/>
      <point x="499" y="694"/>
      <point x="547" y="788" type="curve" smooth="yes"/>
      <point x="586" y="862"/>
      <point x="657" y="895"/>
      <point x="723" y="895" type="curve"/>
    </contour>
  </outline>
</glyph>
<glyph name="nine" format="1">
  <advance width="553"/>
  <unicode hex="0039"/>
  <outline>
    <contour>
      <point x="133" y="-60" type="line"/>
      <point x="136" y="-60"/>
      <point x="139" y="-59"/>
      <point x="141" y="-56" type="curve"/>
      <point x="830" y="884" type="line"/>
      <point x="814" y="896" type="line"/>
      <point x="814" y="895"/>
      <point x="737" y="800"/>
      <point x="636" y="703" type="curve" smooth="yes"/>
      <point x="503" y="575"/>
      <point x="388" y="500"/>
      <point x="304" y="488" type="curve" smooth="yes"/>
      <point x="219" y="475"/>
      <point x="149" y="509"/>
      <point x="124" y="575" type="curve" smooth="yes"/>
      <point x="109" y="615"/>
      <point x="113" y="662"/>
      <point x="136" y="709" type="curve" smooth="yes"/>
      <point x="162" y="764"/>
      <point x="212" y="816"/>
      <point x="281" y="859" type="curve" smooth="yes"/>
      <point x="393" y="931"/>
      <point x="511" y="940"/>
      <point x="591" y="935" type="curve" smooth="yes"/>
      <point x="677" y="930"/>
      <point x="738" y="907"/>
      <point x="738" y="907" type="curve" smooth="yes"/>
      <point x="738" y="907" type="line"/>
      <point x="743" y="905"/>
      <point x="749" y="908"/>
      <point x="751" y="913" type="curve" smooth="yes"/>
      <point x="753" y="918"/>
      <point x="751" y="924"/>
      <point x="745" y="926" type="curve"/>
      <point x="743" y="927"/>
      <point x="682" y="949"/>
      <point x="592" y="955" type="curve" smooth="yes"/>
      <point x="540" y="958"/>
      <point x="489" y="955"/>
      <point x="440" y="945" type="curve" smooth="yes"/>
      <point x="379" y="932"/>
      <point x="322" y="909"/>
      <point x="270" y="876" type="curve" smooth="yes"/>
      <point x="199" y="830"/>
      <point x="146" y="776"/>
      <point x="118" y="718" type="curve" smooth="yes"/>
      <point x="93" y="666"/>
      <point x="88" y="613"/>
      <point x="105" y="568" type="curve" smooth="yes"/>
      <point x="119" y="532"/>
      <point x="144" y="503"/>
      <point x="179" y="485" type="curve" smooth="yes"/>
      <point x="215" y="467"/>
      <point x="259" y="461"/>
      <point x="307" y="468" type="curve" smooth="yes"/>
      <point x="356" y="475"/>
      <point x="415" y="502"/>
      <point x="481" y="547" type="curve" smooth="yes"/>
      <point x="533" y="583"/>
      <point x="590" y="631"/>
      <point x="650" y="688" type="curve" smooth="yes"/>
      <point x="666" y="703"/>
      <point x="681" y="719"/>
      <point x="695" y="733" type="curve"/>
      <point x="125" y="-44" type="line"/>
      <point x="122" y="-49"/>
      <point x="123" y="-55"/>
      <point x="127" y="-58" type="curve"/>
      <point x="129" y="-59"/>
      <point x="131" y="-60"/>
      <point x="133" y="-60" type="curve"/>
    </contour>
  </outline>
</glyph>
<glyph name="colon" format="1">
  <advance width="324"/>
  <unicode hex="003A"/>
  <outline>
    <contour>
      <point x="231" y="135"/>
      <point x="205" y="160"/>
      <point x="174" y="160" type="curve" smooth="yes"/>
      <point x="143" y="160"/>
      <point x="118" y="135"/>
      <point x="118" y="103" type="curve" smooth="yes"/>
      <point x="118" y="72"/>
      <point x="143" y="47"/>
      <point x="174" y="47" type="curve" smooth="yes"/>
      <point x="205" y="47"/>
      <point x="231" y="72"/>
      <point x="231" y="103" type="curve" smooth="yes"/>
    </contour>
    <contour>
      <point x="296" y="408"/>
      <point x="270" y="433"/>
      <point x="239" y="433" type="curve" smooth="yes"/>
      <point x="208" y="433"/>
      <point x="183" y="408"/>
      <point x="183" y="376" type="curve" smooth="yes"/>
      <point x="183" y="345"/>
      <point x="208" y="320"/>
      <point x="239" y="320" type="curve" smooth="yes"/>
      <point x="270" y="320"/>
      <point x="296" y="345"/>
      <point x="296" y="376" type="curve" smooth="yes"/>
    </contour>
  </outline>
</glyph>
<glyph name="semicolon" format="1">
  <advance width="332"/>
  <unicode hex="003B"/>
  <outline>
    <contour>
      <point x="296" y="408"/>
      <point x="270" y="433"/>
      <point x="239" y="433" type="curve" smooth="yes"/>
      <point x="208" y="433"/>
      <point x="183" y="408"/>
      <point x="183" y="376" type="curve" smooth="yes"/>
      <point x="183" y="345"/>
      <point x="208" y="320"/>
      <point x="239" y="320" type="curve" smooth="yes"/>
      <point x="270" y="320"/>
      <point x="296" y="345"/>
      <point x="296" y="376" type="curve" smooth="yes"/>
    </contour>
    <contour>
      <point x="182" y="84"/>
      <point x="157" y="109"/>
      <point x="125" y="109" type="curve" smooth="yes"/>
      <point x="94" y="109"/>
      <point x="69" y="84"/>
      <point x="69" y="52" type="curve" smooth="yes"/>
      <point x="69" y="21"/>
      <point x="94" y="-4"/>
      <point x="125" y="-4" type="curve" smooth="yes"/>
      <point x="128" y="-4"/>
      <point x="131" y="-4"/>
      <point x="134" y="-3" type="curve"/>
      <point x="120" y="-16"/>
      <point x="99" y="-28"/>
      <point x="69" y="-36" type="curve"/>
      <point x="64" y="-38"/>
      <point x="61" y="-42"/>
      <point x="63" y="-47" type="curve"/>
      <point x="64" y="-51"/>
      <point x="67" y="-53"/>
      <point x="71" y="-53" type="curve"/>
      <point x="71" y="-53"/>
      <point x="72" y="-53"/>
      <point x="73" y="-53" type="curve"/>
      <point x="143" y="-34"/>
      <point x="168" y="5"/>
      <point x="177" y="29" type="curve"/>
      <point x="180" y="36"/>
      <point x="182" y="44"/>
      <point x="182" y="52" type="curve" smooth="yes"/>
    </contour>
  </outline>
</glyph>
<glyph name="less" format="1">
  <advance width="833"/>
  <unicode hex="003C"/>
  <outline>
    <contour>
      <point x="380" y="85"/>
      <point x="380" y="85"/>
      <point x="380" y="85" type="curve"/>
      <point x="385" y="85"/>
      <point x="389" y="90"/>
      <point x="389" y="95" type="curve"/>
      <point x="386" y="134"/>
      <point x="369" y="174"/>
      <point x="338" y="215" type="curve" smooth="yes"/>
      <point x="314" y="248"/>
      <point x="282" y="281"/>
      <point x="241" y="313" type="curve" smooth="yes"/>
      <point x="203" y="343"/>
      <point x="165" y="368"/>
      <point x="139" y="384" type="curve"/>
      <point x="202" y="382"/>
      <point x="267" y="391"/>
      <point x="334" y="411" type="curve" smooth="yes"/>
      <point x="398" y="431"/>
      <point x="463" y="461"/>
      <point x="527" y="500" type="curve" smooth="yes"/>
      <point x="636" y="566"/>
      <point x="706" y="638"/>
      <point x="707" y="638" type="curve"/>
      <point x="710" y="642"/>
      <point x="710" y="648"/>
      <point x="707" y="651" type="curve" smooth="yes"/>
      <point x="703" y="655"/>
      <point x="698" y="654"/>
      <point x="694" y="651" type="curve"/>
      <point x="693" y="650"/>
      <point x="625" y="580"/>
      <point x="517" y="515" type="curve" smooth="yes"/>
      <point x="419" y="455"/>
      <point x="266" y="387"/>
      <point x="102" y="404" type="curve"/>
      <point x="97" y="404"/>
      <point x="93" y="402"/>
      <point x="92" y="398" type="curve" smooth="yes"/>
      <point x="91" y="394"/>
      <point x="93" y="389"/>
      <point x="97" y="387" type="curve"/>
      <point x="97" y="387"/>
      <point x="163" y="352"/>
      <point x="230" y="299" type="curve" smooth="yes"/>
      <point x="291" y="250"/>
      <point x="365" y="175"/>
      <point x="371" y="93" type="curve"/>
      <point x="371" y="89"/>
      <point x="375" y="85"/>
      <point x="380" y="85" type="curve"/>
    </contour>
  </outline>
</glyph>
<glyph name="equal" format="1">
  <advance width="833"/>
  <unicode hex="003D"/>
  <outline>
    <contour>
      <point x="774" y="443" type="line" smooth="yes"/>
      <point x="779" y="443"/>
      <point x="783" y="447"/>
      <point x="783" y="452" type="curve" smooth="yes"/>
      <point x="783" y="457"/>
      <point x="779" y="461"/>
      <point x="774" y="461" type="curve" smooth="yes"/>
      <point x="169" y="461" type="line" smooth="yes"/>
      <point x="164" y="461"/>
      <point x="160" y="457"/>
      <point x="160" y="452" type="curve" smooth="yes"/>
      <point x="160" y="447"/>
      <point x="164" y="443"/>
      <point x="169" y="443" type="curve" smooth="yes"/>
    </contour>
    <contour>
      <point x="651" y="234" type="line" smooth="yes"/>
      <point x="656" y="234"/>
      <point x="660" y="238"/>
      <point x="660" y="243" type="curve" smooth="yes"/>
      <point x="660" y="248"/>
      <point x="656" y="252"/>
      <point x="651" y="252" type="curve" smooth="yes"/>
      <point x="46" y="252" type="line" smooth="yes"/>
      <point x="41" y="252"/>
      <point x="37" y="248"/>
      <point x="37" y="243" type="curve" smooth="yes"/>
      <point x="37" y="238"/>
      <point x="41" y="234"/>
      <point x="46" y="234" type="curve" smooth="yes"/>
    </contour>
  </outline>
</glyph>
<glyph name="greater" format="1">
  <advance width="833"/>
  <unicode hex="003E"/>
  <outline>
    <contour>
      <point x="87" y="117"/>
      <point x="90" y="118"/>
      <point x="91" y="120" type="curve"/>
      <point x="92" y="120"/>
      <point x="161" y="190"/>
      <point x="268" y="256" type="curve" smooth="yes"/>
      <point x="367" y="316"/>
      <point x="519" y="384"/>
      <point x="684" y="367" type="curve"/>
      <point x="688" y="366"/>
      <point x="692" y="369"/>
      <point x="694" y="373" type="curve"/>
      <point x="695" y="377"/>
      <point x="693" y="382"/>
      <point x="689" y="384" type="curve"/>
      <point x="688" y="384"/>
      <point x="622" y="418"/>
      <point x="556" y="472" type="curve" smooth="yes"/>
      <point x="495" y="521"/>
      <point x="421" y="596"/>
      <point x="415" y="677" type="curve"/>
      <point x="415" y="682"/>
      <point x="410" y="686"/>
      <point x="405" y="686" type="curve"/>
      <point x="400" y="685"/>
      <point x="397" y="681"/>
      <point x="397" y="676" type="curve"/>
      <point x="400" y="637"/>
      <point x="417" y="596"/>
      <point x="447" y="555" type="curve" smooth="yes"/>
      <point x="471" y="523"/>
      <point x="504" y="490"/>
      <point x="544" y="458" type="curve" smooth="yes"/>
      <point x="582" y="427"/>
      <point x="620" y="403"/>
      <point x="646" y="387" type="curve"/>
      <point x="583" y="389"/>
      <point x="518" y="380"/>
      <point x="452" y="359" type="curve" smooth="yes"/>
      <point x="388" y="340"/>
      <point x="323" y="310"/>
      <point x="259" y="271" type="curve" smooth="yes"/>
      <point x="150" y="205"/>
      <point x="79" y="133"/>
      <point x="79" y="132" type="curve"/>
      <point x="75" y="129"/>
      <point x="75" y="123"/>
      <point x="79" y="120" type="curve"/>
      <point x="80" y="118"/>
      <point x="83" y="117"/>
      <point x="85" y="117" type="curve" smooth="yes"/>
    </contour>
  </outline>
</glyph>
<glyph name="question" format="1">
  <advance width="836"/>
  <unicode hex="003F"/>
  <outline>
    <contour>
      <point x="191" y="173"/>
      <point x="194" y="175"/>
      <point x="196" y="178" type="curve" smooth="yes"/>
      <point x="330" y="393" type="line"/>
      <point x="653" y="348"/>
      <point x="967" y="790"/>
      <point x="694" y="872" type="curve" smooth="yes"/>
      <point x="516" y="925"/>
      <point x="339" y="796"/>
      <point x="283" y="628" type="curve"/>
      <point x="282" y="623"/>
      <point x="284" y="618"/>
      <point x="289" y="617" type="curve"/>
      <point x="294" y="615"/>
      <point x="298" y="618"/>
      <point x="300" y="623" type="curve"/>
      <point x="364" y="813"/>
      <point x="553" y="899"/>
      <point x="691" y="854" type="curve" smooth="yes"/>
      <point x="932" y="776"/>
      <point x="636" y="367"/>
      <point x="325" y="411" type="curve"/>
      <point x="320" y="411" type="line"/>
      <point x="180" y="187" type="line"/>
      <point x="178" y="183"/>
      <point x="179" y="177"/>
      <point x="183" y="175" type="curve" smooth="yes"/>
      <point x="185" y="174"/>
      <point x="186" y="173"/>
      <point x="188" y="173" type="curve" smooth="yes"/>
    </contour>
    <contour>
      <point x="172" y="78"/>
      <point x="146" y="103"/>
      <point x="115" y="103" type="curve" smooth="yes"/>
      <point x="84" y="103"/>
      <point x="59" y="78"/>
      <point x="59" y="46" type="curve" smooth="yes"/>
      <point x="59" y="15"/>
      <point x="84" y="-10"/>
      <point x="115" y="-10" type="curve" smooth="yes"/>
      <point x="146" y="-10"/>
      <point x="172" y="15"/>
      <point x="172" y="46" type="curve" smooth="yes"/>
    </contour>
  </outline>
</glyph>
<glyph name="at" format="1">
  <advance width="1143"/>
  <unicode hex="0040"/>
  <outline>
    <contour>
      <point x="-73" y="147"/>
      <point x="147" y="-75"/>
      <point x="459" y="-48" type="curve" smooth="yes"/>
      <point x="608" y="-34"/>
      <point x="771" y="22"/>
      <point x="878" y="125" type="curve" smooth="yes"/>
      <point x="881" y="128"/>
      <point x="881" y="134"/>
      <point x="877" y="137" type="curve"/>
      <point x="874" y="141"/>
      <point x="868" y="140"/>
      <point x="864" y="137" type="curve"/>
      <point x="763" y="51"/>
      <point x="654" y="-8"/>
      <point x="458" y="-29" type="curve" smooth="yes"/>
      <point x="194" y="-58"/>
      <point x="-59" y="131"/>
      <point x="136" y="414" type="curve" smooth="yes"/>
      <point x="278" y="624"/>
      <point x="642" y="814"/>
      <point x="908" y="728" type="curve" smooth="yes"/>
      <point x="1051" y="681"/>
      <point x="1149" y="585"/>
      <point x="1066" y="431" type="curve" smooth="yes"/>
      <point x="1016" y="337"/>
      <point x="823" y="144"/>
      <point x="698" y="177" type="curve" smooth="yes"/>
      <point x="670" y="184"/>
      <point x="668" y="198"/>
      <point x="668" y="203" type="curve"/>
      <point x="665" y="221"/>
      <point x="682" y="267"/>
      <point x="816" y="367" type="curve" smooth="yes"/>
      <point x="895" y="425"/>
      <point x="975" y="474"/>
      <point x="976" y="474" type="curve"/>
      <point x="980" y="477"/>
      <point x="982" y="482"/>
      <point x="979" y="486" type="curve"/>
      <point x="977" y="491"/>
      <point x="971" y="492"/>
      <point x="967" y="489" type="curve"/>
      <point x="966" y="489"/>
      <point x="885" y="440"/>
      <point x="806" y="382" type="curve" smooth="yes"/>
      <point x="802" y="379" type="line"/>
      <point x="862" y="443"/>
      <point x="887" y="497"/>
      <point x="878" y="541" type="curve"/>
      <point x="862" y="601"/>
      <point x="794" y="619"/>
      <point x="736" y="619" type="curve" smooth="yes"/>
      <point x="612" y="619"/>
      <point x="493" y="549"/>
      <point x="397" y="468" type="curve" smooth="yes"/>
      <point x="307" y="391"/>
      <point x="265" y="320"/>
      <point x="272" y="257" type="curve" smooth="yes"/>
      <point x="279" y="187"/>
      <point x="343" y="139"/>
      <point x="415" y="139" type="curve" smooth="yes"/>
      <point x="515" y="139"/>
      <point x="608" y="213"/>
      <point x="685" y="275" type="curve"/>
      <point x="658" y="245"/>
      <point x="647" y="221"/>
      <point x="650" y="201" type="curve"/>
      <point x="652" y="181"/>
      <point x="667" y="167"/>
      <point x="693" y="159" type="curve"/>
      <point x="827" y="126"/>
      <point x="1022" y="311"/>
      <point x="1081" y="422" type="curve" smooth="yes"/>
      <point x="1166" y="580"/>
      <point x="1078" y="690"/>
      <point x="913" y="745" type="curve" smooth="yes"/>
      <point x="645" y="830"/>
      <point x="283" y="656"/>
      <point x="121" y="424" type="curve" smooth="yes"/>
    </contour>
    <contour>
      <point x="358" y="157"/>
      <point x="297" y="193"/>
      <point x="290" y="259" type="curve" smooth="yes"/>
      <point x="281" y="335"/>
      <point x="353" y="407"/>
      <point x="409" y="454" type="curve" smooth="yes"/>
      <point x="519" y="548"/>
      <point x="638" y="601"/>
      <point x="736" y="601" type="curve" smooth="yes"/>
      <point x="781" y="601"/>
      <point x="844" y="591"/>
      <point x="860" y="537" type="curve"/>
      <point x="869" y="501"/>
      <point x="850" y="436"/>
      <point x="716" y="324" type="curve" smooth="yes"/>
      <point x="626" y="249"/>
      <point x="515" y="157"/>
      <point x="415" y="157" type="curve" smooth="yes"/>
    </contour>
  </outline>
</glyph>
<glyph name="B" format="1">
  <advance width="995"/>
  <unicode hex="0042"/>
  <outline>
    <contour>
      <point x="1056" y="992"/>
      <point x="992" y="1016"/>
      <point x="940" y="1018" type="curve" smooth="yes"/>
      <point x="873" y="1021"/>
      <point x="805" y="1008"/>
      <point x="747" y="977" type="curve" smooth="yes"/>
      <point x="716" y="960"/>
      <point x="687" y="939"/>
      <point x="660" y="914" type="curve"/>
      <point x="654" y="915"/>
      <point x="642" y="915"/>
      <point x="634" y="915" type="curve" smooth="yes"/>
      <point x="502" y="915"/>
      <point x="403" y="868"/>
      <point x="337" y="822" type="curve" smooth="yes"/>
      <point x="271" y="775"/>
      <point x="238" y="728"/>
      <point x="237" y="728" type="curve"/>
      <point x="234" y="724"/>
      <point x="235" y="718"/>
      <point x="239" y="715" type="curve" smooth="yes"/>
      <point x="243" y="712"/>
      <point x="249" y="713"/>
      <point x="252" y="717" type="curve" smooth="yes"/>
      <point x="276" y="749"/>
      <point x="316" y="785"/>
      <point x="350" y="809" type="curve" smooth="yes"/>
      <point x="414" y="853"/>
      <point x="509" y="897"/>
      <point x="634" y="897" type="curve" smooth="yes"/>
      <point x="636" y="897"/>
      <point x="639" y="897"/>
      <point x="641" y="897" type="curve"/>
      <point x="607" y="864"/>
      <point x="575" y="825"/>
      <point x="544" y="782" type="curve" smooth="yes"/>
      <point x="481" y="696"/>
      <point x="420" y="593"/>
      <point x="354" y="481" type="curve" smooth="yes"/>
      <point x="276" y="351"/>
      <point x="215" y="227"/>
      <point x="154" y="134" type="curve" smooth="yes"/>
      <point x="123" y="87"/>
      <point x="92" y="49"/>
      <point x="58" y="20" type="curve" smooth="yes"/>
      <point x="25" y="-8"/>
      <point x="-10" y="-26"/>
      <point x="-49" y="-30" type="curve"/>
      <point x="-81" y="-35"/>
      <point x="-114" y="-30"/>
      <point x="-139" y="-8" type="curve" smooth="yes"/>
      <point x="-156" y="6"/>
      <point x="-166" y="24"/>
      <point x="-170" y="43" type="curve" smooth="yes"/>
      <point x="-171" y="48"/>
      <point x="-176" y="51"/>
      <point x="-181" y="50" type="curve" smooth="yes"/>
      <point x="-186" y="49"/>
      <point x="-189" y="44"/>
      <point x="-188" y="39" type="curve"/>
      <point x="-182" y="17"/>
      <point x="-171" y="-5"/>
      <point x="-151" y="-22" type="curve" smooth="yes"/>
      <point x="-122" y="-48"/>
      <point x="-82" y="-53"/>
      <point x="-47" y="-48" type="curve" smooth="yes"/>
      <point x="-3" y="-43"/>
      <point x="35" y="-23"/>
      <point x="70" y="7" type="curve" smooth="yes"/>
      <point x="123" y="51"/>
      <point x="168" y="119"/>
      <point x="216" y="200" type="curve" smooth="yes"/>
      <point x="263" y="281"/>
      <point x="312" y="375"/>
      <point x="369" y="472" type="curve" smooth="yes"/>
      <point x="458" y="621"/>
      <point x="536" y="754"/>
      <point x="621" y="849" type="curve" smooth="yes"/>
      <point x="636" y="866"/>
      <point x="651" y="882"/>
      <point x="666" y="896" type="curve"/>
      <point x="683" y="895"/>
      <point x="700" y="893"/>
      <point x="718" y="890" type="curve" smooth="yes"/>
      <point x="820" y="875"/>
      <point x="877" y="840"/>
      <point x="909" y="801" type="curve" smooth="yes"/>
      <point x="941" y="762"/>
      <point x="949" y="718"/>
      <point x="949" y="685" type="curve" smooth="yes"/>
      <point x="949" y="664"/>
      <point x="947" y="651"/>
      <point x="943" y="635" type="curve"/>
      <point x="942" y="633"/>
      <point x="934" y="597"/>
      <point x="902" y="562" type="curve" smooth="yes"/>
      <point x="879" y="537"/>
      <point x="843" y="512"/>
      <point x="787" y="500" type="curve"/>
      <point x="746" y="532"/>
      <point x="707" y="553"/>
      <point x="676" y="564" type="curve" smooth="yes"/>
      <point x="661" y="569"/>
      <point x="641" y="573"/>
      <point x="623" y="573" type="curve" smooth="yes"/>
      <point x="598" y="573"/>
      <point x="569" y="558"/>
      <point x="569" y="530" type="curve" smooth="yes"/>
      <point x="569" y="497"/>
      <point x="619" y="485"/>
      <point x="644" y="481" type="curve" smooth="yes"/>
      <point x="691" y="473"/>
      <point x="739" y="474"/>
      <point x="783" y="481" type="curve"/>
      <point x="786" y="477"/>
      <point x="790" y="474"/>
      <point x="794" y="471" type="curve"/>
      <point x="817" y="450"/>
      <point x="842" y="425"/>
      <point x="857" y="393" type="curve" smooth="yes"/>
      <point x="890" y="324"/>
      <point x="892" y="240"/>
      <point x="851" y="158" type="curve" smooth="yes"/>
      <point x="795" y="48"/>
      <point x="695" y="-10"/>
      <point x="584" y="-10" type="curve" smooth="yes"/>
      <point x="514" y="-10"/>
      <point x="429" y="7"/>
      <point x="381" y="55" type="curve"/>
      <point x="334" y="107"/>
      <point x="325" y="161"/>
      <point x="325" y="197" type="curve" smooth="yes"/>
      <point x="325" y="210"/>
      <point x="326" y="220"/>
      <point x="328" y="230" type="curve"/>
      <point x="329" y="234"/>
      <point x="329" y="240"/>
      <point x="322" y="242" type="curve"/>
      <point x="316" y="244"/>
      <point x="312" y="240"/>
      <point x="311" y="235" type="curve"/>
      <point x="311" y="234"/>
      <point x="307" y="220"/>
      <point x="307" y="197" type="curve" smooth="yes"/>
      <point x="307" y="34"/>
      <point x="442" y="-28"/>
      <point x="584" y="-28" type="curve" smooth="yes"/>
      <point x="710" y="-28"/>
      <point x="813" y="43"/>
      <point x="867" y="150" type="curve" smooth="yes"/>
      <point x="911" y="238"/>
      <point x="910" y="332"/>
      <point x="871" y="405" type="curve" smooth="yes"/>
      <point x="854" y="437"/>
      <point x="829" y="464"/>
      <point x="804" y="485" type="curve"/>
      <point x="818" y="489"/>
      <point x="831" y="494"/>
      <point x="842" y="499" type="curve" smooth="yes"/>
      <point x="892" y="520"/>
      <point x="921" y="553"/>
      <point x="938" y="581" type="curve" smooth="yes"/>
      <point x="954" y="606"/>
      <point x="959" y="627"/>
      <point x="960" y="630" type="curve" smooth="yes"/>
      <point x="961" y="633"/>
      <point x="967" y="659"/>
      <point x="967" y="685" type="curve" smooth="yes"/>
      <point x="967" y="721"/>
      <point x="959" y="769"/>
      <point x="923" y="812" type="curve" smooth="yes"/>
      <point x="888" y="855"/>
      <point x="826" y="892"/>
      <point x="721" y="908" type="curve" smooth="yes"/>
      <point x="709" y="910"/>
      <point x="697" y="911"/>
      <point x="685" y="912" type="curve"/>
      <point x="708" y="931"/>
      <point x="731" y="948"/>
      <point x="755" y="961" type="curve" smooth="yes"/>
      <point x="813" y="993"/>
      <point x="874" y="1001"/>
      <point x="938" y="1000" type="curve" smooth="yes"/>
      <point x="986" y="999"/>
      <point x="1044" y="974"/>
      <point x="1062" y="936" type="curve" smooth="yes"/>
      <point x="1064" y="932"/>
      <point x="1070" y="930"/>
      <point x="1074" y="932" type="curve"/>
      <point x="1079" y="934"/>
      <point x="1080" y="940"/>
      <point x="1078" y="944" type="curve" smooth="yes"/>
    </contour>
    <contour>
      <point x="662" y="494"/>
      <point x="645" y="498"/>
      <point x="623" y="504" type="curve" smooth="yes"/>
      <point x="610" y="508"/>
      <point x="587" y="515"/>
      <point x="587" y="530" type="curve" smooth="yes"/>
      <point x="587" y="546"/>
      <point x="607" y="557"/>
      <point x="624" y="557" type="curve" smooth="yes"/>
      <point x="639" y="557"/>
      <point x="657" y="553"/>
      <point x="672" y="548" type="curve" smooth="yes"/>
      <point x="701" y="538"/>
      <point x="723" y="523"/>
      <point x="763" y="496" type="curve"/>
      <point x="749" y="494"/>
      <point x="733" y="493"/>
      <point x="716" y="493" type="curve" smooth="yes"/>
    </contour>
  </outline>
</glyph>
<glyph name="D" format="1">
  <advance width="1008"/>
  <unicode hex="0044"/>
  <outline>
    <contour>
      <point x="1132" y="948"/>
      <point x="1047" y="968"/>
      <point x="975" y="968" type="curve" smooth="yes"/>
      <point x="907" y="968"/>
      <point x="847" y="952"/>
      <point x="791" y="925" type="curve" smooth="yes"/>
      <point x="764" y="912"/>
      <point x="737" y="895"/>
      <point x="712" y="877" type="curve"/>
      <point x="587" y="926"/>
      <point x="424" y="939"/>
      <point x="342" y="817" type="curve" smooth="yes"/>
      <point x="269" y="710"/>
      <point x="354" y="614"/>
      <point x="467" y="596" type="curve"/>
      <point x="440" y="554"/>
      <point x="412" y="511"/>
      <point x="385" y="468" type="curve" smooth="yes"/>
      <point x="304" y="340"/>
      <point x="244" y="216"/>
      <point x="185" y="122" type="curve" smooth="yes"/>
      <point x="155" y="75"/>
      <point x="125" y="36"/>
      <point x="93" y="7" type="curve" smooth="yes"/>
      <point x="60" y="-22"/>
      <point x="26" y="-39"/>
      <point x="-13" y="-44" type="curve" smooth="yes"/>
      <point x="-46" y="-49"/>
      <point x="-78" y="-43"/>
      <point x="-104" y="-22" type="curve"/>
      <point x="-120" y="-8"/>
      <point x="-130" y="11"/>
      <point x="-134" y="30" type="curve"/>
      <point x="-135" y="34"/>
      <point x="-140" y="37"/>
      <point x="-145" y="36" type="curve" smooth="yes"/>
      <point x="-150" y="35"/>
      <point x="-153" y="30"/>
      <point x="-152" y="25" type="curve"/>
      <point x="-146" y="3"/>
      <point x="-135" y="-19"/>
      <point x="-115" y="-36" type="curve" smooth="yes"/>
      <point x="-86" y="-62"/>
      <point x="-46" y="-67"/>
      <point x="-11" y="-62" type="curve" smooth="yes"/>
      <point x="33" y="-57"/>
      <point x="71" y="-37"/>
      <point x="105" y="-6" type="curve" smooth="yes"/>
      <point x="156" y="39"/>
      <point x="199" y="108"/>
      <point x="245" y="189" type="curve" smooth="yes"/>
      <point x="292" y="270"/>
      <point x="340" y="363"/>
      <point x="400" y="459" type="curve" smooth="yes"/>
      <point x="429" y="504"/>
      <point x="458" y="550"/>
      <point x="487" y="593" type="curve"/>
      <point x="562" y="587"/>
      <point x="633" y="611"/>
      <point x="693" y="654" type="curve" smooth="yes"/>
      <point x="736" y="685"/>
      <point x="762" y="715"/>
      <point x="762" y="716" type="curve"/>
      <point x="765" y="719"/>
      <point x="764" y="725"/>
      <point x="761" y="728" type="curve"/>
      <point x="757" y="731"/>
      <point x="751" y="731"/>
      <point x="748" y="727" type="curve"/>
      <point x="727" y="704"/>
      <point x="704" y="683"/>
      <point x="679" y="666" type="curve" smooth="yes"/>
      <point x="623" y="626"/>
      <point x="563" y="610"/>
      <point x="499" y="610" type="curve"/>
      <point x="547" y="681"/>
      <point x="597" y="746"/>
      <point x="651" y="800" type="curve" smooth="yes"/>
      <point x="672" y="820"/>
      <point x="693" y="839"/>
      <point x="715" y="856" type="curve"/>
      <point x="787" y="825"/>
      <point x="837" y="782"/>
      <point x="871" y="731" type="curve" smooth="yes"/>
      <point x="913" y="667"/>
      <point x="930" y="590"/>
      <point x="930" y="513" type="curve" smooth="yes"/>
      <point x="930" y="443"/>
      <point x="916" y="372"/>
      <point x="897" y="311" type="curve" smooth="yes"/>
      <point x="861" y="194"/>
      <point x="792" y="84"/>
      <point x="685" y="28" type="curve" smooth="yes"/>
      <point x="635" y="2"/>
      <point x="586" y="-8"/>
      <point x="543" y="-8" type="curve" smooth="yes"/>
      <point x="468" y="-8"/>
      <point x="399" y="23"/>
      <point x="366" y="90" type="curve" smooth="yes"/>
      <point x="345" y="134"/>
      <point x="349" y="208"/>
      <point x="401" y="238" type="curve" smooth="yes"/>
      <point x="417" y="247"/>
      <point x="436" y="253"/>
      <point x="463" y="253" type="curve" smooth="yes"/>
      <point x="493" y="253"/>
      <point x="531" y="246"/>
      <point x="580" y="226" type="curve" smooth="yes"/>
      <point x="585" y="224"/>
      <point x="590" y="227"/>
      <point x="592" y="231" type="curve"/>
      <point x="594" y="236"/>
      <point x="591" y="241"/>
      <point x="587" y="243" type="curve"/>
      <point x="536" y="263"/>
      <point x="496" y="271"/>
      <point x="463" y="271" type="curve" smooth="yes"/>
      <point x="433" y="271"/>
      <point x="408" y="263"/>
      <point x="389" y="252" type="curve" smooth="yes"/>
      <point x="318" y="210"/>
      <point x="333" y="115"/>
      <point x="350" y="82" type="curve" smooth="yes"/>
      <point x="386" y="6"/>
      <point x="465" y="-26"/>
      <point x="543" y="-26" type="curve" smooth="yes"/>
      <point x="588" y="-26"/>
      <point x="640" y="-16"/>
      <point x="693" y="12" type="curve" smooth="yes"/>
      <point x="809" y="73"/>
      <point x="876" y="188"/>
      <point x="914" y="305" type="curve" smooth="yes"/>
      <point x="934" y="368"/>
      <point x="948" y="440"/>
      <point x="948" y="513" type="curve" smooth="yes"/>
      <point x="948" y="593"/>
      <point x="931" y="673"/>
      <point x="886" y="741" type="curve" smooth="yes"/>
      <point x="852" y="792"/>
      <point x="802" y="837"/>
      <point x="732" y="868" type="curve"/>
      <point x="753" y="884"/>
      <point x="776" y="897"/>
      <point x="799" y="909" type="curve" smooth="yes"/>
      <point x="852" y="935"/>
      <point x="910" y="950"/>
      <point x="975" y="950" type="curve" smooth="yes"/>
      <point x="1047" y="950"/>
      <point x="1119" y="930"/>
      <point x="1148" y="866" type="curve"/>
      <point x="1150" y="861"/>
      <point x="1155" y="859"/>
      <point x="1160" y="861" type="curve"/>
      <point x="1164" y="863"/>
      <point x="1166" y="868"/>
      <point x="1164" y="873" type="curve" smooth="yes"/>
    </contour>
    <contour>
      <point x="539" y="699"/>
      <point x="508" y="657"/>
      <point x="479" y="613" type="curve"/>
      <point x="349" y="636"/>
      <point x="286" y="736"/>
      <point x="378" y="833" type="curve" smooth="yes"/>
      <point x="458" y="918"/>
      <point x="594" y="901"/>
      <point x="696" y="864" type="curve"/>
      <point x="651" y="828"/>
      <point x="610" y="785"/>
      <point x="571" y="737" type="curve" smooth="yes"/>
    </contour>
  </outline>
</glyph>
<glyph name="F" format="1">
  <advance width="833"/>
  <unicode hex="0046"/>
  <outline>
    <contour>
      <point x="1327" y="944"/>
      <point x="1270" y="948"/>
      <point x="1226" y="948" type="curve" smooth="yes"/>
      <point x="1155" y="948"/>
      <point x="1087" y="929"/>
      <point x="1023" y="897" type="curve" smooth="yes"/>
      <point x="974" y="872"/>
      <point x="927" y="839"/>
      <point x="882" y="800" type="curve"/>
      <point x="815" y="817"/>
      <point x="737" y="841"/>
      <point x="645" y="875" type="curve" smooth="yes"/>
      <point x="592" y="894"/>
      <point x="542" y="902"/>
      <point x="498" y="902" type="curve" smooth="yes"/>
      <point x="400" y="902"/>
      <point x="303" y="863"/>
      <point x="238" y="798" type="curve" smooth="yes"/>
      <point x="235" y="795"/>
      <point x="235" y="789"/>
      <point x="239" y="786" type="curve"/>
      <point x="242" y="782"/>
      <point x="248" y="783"/>
      <point x="252" y="786" type="curve"/>
      <point x="314" y="848"/>
      <point x="413" y="884"/>
      <point x="498" y="884" type="curve" smooth="yes"/>
      <point x="540" y="884"/>
      <point x="587" y="877"/>
      <point x="639" y="858" type="curve" smooth="yes"/>
      <point x="726" y="826"/>
      <point x="801" y="803"/>
      <point x="865" y="786" type="curve"/>
      <point x="828" y="753"/>
      <point x="792" y="716"/>
      <point x="757" y="678" type="curve" smooth="yes"/>
      <point x="698" y="612"/>
      <point x="642" y="541"/>
      <point x="588" y="470" type="curve"/>
      <point x="576" y="472"/>
      <point x="565" y="475"/>
      <point x="553" y="479" type="curve"/>
      <point x="526" y="486"/>
      <point x="500" y="496"/>
      <point x="474" y="501" type="curve" smooth="yes"/>
      <point x="455" y="505"/>
      <point x="428" y="510"/>
      <point x="400" y="510" type="curve" smooth="yes"/>
      <point x="355" y="510"/>
      <point x="307" y="497"/>
      <point x="301" y="450" type="curve" smooth="yes"/>
      <point x="293" y="389"/>
      <point x="388" y="380"/>
      <point x="427" y="380" type="curve" smooth="yes"/>
      <point x="462" y="380"/>
      <point x="506" y="388"/>
      <point x="533" y="397" type="curve"/>
      <point x="525" y="386" type="line" smooth="yes"/>
      <point x="473" y="319"/>
      <point x="359" y="157"/>
      <point x="292" y="87" type="curve" smooth="yes"/>
      <point x="259" y="51"/>
      <point x="225" y="23"/>
      <point x="196" y="6" type="curve" smooth="yes"/>
      <point x="155" y="-18"/>
      <point x="117" y="-25"/>
      <point x="80" y="-20" type="curve"/>
      <point x="25" y="-15"/>
      <point x="-11" y="18"/>
      <point x="-11" y="75" type="curve" smooth="yes"/>
      <point x="-11" y="87"/>
      <point x="-9" y="100"/>
      <point x="-6" y="114" type="curve" smooth="yes"/>
      <point x="-5" y="119"/>
      <point x="-8" y="124"/>
      <point x="-13" y="125" type="curve" smooth="yes"/>
      <point x="-18" y="126"/>
      <point x="-22" y="123"/>
      <point x="-24" y="118" type="curve"/>
      <point x="-27" y="103"/>
      <point x="-29" y="88"/>
      <point x="-29" y="75" type="curve" smooth="yes"/>
      <point x="-29" y="44"/>
      <point x="-20" y="18"/>
      <point x="-2" y="-2" type="curve" smooth="yes"/>
      <point x="17" y="-22"/>
      <point x="44" y="-34"/>
      <point x="78" y="-38" type="curve" smooth="yes"/>
      <point x="123" y="-44"/>
      <point x="166" y="-32"/>
      <point x="205" y="-10" type="curve" smooth="yes"/>
      <point x="255" y="20"/>
      <point x="303" y="69"/>
      <point x="357" y="134" type="curve" smooth="yes"/>
      <point x="411" y="199"/>
      <point x="470" y="281"/>
      <point x="540" y="375" type="curve" smooth="yes"/>
      <point x="547" y="385"/>
      <point x="555" y="395"/>
      <point x="562" y="406" type="curve"/>
      <point x="575" y="422"/>
      <point x="587" y="439"/>
      <point x="596" y="450" type="curve"/>
      <point x="610" y="448"/>
      <point x="625" y="447"/>
      <point x="640" y="447" type="curve" smooth="yes"/>
      <point x="676" y="447"/>
      <point x="716" y="455"/>
      <point x="758" y="478" type="curve"/>
      <point x="763" y="480"/>
      <point x="764" y="485"/>
      <point x="762" y="490" type="curve"/>
      <point x="760" y="494"/>
      <point x="754" y="496"/>
      <point x="750" y="493" type="curve"/>
      <point x="710" y="472"/>
      <point x="674" y="465"/>
      <point x="640" y="465" type="curve" smooth="yes"/>
      <point x="629" y="465"/>
      <point x="619" y="465"/>
      <point x="608" y="467" type="curve"/>
      <point x="685" y="568"/>
      <point x="766" y="669"/>
      <point x="853" y="751" type="curve" smooth="yes"/>
      <point x="864" y="761"/>
      <point x="875" y="771"/>
      <point x="887" y="781" type="curve"/>
      <point x="1036" y="743"/>
      <point x="1105" y="743"/>
      <point x="1184" y="743" type="curve"/>
      <point x="1263" y="747"/>
      <point x="1309" y="769"/>
      <point x="1336" y="791" type="curve"/>
      <point x="1388" y="837"/>
      <point x="1383" y="889"/>
      <point x="1357" y="913" type="curve"/>
    </contour>
    <contour>
      <point x="534" y="413"/>
      <point x="467" y="398"/>
      <point x="427" y="398" type="curve"/>
      <point x="399" y="397"/>
      <point x="315" y="404"/>
      <point x="319" y="446" type="curve" smooth="yes"/>
      <point x="323" y="485"/>
      <point x="371" y="492"/>
      <point x="400" y="492" type="curve" smooth="yes"/>
      <point x="426" y="492"/>
      <point x="452" y="487"/>
      <point x="470" y="483" type="curve" smooth="yes"/>
      <point x="494" y="478"/>
      <point x="520" y="469"/>
      <point x="548" y="461" type="curve"/>
      <point x="557" y="459"/>
      <point x="567" y="456"/>
      <point x="576" y="454" type="curve"/>
      <point x="568" y="443"/>
      <point x="560" y="432"/>
      <point x="551" y="421" type="curve"/>
    </contour>
    <contour>
      <point x="1289" y="780"/>
      <point x="1249" y="764"/>
      <point x="1183" y="761" type="curve"/>
      <point x="1108" y="761"/>
      <point x="1045" y="761"/>
      <point x="904" y="795" type="curve"/>
      <point x="945" y="829"/>
      <point x="988" y="858"/>
      <point x="1032" y="881" type="curve" smooth="yes"/>
      <point x="1094" y="912"/>
      <point x="1158" y="930"/>
      <point x="1226" y="930" type="curve" smooth="yes"/>
      <point x="1265" y="929"/>
      <point x="1317" y="927"/>
      <point x="1344" y="899" type="curve" smooth="yes"/>
      <point x="1377" y="866"/>
      <point x="1342" y="813"/>
      <point x="1313" y="797" type="curve"/>
    </contour>
  </outline>
</glyph>
<glyph name="G" format="1">
  <advance width="1008"/>
  <unicode hex="0047"/>
  <outline>
    <contour>
      <point x="480" y="-460"/>
      <point x="554" y="-414"/>
      <point x="613" y="-350" type="curve" smooth="yes"/>
      <point x="667" y="-290"/>
      <point x="708" y="-216"/>
      <point x="742" y="-151" type="curve" smooth="yes"/>
      <point x="755" y="-127"/>
      <point x="766" y="-103"/>
      <point x="777" y="-80" type="curve"/>
      <point x="841" y="-74"/>
      <point x="914" y="-71"/>
      <point x="997" y="-74" type="curve"/>
      <point x="1003" y="-74"/>
      <point x="1008" y="-70"/>
      <point x="1008" y="-64" type="curve" smooth="yes"/>
      <point x="1008" y="-59"/>
      <point x="1004" y="-54"/>
      <point x="998" y="-54" type="curve"/>
      <point x="925" y="-51"/>
      <point x="854" y="-53"/>
      <point x="787" y="-59" type="curve"/>
      <point x="824" y="24"/>
      <point x="850" y="102"/>
      <point x="873" y="173" type="curve" smooth="yes"/>
      <point x="883" y="202"/>
      <point x="893" y="231"/>
      <point x="902" y="258" type="curve"/>
      <point x="884" y="265" type="line"/>
      <point x="828" y="132"/>
      <point x="743" y="60"/>
      <point x="682" y="24" type="curve" smooth="yes"/>
      <point x="627" y="-8"/>
      <point x="564" y="-30"/>
      <point x="495" y="-30" type="curve" smooth="yes"/>
      <point x="494" y="-30"/>
      <point x="494" y="-30"/>
      <point x="493" y="-30" type="curve" smooth="yes"/>
      <point x="458" y="-30"/>
      <point x="408" y="-24"/>
      <point x="367" y="4" type="curve" smooth="yes"/>
      <point x="324" y="34"/>
      <point x="297" y="81"/>
      <point x="288" y="146" type="curve" smooth="yes"/>
      <point x="279" y="215"/>
      <point x="296" y="294"/>
      <point x="340" y="382" type="curve" smooth="yes"/>
      <point x="379" y="462"/>
      <point x="440" y="546"/>
      <point x="516" y="627" type="curve" smooth="yes"/>
      <point x="574" y="689"/>
      <point x="638" y="746"/>
      <point x="703" y="794" type="curve"/>
      <point x="793" y="686"/>
      <point x="975" y="643"/>
      <point x="1101" y="727" type="curve"/>
      <point x="1163" y="765"/>
      <point x="1231" y="857"/>
      <point x="1185" y="936" type="curve" smooth="yes"/>
      <point x="1149" y="998"/>
      <point x="1053" y="983"/>
      <point x="991" y="967" type="curve" smooth="yes"/>
      <point x="917" y="948"/>
      <point x="832" y="907"/>
      <point x="745" y="849" type="curve" smooth="yes"/>
      <point x="732" y="840"/>
      <point x="720" y="831"/>
      <point x="707" y="822" type="curve"/>
      <point x="689" y="846"/>
      <point x="664" y="888"/>
      <point x="664" y="929" type="curve"/>
      <point x="663" y="935"/>
      <point x="658" y="939"/>
      <point x="653" y="938" type="curve" smooth="yes"/>
      <point x="647" y="937"/>
      <point x="643" y="932"/>
      <point x="644" y="927" type="curve"/>
      <point x="644" y="891"/>
      <point x="668" y="840"/>
      <point x="691" y="811" type="curve"/>
      <point x="624" y="761"/>
      <point x="560" y="703"/>
      <point x="502" y="641" type="curve" smooth="yes"/>
      <point x="424" y="559"/>
      <point x="362" y="472"/>
      <point x="322" y="391" type="curve" smooth="yes"/>
      <point x="276" y="299"/>
      <point x="258" y="216"/>
      <point x="268" y="144" type="curve" smooth="yes"/>
      <point x="278" y="73"/>
      <point x="308" y="20"/>
      <point x="356" y="-12" type="curve" smooth="yes"/>
      <point x="392" y="-37"/>
      <point x="440" y="-50"/>
      <point x="494" y="-50" type="curve"/>
      <point x="494" y="-50"/>
      <point x="494" y="-50"/>
      <point x="495" y="-50" type="curve" smooth="yes"/>
      <point x="562" y="-50"/>
      <point x="628" y="-30"/>
      <point x="691" y="6" type="curve" smooth="yes"/>
      <point x="751" y="41"/>
      <point x="802" y="90"/>
      <point x="845" y="151" type="curve"/>
      <point x="823" y="86"/>
      <point x="798" y="15"/>
      <point x="764" y="-61" type="curve"/>
      <point x="750" y="-63"/>
      <point x="737" y="-64"/>
      <point x="725" y="-66" type="curve" smooth="yes"/>
      <point x="657" y="-75"/>
      <point x="593" y="-90"/>
      <point x="535" y="-109" type="curve" smooth="yes"/>
      <point x="398" y="-154"/>
      <point x="272" y="-237"/>
      <point x="276" y="-361" type="curve" smooth="yes"/>
      <point x="278" y="-428"/>
      <point x="331" y="-458"/>
      <point x="394" y="-460" type="curve" smooth="yes"/>
    </contour>
    <contour>
      <point x="745" y="-102"/>
      <point x="735" y="-122"/>
      <point x="724" y="-142" type="curve" smooth="yes"/>
      <point x="669" y="-246"/>
      <point x="567" y="-440"/>
      <point x="394" y="-440" type="curve" smooth="yes"/>
      <point x="311" y="-440"/>
      <point x="282" y="-388"/>
      <point x="303" y="-310" type="curve"/>
      <point x="325" y="-242"/>
      <point x="400" y="-193"/>
      <point x="401" y="-193" type="curve"/>
      <point x="402" y="-192"/>
      <point x="446" y="-159"/>
      <point x="542" y="-128" type="curve" smooth="yes"/>
      <point x="592" y="-111"/>
      <point x="663" y="-93"/>
      <point x="754" y="-83" type="curve"/>
    </contour>
    <contour>
      <point x="815" y="876"/>
      <point x="913" y="927"/>
      <point x="995" y="947" type="curve" smooth="yes"/>
      <point x="1084" y="970"/>
      <point x="1146" y="963"/>
      <point x="1168" y="925" type="curve" smooth="yes"/>
      <point x="1206" y="860"/>
      <point x="1146" y="778"/>
      <point x="1090" y="743" type="curve" smooth="yes"/>
      <point x="974" y="671"/>
      <point x="810" y="700"/>
      <point x="719" y="806" type="curve"/>
    </contour>
  </outline>
</glyph>
<glyph name="H" format="1">
  <advance width="924"/>
  <unicode hex="0048"/>
  <outline>
    <contour>
      <point x="48" y="-236"/>
      <point x="108" y="-256"/>
      <point x="158" y="-225" type="curve" smooth="yes"/>
      <point x="186" y="-207"/>
      <point x="211" y="-178"/>
      <point x="235" y="-143" type="curve" smooth="yes"/>
      <point x="270" y="-91"/>
      <point x="299" y="-28"/>
      <point x="320" y="22" type="curve" smooth="yes"/>
      <point x="341" y="73"/>
      <point x="354" y="110"/>
      <point x="354" y="110" type="curve"/>
      <point x="383" y="199"/>
      <point x="410" y="286"/>
      <point x="437" y="371" type="curve"/>
      <point x="500" y="400"/>
      <point x="565" y="427"/>
      <point x="630" y="450" type="curve" smooth="yes"/>
      <point x="694" y="473"/>
      <point x="753" y="497"/>
      <point x="806" y="523" type="curve"/>
      <point x="772" y="460"/>
      <point x="739" y="392"/>
      <point x="713" y="325" type="curve" smooth="yes"/>
      <point x="681" y="243"/>
      <point x="659" y="161"/>
      <point x="659" y="90" type="curve" smooth="yes"/>
      <point x="659" y="49"/>
      <point x="666" y="12"/>
      <point x="682" y="-21" type="curve" smooth="yes"/>
      <point x="700" y="-57"/>
      <point x="722" y="-85"/>
      <point x="749" y="-105" type="curve" smooth="yes"/>
      <point x="776" y="-126"/>
      <point x="808" y="-139"/>
      <point x="849" y="-151" type="curve"/>
      <point x="854" y="-152"/>
      <point x="859" y="-149"/>
      <point x="860" y="-144" type="curve"/>
      <point x="861" y="-140"/>
      <point x="859" y="-135"/>
      <point x="854" y="-133" type="curve"/>
      <point x="814" y="-122"/>
      <point x="784" y="-109"/>
      <point x="759" y="-91" type="curve"/>
      <point x="735" y="-72"/>
      <point x="716" y="-48"/>
      <point x="698" y="-13" type="curve"/>
      <point x="684" y="17"/>
      <point x="677" y="51"/>
      <point x="677" y="90" type="curve" smooth="yes"/>
      <point x="677" y="158"/>
      <point x="698" y="238"/>
      <point x="729" y="319" type="curve" smooth="yes"/>
      <point x="758" y="393"/>
      <point x="796" y="468"/>
      <point x="835" y="536" type="curve"/>
      <point x="1080" y="657"/>
      <point x="1207" y="787"/>
      <point x="1212" y="792" type="curve" smooth="yes"/>
      <point x="1239" y="819"/>
      <point x="1262" y="854"/>
      <point x="1264" y="895" type="curve"/>
      <point x="1264" y="936"/>
      <point x="1232" y="970"/>
      <point x="1188" y="970" type="curve" smooth="yes"/>
      <point x="1165" y="970"/>
      <point x="1143" y="961"/>
      <point x="1121" y="947" type="curve" smooth="yes"/>
      <point x="1089" y="926"/>
      <point x="1059" y="896"/>
      <point x="1037" y="871" type="curve" smooth="yes"/>
      <point x="1016" y="847"/>
      <point x="1002" y="828"/>
      <point x="1000" y="826" type="curve"/>
      <point x="1002" y="829"/>
      <point x="900" y="690"/>
      <point x="822" y="550" type="curve"/>
      <point x="763" y="521"/>
      <point x="697" y="493"/>
      <point x="624" y="467" type="curve" smooth="yes"/>
      <point x="564" y="445"/>
      <point x="503" y="421"/>
      <point x="444" y="394" type="curve"/>
      <point x="484" y="519"/>
      <point x="522" y="637"/>
      <point x="562" y="739" type="curve" smooth="yes"/>
      <point x="597" y="827"/>
      <point x="633" y="903"/>
      <point x="674" y="962" type="curve" smooth="yes"/>
      <point x="678" y="968"/>
      <point x="682" y="973"/>
      <point x="686" y="979" type="curve"/>
      <point x="703" y="975"/>
      <point x="720" y="973"/>
      <point x="735" y="973" type="curve" smooth="yes"/>
      <point x="791" y="973"/>
      <point x="829" y="996"/>
      <point x="834" y="999" type="curve" smooth="yes"/>
      <point x="851" y="1010"/>
      <point x="866" y="1020"/>
      <point x="877" y="1036" type="curve" smooth="yes"/>
      <point x="890" y="1056"/>
      <point x="889" y="1084"/>
      <point x="866" y="1099" type="curve" smooth="yes"/>
      <point x="849" y="1110"/>
      <point x="820" y="1104"/>
      <point x="801" y="1097" type="curve" smooth="yes"/>
      <point x="755" y="1080"/>
      <point x="715" y="1046"/>
      <point x="679" y="999" type="curve"/>
      <point x="669" y="1002"/>
      <point x="660" y="1006"/>
      <point x="649" y="1011" type="curve" smooth="yes"/>
      <point x="618" y="1025"/>
      <point x="584" y="1050"/>
      <point x="549" y="1090" type="curve"/>
      <point x="546" y="1094"/>
      <point x="540" y="1094"/>
      <point x="537" y="1091" type="curve"/>
      <point x="533" y="1088"/>
      <point x="532" y="1082"/>
      <point x="536" y="1078" type="curve"/>
      <point x="572" y="1037"/>
      <point x="608" y="1010"/>
      <point x="642" y="994" type="curve" smooth="yes"/>
      <point x="650" y="990"/>
      <point x="659" y="987"/>
      <point x="667" y="984" type="curve"/>
      <point x="664" y="980"/>
      <point x="662" y="976"/>
      <point x="659" y="972" type="curve"/>
      <point x="596" y="881"/>
      <point x="544" y="753"/>
      <point x="494" y="604" type="curve" smooth="yes"/>
      <point x="470" y="535"/>
      <point x="446" y="460"/>
      <point x="422" y="384" type="curve"/>
      <point x="281" y="316"/>
      <point x="153" y="230"/>
      <point x="67" y="116" type="curve" smooth="yes"/>
      <point x="8" y="37"/>
      <point x="-17" y="-35"/>
      <point x="-17" y="-94" type="curve" smooth="yes"/>
      <point x="-17" y="-134"/>
      <point x="-5" y="-169"/>
      <point x="15" y="-194" type="curve" smooth="yes"/>
    </contour>
    <contour>
      <point x="161" y="211"/>
      <point x="281" y="294"/>
      <point x="415" y="360" type="curve"/>
      <point x="390" y="281"/>
      <point x="364" y="199"/>
      <point x="337" y="116" type="curve" smooth="yes"/>
      <point x="323" y="75"/>
      <point x="279" y="-29"/>
      <point x="256" y="-72" type="curve" smooth="yes"/>
      <point x="235" y="-111"/>
      <point x="210" y="-150"/>
      <point x="185" y="-178" type="curve" smooth="yes"/>
      <point x="172" y="-192"/>
      <point x="159" y="-204"/>
      <point x="146" y="-211" type="curve"/>
      <point x="107" y="-234"/>
      <point x="60" y="-219"/>
      <point x="29" y="-183" type="curve" smooth="yes"/>
      <point x="11" y="-161"/>
      <point x="1" y="-131"/>
      <point x="1" y="-94" type="curve" smooth="yes"/>
      <point x="1" y="-40"/>
      <point x="24" y="29"/>
      <point x="82" y="105" type="curve" smooth="yes"/>
    </contour>
    <contour>
      <point x="1109" y="918"/>
      <point x="1145" y="950"/>
      <point x="1188" y="952" type="curve"/>
      <point x="1218" y="952"/>
      <point x="1245" y="926"/>
      <point x="1246" y="895" type="curve" smooth="yes"/>
      <point x="1246" y="860"/>
      <point x="1222" y="829"/>
      <point x="1198" y="804" type="curve"/>
      <point x="1190" y="795"/>
      <point x="1073" y="678"/>
      <point x="851" y="564" type="curve"/>
      <point x="870" y="598"/>
      <point x="890" y="629"/>
      <point x="908" y="658" type="curve" smooth="yes"/>
      <point x="938" y="705"/>
      <point x="964" y="744"/>
      <point x="984" y="772" type="curve"/>
      <point x="1008" y="811"/>
      <point x="1044" y="855"/>
      <point x="1081" y="891" type="curve" smooth="yes"/>
    </contour>
    <contour>
      <point x="723" y="991"/>
      <point x="711" y="992"/>
      <point x="698" y="994" type="curve"/>
      <point x="728" y="1030"/>
      <point x="762" y="1061"/>
      <point x="808" y="1081" type="curve" smooth="yes"/>
      <point x="823" y="1087"/>
      <point x="842" y="1091"/>
      <point x="857" y="1083" type="curve" smooth="yes"/>
      <point x="865" y="1079"/>
      <point x="873" y="1062"/>
      <point x="862" y="1046" type="curve" smooth="yes"/>
      <point x="851" y="1030"/>
      <point x="839" y="1023"/>
      <point x="824" y="1014" type="curve"/>
      <point x="824" y="1014"/>
      <point x="788" y="991"/>
      <point x="735" y="991" type="curve" smooth="yes"/>
    </contour>
  </outline>
</glyph>
<glyph name="I" format="1">
  <advance width="833"/>
  <unicode hex="0049"/>
  <outline>
    <contour>
      <point x="229" y="-119"/>
      <point x="339" y="30"/>
      <point x="514" y="267" type="curve" smooth="yes"/>
      <point x="555" y="321"/>
      <point x="595" y="376"/>
      <point x="636" y="434" type="curve" smooth="yes"/>
      <point x="739" y="578"/>
      <point x="834" y="710"/>
      <point x="942" y="797" type="curve"/>
      <point x="1051" y="765"/>
      <point x="1118" y="752"/>
      <point x="1185" y="751" type="curve" smooth="yes"/>
      <point x="1186" y="751"/>
      <point x="1187" y="751"/>
      <point x="1189" y="751" type="curve" smooth="yes"/>
      <point x="1238" y="751"/>
      <point x="1268" y="770"/>
      <point x="1284" y="786" type="curve" smooth="yes"/>
      <point x="1312" y="814"/>
      <point x="1324" y="866"/>
      <point x="1293" y="898" type="curve" smooth="yes"/>
      <point x="1262" y="930"/>
      <point x="1188" y="923"/>
      <point x="1187" y="923" type="curve"/>
      <point x="1129" y="919"/>
      <point x="1076" y="903"/>
      <point x="1022" y="875" type="curve" smooth="yes"/>
      <point x="994" y="860"/>
      <point x="966" y="841"/>
      <point x="938" y="820" type="curve"/>
      <point x="855" y="848"/>
      <point x="772" y="875"/>
      <point x="680" y="845" type="curve"/>
      <point x="675" y="843"/>
      <point x="672" y="838"/>
      <point x="674" y="832" type="curve"/>
      <point x="675" y="827"/>
      <point x="681" y="824"/>
      <point x="686" y="826" type="curve"/>
      <point x="767" y="853"/>
      <point x="862" y="825"/>
      <point x="920" y="804" type="curve"/>
      <point x="906" y="793"/>
      <point x="893" y="781"/>
      <point x="879" y="768" type="curve" smooth="yes"/>
      <point x="789" y="681"/>
      <point x="707" y="567"/>
      <point x="619" y="445" type="curve" smooth="yes"/>
      <point x="580" y="389"/>
      <point x="540" y="334"/>
      <point x="498" y="279" type="curve" smooth="yes"/>
      <point x="327" y="46"/>
      <point x="219" y="-99"/>
      <point x="89" y="-99" type="curve" smooth="yes"/>
      <point x="54" y="-99"/>
      <point x="11" y="-89"/>
      <point x="-11" y="-57" type="curve" smooth="yes"/>
      <point x="-28" y="-33"/>
      <point x="-33" y="2"/>
      <point x="-23" y="44" type="curve"/>
      <point x="-22" y="49"/>
      <point x="-25" y="55"/>
      <point x="-31" y="56" type="curve" smooth="yes"/>
      <point x="-36" y="57"/>
      <point x="-42" y="54"/>
      <point x="-43" y="48" type="curve"/>
      <point x="-53" y="1"/>
      <point x="-48" y="-40"/>
      <point x="-28" y="-69" type="curve" smooth="yes"/>
      <point x="-3" y="-105"/>
      <point x="45" y="-119"/>
      <point x="90" y="-119" type="curve" smooth="yes"/>
    </contour>
    <contour>
      <point x="1030" y="864"/>
      <point x="1104" y="897"/>
      <point x="1189" y="903" type="curve"/>
      <point x="1189" y="903"/>
      <point x="1254" y="910"/>
      <point x="1278" y="884" type="curve" smooth="yes"/>
      <point x="1299" y="861"/>
      <point x="1293" y="822"/>
      <point x="1269" y="800" type="curve"/>
      <point x="1249" y="780"/>
      <point x="1221" y="770"/>
      <point x="1185" y="771" type="curve" smooth="yes"/>
      <point x="1123" y="772"/>
      <point x="1060" y="783"/>
      <point x="962" y="812" type="curve"/>
    </contour>
  </outline>
</glyph>
<glyph name="J" format="1">
  <advance width="609"/>
  <unicode hex="004A"/>
  <outline>
    <contour>
      <point x="-240" y="-402"/>
      <point x="-24" y="-167"/>
      <point x="132" y="2" type="curve"/>
      <point x="242" y="17"/>
      <point x="347" y="26"/>
      <point x="413" y="130" type="curve"/>
      <point x="445" y="176"/>
      <point x="454" y="219"/>
      <point x="455" y="221" type="curve"/>
      <point x="456" y="226"/>
      <point x="453" y="231"/>
      <point x="447" y="233" type="curve"/>
      <point x="442" y="234"/>
      <point x="437" y="230"/>
      <point x="435" y="225" type="curve"/>
      <point x="435" y="225"/>
      <point x="426" y="184"/>
      <point x="396" y="140" type="curve" smooth="yes"/>
      <point x="338" y="55"/>
      <point x="248" y="36"/>
      <point x="150" y="24" type="curve"/>
      <point x="266" y="155"/>
      <point x="376" y="296"/>
      <point x="456" y="405" type="curve" smooth="yes"/>
      <point x="577" y="568"/>
      <point x="705" y="729"/>
      <point x="849" y="835" type="curve"/>
      <point x="1023" y="787"/>
      <point x="1082" y="778"/>
      <point x="1146" y="780" type="curve" smooth="yes"/>
      <point x="1301" y="786"/>
      <point x="1315" y="850"/>
      <point x="1322" y="869" type="curve"/>
      <point x="1328" y="898"/>
      <point x="1326" y="920"/>
      <point x="1311" y="939" type="curve" smooth="yes"/>
      <point x="1283" y="974"/>
      <point x="1215" y="978"/>
      <point x="1210" y="978" type="curve"/>
      <point x="1086" y="984"/>
      <point x="966" y="944"/>
      <point x="845" y="857" type="curve"/>
      <point x="826" y="862"/>
      <point x="805" y="868"/>
      <point x="783" y="874" type="curve" smooth="yes"/>
      <point x="681" y="903"/>
      <point x="597" y="904"/>
      <point x="544" y="900" type="curve" smooth="yes"/>
      <point x="486" y="895"/>
      <point x="452" y="884"/>
      <point x="451" y="883" type="curve"/>
      <point x="446" y="882"/>
      <point x="443" y="876"/>
      <point x="445" y="871" type="curve"/>
      <point x="447" y="865"/>
      <point x="452" y="863"/>
      <point x="458" y="864" type="curve"/>
      <point x="458" y="864"/>
      <point x="491" y="875"/>
      <point x="546" y="880" type="curve" smooth="yes"/>
      <point x="597" y="884"/>
      <point x="679" y="882"/>
      <point x="778" y="855" type="curve"/>
      <point x="794" y="850"/>
      <point x="810" y="846"/>
      <point x="825" y="842" type="curve"/>
      <point x="811" y="832"/>
      <point x="798" y="821"/>
      <point x="785" y="810" type="curve" smooth="yes"/>
      <point x="659" y="704"/>
      <point x="545" y="558"/>
      <point x="440" y="417" type="curve" smooth="yes"/>
      <point x="360" y="308"/>
      <point x="245" y="160"/>
      <point x="121" y="21" type="curve"/>
      <point x="-24" y="0"/>
      <point x="-178" y="-6"/>
      <point x="-328" y="-69" type="curve" smooth="yes"/>
      <point x="-422" y="-109"/>
      <point x="-565" y="-211"/>
      <point x="-547" y="-335" type="curve" smooth="yes"/>
      <point x="-539" y="-383"/>
      <point x="-497" y="-401"/>
      <point x="-450" y="-402" type="curve" smooth="yes"/>
    </contour>
    <contour>
      <point x="81" y="-24"/>
      <point x="60" y="-46"/>
      <point x="40" y="-67" type="curve" smooth="yes"/>
      <point x="-135" y="-250"/>
      <point x="-271" y="-352"/>
      <point x="-379" y="-375" type="curve" smooth="yes"/>
      <point x="-410" y="-381"/>
      <point x="-512" y="-407"/>
      <point x="-527" y="-332" type="curve" smooth="yes"/>
      <point x="-547" y="-225"/>
      <point x="-408" y="-125"/>
      <point x="-320" y="-88" type="curve" smooth="yes"/>
      <point x="-189" y="-30"/>
      <point x="-46" y="-21"/>
      <point x="101" y="-2" type="curve"/>
    </contour>
    <contour>
      <point x="973" y="922"/>
      <point x="1085" y="964"/>
      <point x="1209" y="958" type="curve"/>
      <point x="1209" y="958" type="line" smooth="yes"/>
      <point x="1209" y="958"/>
      <point x="1209" y="958"/>
      <point x="1209" y="958" type="curve"/>
      <point x="1211" y="958"/>
      <point x="1272" y="957"/>
      <point x="1296" y="926" type="curve" smooth="yes"/>
      <point x="1306" y="913"/>
      <point x="1308" y="895"/>
      <point x="1303" y="873" type="curve"/>
      <point x="1288" y="828"/>
      <point x="1250" y="805"/>
      <point x="1145" y="800" type="curve" smooth="yes"/>
      <point x="1085" y="797"/>
      <point x="1029" y="807"/>
      <point x="870" y="850" type="curve"/>
    </contour>
  </outline>
</glyph>
<glyph name="K" format="1">
  <advance width="898"/>
  <unicode hex="004B"/>
  <outline>
    <contour>
      <point x="1183" y="859"/>
      <point x="1154" y="853"/>
      <point x="1128" y="841" type="curve" smooth="yes"/>
      <point x="1103" y="829"/>
      <point x="1078" y="809"/>
      <point x="1053" y="788" type="curve" smooth="yes"/>
      <point x="1028" y="767"/>
      <point x="1003" y="743"/>
      <point x="979" y="722" type="curve" smooth="yes"/>
      <point x="902" y="657"/>
      <point x="812" y="590"/>
      <point x="719" y="541" type="curve" smooth="yes"/>
      <point x="653" y="506"/>
      <point x="586" y="479"/>
      <point x="519" y="467" type="curve"/>
      <point x="495" y="497"/>
      <point x="464" y="525"/>
      <point x="432" y="547" type="curve" smooth="yes"/>
      <point x="421" y="555"/>
      <point x="408" y="562"/>
      <point x="396" y="568" type="curve"/>
      <point x="454" y="646"/>
      <point x="511" y="719"/>
      <point x="569" y="780" type="curve" smooth="yes"/>
      <point x="595" y="807"/>
      <point x="620" y="832"/>
      <point x="647" y="854" type="curve"/>
      <point x="722" y="839"/>
      <point x="785" y="828"/>
      <point x="819" y="826" type="curve" smooth="yes"/>
      <point x="867" y="823"/>
      <point x="921" y="831"/>
      <point x="944" y="871" type="curve" smooth="yes"/>
      <point x="956" y="892"/>
      <point x="955" y="923"/>
      <point x="943" y="942" type="curve" smooth="yes"/>
      <point x="927" y="968"/>
      <point x="896" y="973"/>
      <point x="871" y="973" type="curve"/>
      <point x="814" y="971"/>
      <point x="760" y="952"/>
      <point x="708" y="921" type="curve" smooth="yes"/>
      <point x="686" y="907"/>
      <point x="663" y="891"/>
      <point x="642" y="873" type="curve"/>
      <point x="637" y="874"/>
      <point x="632" y="875"/>
      <point x="628" y="876" type="curve"/>
      <point x="543" y="893"/>
      <point x="445" y="915"/>
      <point x="355" y="935" type="curve" smooth="yes"/>
      <point x="304" y="946"/>
      <point x="264" y="951"/>
      <point x="231" y="951" type="curve" smooth="yes"/>
      <point x="203" y="951"/>
      <point x="180" y="947"/>
      <point x="163" y="941" type="curve"/>
      <point x="137" y="933"/>
      <point x="121" y="918"/>
      <point x="113" y="904" type="curve" smooth="yes"/>
      <point x="104" y="888"/>
      <point x="103" y="877"/>
      <point x="104" y="867" type="curve"/>
      <point x="105" y="862"/>
      <point x="109" y="858"/>
      <point x="114" y="859" type="curve"/>
      <point x="119" y="859"/>
      <point x="123" y="864"/>
      <point x="122" y="869" type="curve"/>
      <point x="121" y="893"/>
      <point x="135" y="907"/>
      <point x="150" y="916" type="curve" smooth="yes"/>
      <point x="165" y="925"/>
      <point x="191" y="933"/>
      <point x="231" y="933" type="curve" smooth="yes"/>
      <point x="262" y="933"/>
      <point x="301" y="928"/>
      <point x="351" y="917" type="curve" smooth="yes"/>
      <point x="441" y="897"/>
      <point x="539" y="876"/>
      <point x="624" y="859" type="curve"/>
      <point x="576" y="816"/>
      <point x="529" y="765"/>
      <point x="482" y="708" type="curve" smooth="yes"/>
      <point x="447" y="666"/>
      <point x="413" y="622"/>
      <point x="379" y="576" type="curve"/>
      <point x="359" y="585"/>
      <point x="335" y="591"/>
      <point x="313" y="591" type="curve" smooth="yes"/>
      <point x="277" y="591"/>
      <point x="244" y="568"/>
      <point x="244" y="532" type="curve" smooth="yes"/>
      <point x="244" y="494"/>
      <point x="278" y="480"/>
      <point x="298" y="466" type="curve"/>
      <point x="285" y="449"/>
      <point x="272" y="431"/>
      <point x="260" y="414" type="curve" smooth="yes"/>
      <point x="167" y="288"/>
      <point x="93" y="186"/>
      <point x="26" y="115" type="curve" smooth="yes"/>
      <point x="-7" y="80"/>
      <point x="-39" y="53"/>
      <point x="-70" y="34" type="curve" smooth="yes"/>
      <point x="-101" y="16"/>
      <point x="-132" y="7"/>
      <point x="-164" y="7" type="curve" smooth="yes"/>
      <point x="-171" y="7"/>
      <point x="-178" y="7"/>
      <point x="-185" y="8" type="curve" smooth="yes"/>
      <point x="-217" y="12"/>
      <point x="-239" y="23"/>
      <point x="-254" y="39" type="curve" smooth="yes"/>
      <point x="-268" y="55"/>
      <point x="-276" y="76"/>
      <point x="-276" y="103" type="curve" smooth="yes"/>
      <point x="-276" y="115"/>
      <point x="-275" y="129"/>
      <point x="-271" y="143" type="curve"/>
      <point x="-270" y="148"/>
      <point x="-273" y="152"/>
      <point x="-278" y="153" type="curve" smooth="yes"/>
      <point x="-283" y="154"/>
      <point x="-288" y="151"/>
      <point x="-289" y="147" type="curve"/>
      <point x="-292" y="131"/>
      <point x="-294" y="117"/>
      <point x="-294" y="103" type="curve" smooth="yes"/>
      <point x="-294" y="73"/>
      <point x="-285" y="46"/>
      <point x="-267" y="26" type="curve" smooth="yes"/>
      <point x="-249" y="7"/>
      <point x="-222" y="-6"/>
      <point x="-187" y="-10" type="curve" smooth="yes"/>
      <point x="-179" y="-11"/>
      <point x="-172" y="-11"/>
      <point x="-164" y="-11" type="curve"/>
      <point x="-164" y="-11"/>
      <point x="-164" y="-11"/>
      <point x="-164" y="-11" type="curve"/>
      <point x="-128" y="-11"/>
      <point x="-94" y="-1"/>
      <point x="-61" y="19" type="curve" smooth="yes"/>
      <point x="-11" y="48"/>
      <point x="38" y="97"/>
      <point x="92" y="162" type="curve" smooth="yes"/>
      <point x="146" y="228"/>
      <point x="204" y="309"/>
      <point x="274" y="403" type="curve" smooth="yes"/>
      <point x="288" y="422"/>
      <point x="302" y="440"/>
      <point x="315" y="459" type="curve"/>
      <point x="354" y="446"/>
      <point x="394" y="440"/>
      <point x="434" y="440" type="curve" smooth="yes"/>
      <point x="460" y="440"/>
      <point x="486" y="442"/>
      <point x="512" y="447" type="curve"/>
      <point x="539" y="412"/>
      <point x="564" y="369"/>
      <point x="573" y="320" type="curve" smooth="yes"/>
      <point x="577" y="299"/>
      <point x="578" y="279"/>
      <point x="578" y="260" type="curve" smooth="yes"/>
      <point x="578" y="223"/>
      <point x="573" y="189"/>
      <point x="567" y="157" type="curve" smooth="yes"/>
      <point x="562" y="125"/>
      <point x="557" y="95"/>
      <point x="557" y="67" type="curve" smooth="yes"/>
      <point x="557" y="32"/>
      <point x="566" y="5"/>
      <point x="589" y="-16" type="curve" smooth="yes"/>
      <point x="647" y="-71"/>
      <point x="739" y="-22"/>
      <point x="783" y="22" type="curve" smooth="yes"/>
      <point x="786" y="25"/>
      <point x="786" y="31"/>
      <point x="783" y="34" type="curve" smooth="yes"/>
      <point x="779" y="38"/>
      <point x="774" y="38"/>
      <point x="770" y="35" type="curve"/>
      <point x="729" y="-7"/>
      <point x="650" y="-50"/>
      <point x="601" y="-3" type="curve" smooth="yes"/>
      <point x="580" y="16"/>
      <point x="575" y="42"/>
      <point x="575" y="67" type="curve" smooth="yes"/>
      <point x="575" y="92"/>
      <point x="580" y="122"/>
      <point x="585" y="154" type="curve" smooth="yes"/>
      <point x="591" y="186"/>
      <point x="596" y="222"/>
      <point x="596" y="260" type="curve" smooth="yes"/>
      <point x="596" y="280"/>
      <point x="594" y="301"/>
      <point x="590" y="323" type="curve" smooth="yes"/>
      <point x="581" y="373"/>
      <point x="558" y="416"/>
      <point x="532" y="451" type="curve"/>
      <point x="598" y="465"/>
      <point x="664" y="491"/>
      <point x="727" y="525" type="curve" smooth="yes"/>
      <point x="822" y="575"/>
      <point x="913" y="642"/>
      <point x="990" y="709" type="curve" smooth="yes"/>
      <point x="1023" y="737"/>
      <point x="1057" y="769"/>
      <point x="1089" y="794" type="curve" smooth="yes"/>
      <point x="1105" y="807"/>
      <point x="1121" y="817"/>
      <point x="1136" y="825" type="curve"/>
      <point x="1160" y="836"/>
      <point x="1182" y="839"/>
      <point x="1205" y="831" type="curve"/>
      <point x="1228" y="820"/>
      <point x="1240" y="800"/>
      <point x="1240" y="776" type="curve" smooth="yes"/>
      <point x="1240" y="764"/>
      <point x="1237" y="753"/>
      <point x="1234" y="744" type="curve"/>
      <point x="1233" y="740"/>
      <point x="1233" y="734"/>
      <point x="1239" y="732" type="curve"/>
      <point x="1243" y="731"/>
      <point x="1248" y="732"/>
      <point x="1250" y="737" type="curve" smooth="yes"/>
      <point x="1252" y="742"/>
      <point x="1258" y="756"/>
      <point x="1258" y="776" type="curve" smooth="yes"/>
      <point x="1258" y="808"/>
      <point x="1240" y="836"/>
      <point x="1212" y="847" type="curve" smooth="yes"/>
    </contour>
    <contour>
      <point x="768" y="936"/>
      <point x="819" y="954"/>
      <point x="871" y="955" type="curve"/>
      <point x="895" y="954"/>
      <point x="916" y="951"/>
      <point x="928" y="933" type="curve"/>
      <point x="940" y="913"/>
      <point x="935" y="885"/>
      <point x="921" y="869" type="curve"/>
      <point x="895" y="843"/>
      <point x="853" y="842"/>
      <point x="821" y="844" type="curve" smooth="yes"/>
      <point x="790" y="846"/>
      <point x="733" y="856"/>
      <point x="665" y="869" type="curve"/>
      <point x="682" y="882"/>
      <point x="700" y="895"/>
      <point x="717" y="905" type="curve" smooth="yes"/>
    </contour>
    <contour>
      <point x="262" y="560"/>
      <point x="290" y="574"/>
      <point x="313" y="574" type="curve" smooth="yes"/>
      <point x="333" y="574"/>
      <point x="351" y="568"/>
      <point x="368" y="561" type="curve"/>
      <point x="348" y="535"/>
      <point x="328" y="508"/>
      <point x="309" y="481" type="curve"/>
      <point x="289" y="490"/>
      <point x="262" y="509"/>
      <point x="262" y="532" type="curve" smooth="yes"/>
    </contour>
    <contour>
      <point x="397" y="458"/>
      <point x="361" y="463"/>
      <point x="326" y="474" type="curve"/>
      <point x="346" y="501"/>
      <point x="365" y="528"/>
      <point x="385" y="554" type="curve"/>
      <point x="398" y="548"/>
      <point x="410" y="540"/>
      <point x="422" y="532" type="curve" smooth="yes"/>
      <point x="438" y="521"/>
      <point x="469" y="497"/>
      <point x="499" y="463" type="curve"/>
      <point x="477" y="460"/>
      <point x="455" y="458"/>
      <point x="434" y="458" type="curve" smooth="yes"/>
    </contour>
  </outline>
</glyph>
<glyph name="L" format="1">
  <advance width="833"/>
  <unicode hex="004C"/>
  <outline>
    <contour>
      <point x="608" y="-226"/>
      <point x="673" y="-243"/>
      <point x="727" y="-243" type="curve" smooth="yes"/>
      <point x="773" y="-243"/>
      <point x="826" y="-230"/>
      <point x="856" y="-184" type="curve"/>
      <point x="880" y="-142"/>
      <point x="874" y="-98"/>
      <point x="845" y="-57" type="curve" smooth="yes"/>
      <point x="832" y="-39"/>
      <point x="819" y="-30"/>
      <point x="818" y="-29" type="curve"/>
      <point x="814" y="-26"/>
      <point x="809" y="-27"/>
      <point x="806" y="-31" type="curve" smooth="yes"/>
      <point x="803" y="-35"/>
      <point x="803" y="-40"/>
      <point x="807" y="-44" type="curve"/>
      <point x="809" y="-45"/>
      <point x="820" y="-54"/>
      <point x="832" y="-69" type="curve"/>
      <point x="855" y="-101"/>
      <point x="861" y="-138"/>
      <point x="841" y="-175" type="curve"/>
      <point x="817" y="-212"/>
      <point x="773" y="-224"/>
      <point x="727" y="-225" type="curve" smooth="yes"/>
      <point x="676" y="-225"/>
      <point x="615" y="-209"/>
      <point x="549" y="-172" type="curve" smooth="yes"/>
      <point x="452" y="-118"/>
      <point x="398" y="-58"/>
      <point x="351" y="-6" type="curve"/>
      <point x="345" y="0"/>
      <point x="340" y="7"/>
      <point x="334" y="13" type="curve"/>
      <point x="373" y="41"/>
      <point x="414" y="77"/>
      <point x="456" y="120" type="curve" smooth="yes"/>
      <point x="519" y="185"/>
      <point x="585" y="267"/>
      <point x="655" y="361" type="curve" smooth="yes"/>
      <point x="756" y="497"/>
      <point x="842" y="634"/>
      <point x="934" y="738" type="curve" smooth="yes"/>
      <point x="965" y="773"/>
      <point x="996" y="804"/>
      <point x="1029" y="830" type="curve"/>
      <point x="1053" y="821"/>
      <point x="1074" y="813"/>
      <point x="1093" y="806" type="curve" smooth="yes"/>
      <point x="1130" y="793"/>
      <point x="1162" y="784"/>
      <point x="1204" y="781" type="curve" smooth="yes"/>
      <point x="1229" y="780"/>
      <point x="1255" y="781"/>
      <point x="1281" y="793" type="curve" smooth="yes"/>
      <point x="1304" y="804"/>
      <point x="1317" y="821"/>
      <point x="1323" y="835" type="curve"/>
      <point x="1328" y="848"/>
      <point x="1334" y="874"/>
      <point x="1317" y="901" type="curve"/>
      <point x="1300" y="925"/>
      <point x="1272" y="934"/>
      <point x="1241" y="933" type="curve" smooth="yes"/>
      <point x="1177" y="930"/>
      <point x="1120" y="911"/>
      <point x="1068" y="879" type="curve" smooth="yes"/>
      <point x="1054" y="870"/>
      <point x="1040" y="861"/>
      <point x="1026" y="850" type="curve"/>
      <point x="1006" y="858"/>
      <point x="983" y="866"/>
      <point x="957" y="874" type="curve" smooth="yes"/>
      <point x="923" y="885"/>
      <point x="891" y="889"/>
      <point x="862" y="889" type="curve" smooth="yes"/>
      <point x="777" y="889"/>
      <point x="719" y="855"/>
      <point x="718" y="854" type="curve"/>
      <point x="714" y="852"/>
      <point x="712" y="846"/>
      <point x="715" y="842" type="curve"/>
      <point x="717" y="838"/>
      <point x="722" y="836"/>
      <point x="727" y="839" type="curve"/>
      <point x="730" y="840"/>
      <point x="785" y="871"/>
      <point x="862" y="871" type="curve" smooth="yes"/>
      <point x="889" y="871"/>
      <point x="919" y="867"/>
      <point x="951" y="857" type="curve" smooth="yes"/>
      <point x="973" y="850"/>
      <point x="992" y="843"/>
      <point x="1009" y="837" type="curve"/>
      <point x="954" y="791"/>
      <point x="903" y="732"/>
      <point x="852" y="665" type="curve" smooth="yes"/>
      <point x="783" y="576"/>
      <point x="716" y="473"/>
      <point x="641" y="372" type="curve" smooth="yes"/>
      <point x="548" y="246"/>
      <point x="462" y="144"/>
      <point x="381" y="73" type="curve" smooth="yes"/>
      <point x="361" y="56"/>
      <point x="341" y="40"/>
      <point x="322" y="26" type="curve"/>
      <point x="308" y="40"/>
      <point x="295" y="53"/>
      <point x="281" y="66" type="curve"/>
      <point x="235" y="103"/>
      <point x="179" y="127"/>
      <point x="116" y="129" type="curve" smooth="yes"/>
      <point x="76" y="129"/>
      <point x="33" y="112"/>
      <point x="18" y="71" type="curve" smooth="yes"/>
      <point x="-12" y="-15"/>
      <point x="85" y="-54"/>
      <point x="159" y="-54" type="curve" smooth="yes"/>
      <point x="196" y="-54"/>
      <point x="234" y="-43"/>
      <point x="273" y="-24" type="curve"/>
      <point x="288" y="-16"/>
      <point x="304" y="-8"/>
      <point x="319" y="3" type="curve"/>
      <point x="336" y="-16"/>
      <point x="355" y="-37"/>
      <point x="375" y="-59" type="curve" smooth="yes"/>
      <point x="415" y="-101"/>
      <point x="465" y="-146"/>
      <point x="540" y="-188" type="curve" smooth="yes"/>
    </contour>
    <contour>
      <point x="30" y="86"/>
      <point x="69" y="110"/>
      <point x="116" y="111" type="curve" smooth="yes"/>
      <point x="171" y="111"/>
      <point x="225" y="87"/>
      <point x="269" y="52" type="curve" smooth="yes"/>
      <point x="282" y="41"/>
      <point x="294" y="29"/>
      <point x="307" y="16" type="curve"/>
      <point x="293" y="7"/>
      <point x="279" y="-1"/>
      <point x="265" y="-8" type="curve" smooth="yes"/>
      <point x="228" y="-26"/>
      <point x="193" y="-36"/>
      <point x="159" y="-36" type="curve" smooth="yes"/>
      <point x="111" y="-36"/>
      <point x="37" y="-20"/>
      <point x="30" y="39" type="curve"/>
    </contour>
    <contour>
      <point x="1083" y="829"/>
      <point x="1066" y="835"/>
      <point x="1046" y="843" type="curve"/>
      <point x="1056" y="850"/>
      <point x="1067" y="857"/>
      <point x="1077" y="864" type="curve"/>
      <point x="1128" y="894"/>
      <point x="1181" y="913"/>
      <point x="1242" y="915" type="curve" smooth="yes"/>
      <point x="1263" y="915"/>
      <point x="1287" y="910"/>
      <point x="1302" y="891" type="curve"/>
      <point x="1316" y="868"/>
      <point x="1312" y="843"/>
      <point x="1295" y="825" type="curve" smooth="yes"/>
      <point x="1275" y="804"/>
      <point x="1244" y="798"/>
      <point x="1205" y="799" type="curve"/>
      <point x="1165" y="802"/>
      <point x="1135" y="810"/>
      <point x="1099" y="823" type="curve" smooth="yes"/>
    </contour>
  </outline>
</glyph>
<glyph name="M" format="1">
  <advance width="1191"/>
  <unicode hex="004D"/>
  <outline>
    <contour>
      <point x="1053" y="-183"/>
      <point x="1096" y="-199"/>
      <point x="1149" y="-199" type="curve" smooth="yes"/>
      <point x="1205" y="-199"/>
      <point x="1248" y="-174"/>
      <point x="1276" y="-149" type="curve" smooth="yes"/>
      <point x="1304" y="-125"/>
      <point x="1317" y="-101"/>
      <point x="1318" y="-100" type="curve"/>
      <point x="1321" y="-96"/>
      <point x="1320" y="-90"/>
      <point x="1314" y="-87" type="curve" smooth="yes"/>
      <point x="1310" y="-85"/>
      <point x="1305" y="-85"/>
      <point x="1302" y="-91" type="curve" smooth="yes"/>
      <point x="1301" y="-93"/>
      <point x="1287" y="-116"/>
      <point x="1261" y="-138" type="curve" smooth="yes"/>
      <point x="1236" y="-160"/>
      <point x="1198" y="-181"/>
      <point x="1149" y="-181" type="curve" smooth="yes"/>
      <point x="1107" y="-181"/>
      <point x="1064" y="-168"/>
      <point x="1030" y="-137" type="curve"/>
      <point x="1009" y="-116"/>
      <point x="996" y="-90"/>
      <point x="990" y="-66" type="curve"/>
      <point x="983" y="-42"/>
      <point x="981" y="-18"/>
      <point x="982" y="9" type="curve"/>
      <point x="982" y="10" type="line"/>
      <point x="989" y="162"/>
      <point x="1046" y="332"/>
      <point x="1112" y="479" type="curve" smooth="yes"/>
      <point x="1177" y="627"/>
      <point x="1251" y="751"/>
      <point x="1292" y="811" type="curve" smooth="yes"/>
      <point x="1306" y="832"/>
      <point x="1327" y="873"/>
      <point x="1310" y="899" type="curve" smooth="yes"/>
      <point x="1302" y="911"/>
      <point x="1286" y="916"/>
      <point x="1267" y="917" type="curve"/>
      <point x="1244" y="917"/>
      <point x="1218" y="911"/>
      <point x="1189" y="900" type="curve" smooth="yes"/>
      <point x="1140" y="881"/>
      <point x="1082" y="846"/>
      <point x="1020" y="800" type="curve" smooth="yes"/>
      <point x="876" y="693"/>
      <point x="710" y="523"/>
      <point x="575" y="336" type="curve"/>
      <point x="603" y="514"/>
      <point x="665" y="666"/>
      <point x="728" y="812" type="curve" smooth="yes"/>
      <point x="741" y="842"/>
      <point x="746" y="863"/>
      <point x="746" y="879" type="curve" smooth="yes"/>
      <point x="746" y="905"/>
      <point x="733" y="922"/>
      <point x="702" y="923" type="curve" smooth="yes"/>
      <point x="658" y="923"/>
      <point x="611" y="903"/>
      <point x="563" y="870" type="curve" smooth="yes"/>
      <point x="490" y="821"/>
      <point x="414" y="742"/>
      <point x="337" y="650" type="curve" smooth="yes"/>
      <point x="260" y="558"/>
      <point x="182" y="454"/>
      <point x="108" y="354" type="curve" smooth="yes"/>
      <point x="13" y="225"/>
      <point x="-73" y="122"/>
      <point x="-154" y="53" type="curve" smooth="yes"/>
      <point x="-194" y="18"/>
      <point x="-234" y="-8"/>
      <point x="-272" y="-26" type="curve" smooth="yes"/>
      <point x="-311" y="-44"/>
      <point x="-349" y="-53"/>
      <point x="-388" y="-53" type="curve" smooth="yes"/>
      <point x="-391" y="-53"/>
      <point x="-395" y="-53"/>
      <point x="-399" y="-53" type="curve"/>
      <point x="-451" y="-50"/>
      <point x="-484" y="-32"/>
      <point x="-505" y="-7" type="curve" smooth="yes"/>
      <point x="-527" y="18"/>
      <point x="-536" y="51"/>
      <point x="-536" y="84" type="curve" smooth="yes"/>
      <point x="-536" y="120"/>
      <point x="-525" y="157"/>
      <point x="-508" y="182" type="curve"/>
      <point x="-506" y="186"/>
      <point x="-507" y="192"/>
      <point x="-511" y="194" type="curve"/>
      <point x="-515" y="197"/>
      <point x="-521" y="196"/>
      <point x="-524" y="192" type="curve"/>
      <point x="-542" y="163"/>
      <point x="-554" y="124"/>
      <point x="-554" y="84" type="curve" smooth="yes"/>
      <point x="-554" y="48"/>
      <point x="-544" y="10"/>
      <point x="-519" y="-19" type="curve" smooth="yes"/>
      <point x="-495" y="-48"/>
      <point x="-455" y="-68"/>
      <point x="-400" y="-71" type="curve"/>
      <point x="-396" y="-71"/>
      <point x="-392" y="-71"/>
      <point x="-388" y="-71" type="curve" smooth="yes"/>
      <point x="-346" y="-71"/>
      <point x="-305" y="-61"/>
      <point x="-265" y="-42" type="curve" smooth="yes"/>
      <point x="-204" y="-14"/>
      <point x="-143" y="34"/>
      <point x="-79" y="99" type="curve" smooth="yes"/>
      <point x="-16" y="164"/>
      <point x="51" y="246"/>
      <point x="123" y="343" type="curve" smooth="yes"/>
      <point x="222" y="476"/>
      <point x="326" y="617"/>
      <point x="427" y="725" type="curve" smooth="yes"/>
      <point x="477" y="779"/>
      <point x="526" y="824"/>
      <point x="573" y="855" type="curve" smooth="yes"/>
      <point x="619" y="887"/>
      <point x="663" y="905"/>
      <point x="702" y="905" type="curve" smooth="yes"/>
      <point x="719" y="905"/>
      <point x="727" y="899"/>
      <point x="728" y="879" type="curve"/>
      <point x="728" y="867"/>
      <point x="724" y="848"/>
      <point x="712" y="820" type="curve" smooth="yes"/>
      <point x="644" y="664"/>
      <point x="577" y="500"/>
      <point x="552" y="304" type="curve"/>
      <point x="523" y="260"/>
      <point x="494" y="217"/>
      <point x="469" y="172" type="curve"/>
      <point x="451" y="144"/>
      <point x="418" y="92"/>
      <point x="412" y="48" type="curve"/>
      <point x="407" y="19"/>
      <point x="410" y="-15"/>
      <point x="433" y="-38" type="curve"/>
      <point x="448" y="-51"/>
      <point x="459" y="-53"/>
      <point x="473" y="-53" type="curve" smooth="yes"/>
      <point x="493" y="-53"/>
      <point x="509" y="-46"/>
      <point x="521" y="-36" type="curve" smooth="yes"/>
      <point x="540" y="-20"/>
      <point x="550" y="4"/>
      <point x="555" y="28" type="curve"/>
      <point x="561" y="52"/>
      <point x="562" y="77"/>
      <point x="562" y="95" type="curve"/>
      <point x="559" y="164"/>
      <point x="562" y="233"/>
      <point x="570" y="297" type="curve"/>
      <point x="667" y="436"/>
      <point x="783" y="568"/>
      <point x="896" y="672" type="curve" smooth="yes"/>
      <point x="970" y="741"/>
      <point x="1042" y="798"/>
      <point x="1107" y="838" type="curve" smooth="yes"/>
      <point x="1139" y="857"/>
      <point x="1169" y="873"/>
      <point x="1196" y="883" type="curve" smooth="yes"/>
      <point x="1223" y="894"/>
      <point x="1247" y="899"/>
      <point x="1267" y="899" type="curve" smooth="yes"/>
      <point x="1316" y="899"/>
      <point x="1294" y="848"/>
      <point x="1277" y="821" type="curve"/>
      <point x="1235" y="760"/>
      <point x="1161" y="635"/>
      <point x="1095" y="487" type="curve" smooth="yes"/>
      <point x="1029" y="338"/>
      <point x="971" y="166"/>
      <point x="964" y="11" type="curve"/>
      <point x="964" y="-26"/>
      <point x="967" y="-60"/>
      <point x="982" y="-98" type="curve"/>
      <point x="990" y="-116"/>
      <point x="1001" y="-134"/>
      <point x="1018" y="-150" type="curve" smooth="yes"/>
    </contour>
    <contour>
      <point x="463" y="-35"/>
      <point x="454" y="-33"/>
      <point x="444" y="-24" type="curve"/>
      <point x="426" y="-6"/>
      <point x="426" y="22"/>
      <point x="429" y="46" type="curve"/>
      <point x="433" y="69"/>
      <point x="444" y="101"/>
      <point x="484" y="163" type="curve"/>
      <point x="504" y="198"/>
      <point x="526" y="232"/>
      <point x="548" y="265" type="curve"/>
      <point x="544" y="204"/>
      <point x="542" y="162"/>
      <point x="544" y="95" type="curve" smooth="yes"/>
      <point x="544" y="72"/>
      <point x="542" y="38"/>
      <point x="531" y="11" type="curve"/>
      <point x="526" y="-3"/>
      <point x="519" y="-14"/>
      <point x="510" y="-22" type="curve"/>
      <point x="500" y="-30"/>
      <point x="489" y="-35"/>
      <point x="473" y="-35" type="curve" smooth="yes"/>
    </contour>
  </outline>
</glyph>
<glyph name="P" format="1">
  <advance width="1203"/>
  <unicode hex="0050"/>
  <outline>
    <contour>
      <point x="1256" y="893"/>
      <point x="1178" y="913"/>
      <point x="1101" y="913" type="curve" smooth="yes"/>
      <point x="1061" y="913"/>
      <point x="1023" y="907"/>
      <point x="988" y="897" type="curve"/>
      <point x="913" y="920"/>
      <point x="836" y="932"/>
      <point x="763" y="932" type="curve" smooth="yes"/>
      <point x="678" y="932"/>
      <point x="588" y="907"/>
      <point x="519" y="861" type="curve"/>
      <point x="519" y="861"/>
      <point x="518" y="861"/>
      <point x="518" y="861" type="curve"/>
      <point x="496" y="888"/>
      <point x="467" y="905"/>
      <point x="444" y="917" type="curve" smooth="yes"/>
      <point x="420" y="929"/>
      <point x="401" y="934"/>
      <point x="401" y="934" type="curve"/>
      <point x="396" y="935"/>
      <point x="391" y="932"/>
      <point x="390" y="927" type="curve"/>
      <point x="388" y="922"/>
      <point x="391" y="917"/>
      <point x="396" y="916" type="curve"/>
      <point x="421" y="908"/>
      <point x="443" y="898"/>
      <point x="464" y="885" type="curve" smooth="yes"/>
      <point x="478" y="876"/>
      <point x="492" y="864"/>
      <point x="504" y="850" type="curve"/>
      <point x="477" y="829"/>
      <point x="453" y="803"/>
      <point x="435" y="770" type="curve" smooth="yes"/>
      <point x="413" y="731"/>
      <point x="407" y="703"/>
      <point x="407" y="680" type="curve" smooth="yes"/>
      <point x="407" y="635"/>
      <point x="429" y="602"/>
      <point x="474" y="599" type="curve" smooth="yes"/>
      <point x="506" y="597"/>
      <point x="527" y="612"/>
      <point x="541" y="633" type="curve" smooth="yes"/>
      <point x="553" y="651"/>
      <point x="561" y="678"/>
      <point x="561" y="718" type="curve" smooth="yes"/>
      <point x="561" y="736"/>
      <point x="559" y="758"/>
      <point x="555" y="782" type="curve" smooth="yes"/>
      <point x="551" y="807"/>
      <point x="542" y="829"/>
      <point x="529" y="847" type="curve"/>
      <point x="600" y="892"/>
      <point x="683" y="914"/>
      <point x="763" y="914" type="curve"/>
      <point x="804" y="916"/>
      <point x="904" y="908"/>
      <point x="958" y="887" type="curve"/>
      <point x="944" y="882"/>
      <point x="930" y="877"/>
      <point x="917" y="870" type="curve"/>
      <point x="834" y="829"/>
      <point x="763" y="763"/>
      <point x="697" y="683" type="curve" smooth="yes"/>
      <point x="631" y="602"/>
      <point x="571" y="509"/>
      <point x="511" y="413" type="curve" smooth="yes"/>
      <point x="430" y="285"/>
      <point x="371" y="161"/>
      <point x="311" y="67" type="curve" smooth="yes"/>
      <point x="281" y="20"/>
      <point x="251" y="-19"/>
      <point x="219" y="-48" type="curve" smooth="yes"/>
      <point x="187" y="-76"/>
      <point x="153" y="-94"/>
      <point x="113" y="-99" type="curve" smooth="yes"/>
      <point x="58" y="-106"/>
      <point x="4" y="-80"/>
      <point x="-8" y="-25" type="curve" smooth="yes"/>
      <point x="-9" y="-20"/>
      <point x="-14" y="-17"/>
      <point x="-19" y="-19" type="curve"/>
      <point x="-24" y="-20"/>
      <point x="-27" y="-25"/>
      <point x="-26" y="-29" type="curve" smooth="yes"/>
      <point x="-8" y="-92"/>
      <point x="51" y="-125"/>
      <point x="115" y="-117" type="curve" smooth="yes"/>
      <point x="159" y="-111"/>
      <point x="197" y="-92"/>
      <point x="231" y="-61" type="curve" smooth="yes"/>
      <point x="282" y="-16"/>
      <point x="325" y="53"/>
      <point x="372" y="134" type="curve" smooth="yes"/>
      <point x="418" y="215"/>
      <point x="466" y="308"/>
      <point x="526" y="404" type="curve" smooth="yes"/>
      <point x="606" y="531"/>
      <point x="686" y="654"/>
      <point x="777" y="745" type="curve" smooth="yes"/>
      <point x="823" y="791"/>
      <point x="872" y="828"/>
      <point x="925" y="854" type="curve" smooth="yes"/>
      <point x="945" y="864"/>
      <point x="966" y="872"/>
      <point x="987" y="878" type="curve"/>
      <point x="1002" y="873"/>
      <point x="1016" y="868"/>
      <point x="1029" y="862" type="curve" smooth="yes"/>
      <point x="1126" y="820"/>
      <point x="1176" y="758"/>
      <point x="1203" y="703" type="curve" smooth="yes"/>
      <point x="1229" y="647"/>
      <point x="1232" y="598"/>
      <point x="1232" y="581" type="curve" smooth="yes"/>
      <point x="1232" y="456"/>
      <point x="1147" y="350"/>
      <point x="1044" y="295" type="curve" smooth="yes"/>
      <point x="929" y="232"/>
      <point x="804" y="251"/>
      <point x="709" y="323" type="curve" smooth="yes"/>
      <point x="687" y="340"/>
      <point x="669" y="356"/>
      <point x="657" y="369" type="curve"/>
      <point x="652" y="374"/>
      <point x="642" y="386"/>
      <point x="639" y="390" type="curve" smooth="yes"/>
      <point x="636" y="394"/>
      <point x="630" y="395"/>
      <point x="627" y="392" type="curve"/>
      <point x="623" y="389"/>
      <point x="622" y="383"/>
      <point x="625" y="379" type="curve"/>
      <point x="625" y="379"/>
      <point x="651" y="343"/>
      <point x="698" y="308" type="curve" smooth="yes"/>
      <point x="811" y="224"/>
      <point x="939" y="217"/>
      <point x="1053" y="279" type="curve" smooth="yes"/>
      <point x="1167" y="341"/>
      <point x="1250" y="452"/>
      <point x="1250" y="581" type="curve" smooth="yes"/>
      <point x="1250" y="606"/>
      <point x="1245" y="690"/>
      <point x="1181" y="770" type="curve" smooth="yes"/>
      <point x="1150" y="811"/>
      <point x="1103" y="849"/>
      <point x="1036" y="879" type="curve"/>
      <point x="1030" y="881"/>
      <point x="1024" y="884"/>
      <point x="1018" y="886" type="curve"/>
      <point x="1045" y="892"/>
      <point x="1072" y="894"/>
      <point x="1101" y="895" type="curve" smooth="yes"/>
      <point x="1169" y="897"/>
      <point x="1245" y="876"/>
      <point x="1274" y="811" type="curve"/>
      <point x="1276" y="806"/>
      <point x="1281" y="804"/>
      <point x="1286" y="806" type="curve"/>
      <point x="1290" y="808"/>
      <point x="1293" y="814"/>
      <point x="1290" y="818" type="curve"/>
    </contour>
    <contour>
      <point x="541" y="756"/>
      <point x="543" y="735"/>
      <point x="543" y="718" type="curve" smooth="yes"/>
      <point x="543" y="693"/>
      <point x="539" y="673"/>
      <point x="534" y="660" type="curve" smooth="yes"/>
      <point x="523" y="630"/>
      <point x="501" y="615"/>
      <point x="474" y="617" type="curve" smooth="yes"/>
      <point x="437" y="621"/>
      <point x="425" y="647"/>
      <point x="425" y="680" type="curve" smooth="yes"/>
      <point x="425" y="699"/>
      <point x="430" y="724"/>
      <point x="450" y="761" type="curve" smooth="yes"/>
      <point x="467" y="792"/>
      <point x="490" y="816"/>
      <point x="515" y="836" type="curve"/>
      <point x="526" y="820"/>
      <point x="534" y="801"/>
      <point x="537" y="779" type="curve"/>
    </contour>
  </outline>
</glyph>
<glyph name="Q" format="1">
  <advance width="1004"/>
  <unicode hex="0051"/>
  <outline>
    <contour>
      <point x="751" y="-298" type="line"/>
      <point x="800" y="-319"/>
      <point x="844" y="-324"/>
      <point x="874" y="-324" type="curve" smooth="yes"/>
      <point x="922" y="-324"/>
      <point x="982" y="-308"/>
      <point x="1013" y="-266" type="curve" smooth="yes"/>
      <point x="1038" y="-232"/>
      <point x="1036" y="-180"/>
      <point x="1018" y="-149" type="curve" smooth="yes"/>
      <point x="999" y="-115"/>
      <point x="963" y="-105"/>
      <point x="923" y="-104" type="curve" smooth="yes"/>
      <point x="890" y="-104"/>
      <point x="863" y="-112"/>
      <point x="862" y="-112" type="curve"/>
      <point x="857" y="-113"/>
      <point x="855" y="-118"/>
      <point x="856" y="-123" type="curve"/>
      <point x="858" y="-128"/>
      <point x="863" y="-131"/>
      <point x="867" y="-129" type="curve"/>
      <point x="884" y="-125"/>
      <point x="902" y="-123"/>
      <point x="923" y="-122" type="curve"/>
      <point x="954" y="-122"/>
      <point x="985" y="-129"/>
      <point x="1003" y="-158" type="curve"/>
      <point x="1018" y="-186"/>
      <point x="1018" y="-226"/>
      <point x="999" y="-255" type="curve"/>
      <point x="971" y="-291"/>
      <point x="922" y="-305"/>
      <point x="874" y="-306" type="curve" smooth="yes"/>
      <point x="846" y="-306"/>
      <point x="805" y="-301"/>
      <point x="758" y="-281" type="curve" smooth="yes"/>
      <point x="712" y="-261"/>
      <point x="660" y="-225"/>
      <point x="612" y="-163" type="curve" smooth="yes"/>
      <point x="570" y="-109"/>
      <point x="527" y="-66"/>
      <point x="489" y="-34" type="curve"/>
      <point x="577" y="6"/>
      <point x="660" y="63"/>
      <point x="732" y="130" type="curve" smooth="yes"/>
      <point x="874" y="262"/>
      <point x="974" y="432"/>
      <point x="982" y="588" type="curve"/>
      <point x="982" y="625"/>
      <point x="979" y="661"/>
      <point x="968" y="700" type="curve" smooth="yes"/>
      <point x="956" y="742"/>
      <point x="934" y="788"/>
      <point x="891" y="821" type="curve" smooth="yes"/>
      <point x="842" y="856"/>
      <point x="784" y="881"/>
      <point x="702" y="881" type="curve" smooth="yes"/>
      <point x="548" y="881"/>
      <point x="374" y="782"/>
      <point x="272" y="661" type="curve" smooth="yes"/>
      <point x="214" y="590"/>
      <point x="184" y="511"/>
      <point x="175" y="428" type="curve" smooth="yes"/>
      <point x="169" y="350"/>
      <point x="199" y="276"/>
      <point x="253" y="221" type="curve" smooth="yes"/>
      <point x="304" y="172"/>
      <point x="376" y="139"/>
      <point x="463" y="139" type="curve" smooth="yes"/>
      <point x="484" y="139"/>
      <point x="507" y="141"/>
      <point x="530" y="145" type="curve" smooth="yes"/>
      <point x="618" y="162"/>
      <point x="684" y="200"/>
      <point x="728" y="249" type="curve" smooth="yes"/>
      <point x="772" y="298"/>
      <point x="794" y="357"/>
      <point x="794" y="415" type="curve" smooth="yes"/>
      <point x="794" y="444"/>
      <point x="789" y="471"/>
      <point x="779" y="498" type="curve" smooth="yes"/>
      <point x="763" y="538"/>
      <point x="739" y="567"/>
      <point x="711" y="586" type="curve"/>
      <point x="682" y="604"/>
      <point x="649" y="612"/>
      <point x="616" y="612" type="curve" smooth="yes"/>
      <point x="572" y="612"/>
      <point x="528" y="598"/>
      <point x="492" y="574" type="curve"/>
      <point x="488" y="571"/>
      <point x="487" y="565"/>
      <point x="490" y="561" type="curve"/>
      <point x="492" y="557"/>
      <point x="498" y="556"/>
      <point x="502" y="559" type="curve"/>
      <point x="535" y="581"/>
      <point x="576" y="595"/>
      <point x="616" y="594" type="curve" smooth="yes"/>
      <point x="646" y="594"/>
      <point x="675" y="587"/>
      <point x="701" y="571" type="curve"/>
      <point x="726" y="554"/>
      <point x="748" y="529"/>
      <point x="762" y="491" type="curve" smooth="yes"/>
      <point x="771" y="467"/>
      <point x="776" y="441"/>
      <point x="776" y="415" type="curve" smooth="yes"/>
      <point x="776" y="362"/>
      <point x="756" y="307"/>
      <point x="715" y="261" type="curve" smooth="yes"/>
      <point x="674" y="215"/>
      <point x="612" y="179"/>
      <point x="527" y="163" type="curve" smooth="yes"/>
      <point x="505" y="159"/>
      <point x="483" y="157"/>
      <point x="463" y="157" type="curve" smooth="yes"/>
      <point x="381" y="157"/>
      <point x="313" y="188"/>
      <point x="266" y="234" type="curve" smooth="yes"/>
      <point x="210" y="287"/>
      <point x="189" y="361"/>
      <point x="193" y="426" type="curve"/>
      <point x="202" y="505"/>
      <point x="231" y="581"/>
      <point x="286" y="649" type="curve" smooth="yes"/>
      <point x="382" y="767"/>
      <point x="545" y="859"/>
      <point x="702" y="863" type="curve" smooth="yes"/>
      <point x="764" y="863"/>
      <point x="829" y="846"/>
      <point x="880" y="806" type="curve" smooth="yes"/>
      <point x="918" y="777"/>
      <point x="940" y="735"/>
      <point x="951" y="695" type="curve" smooth="yes"/>
      <point x="960" y="664"/>
      <point x="964" y="632"/>
      <point x="964" y="589" type="curve"/>
      <point x="957" y="440"/>
      <point x="859" y="273"/>
      <point x="719" y="143" type="curve" smooth="yes"/>
      <point x="646" y="76"/>
      <point x="562" y="18"/>
      <point x="473" y="-21" type="curve"/>
      <point x="396" y="42"/>
      <point x="336" y="64"/>
      <point x="332" y="66" type="curve"/>
      <point x="280" y="88"/>
      <point x="218" y="103"/>
      <point x="156" y="104" type="curve" smooth="yes"/>
      <point x="107" y="104"/>
      <point x="55" y="91"/>
      <point x="33" y="38" type="curve" smooth="yes"/>
      <point x="25" y="17"/>
      <point x="25" y="-5"/>
      <point x="35" y="-26" type="curve"/>
      <point x="65" y="-80"/>
      <point x="146" y="-92"/>
      <point x="202" y="-95" type="curve" smooth="yes"/>
      <point x="295" y="-98"/>
      <point x="367" y="-85"/>
      <point x="471" y="-42" type="curve"/>
      <point x="510" y="-75"/>
      <point x="554" y="-118"/>
      <point x="597" y="-174" type="curve" smooth="yes"/>
      <point x="648" y="-239"/>
      <point x="703" y="-276"/>
      <point x="752" y="-298" type="curve"/>
    </contour>
    <contour>
      <point x="70" y="72"/>
      <point x="110" y="85"/>
      <point x="156" y="86" type="curve" smooth="yes"/>
      <point x="214" y="86"/>
      <point x="279" y="70"/>
      <point x="326" y="49" type="curve"/>
      <point x="331" y="47"/>
      <point x="384" y="27"/>
      <point x="455" y="-29" type="curve"/>
      <point x="375" y="-62"/>
      <point x="289" y="-83"/>
      <point x="201" y="-77" type="curve" smooth="yes"/>
      <point x="149" y="-73"/>
      <point x="80" y="-66"/>
      <point x="51" y="-17" type="curve"/>
      <point x="44" y="-2"/>
      <point x="45" y="17"/>
      <point x="51" y="32" type="curve"/>
    </contour>
  </outline>
</glyph>
<glyph name="R" format="1">
  <advance width="1154"/>
  <unicode hex="0052"/>
  <outline>
    <contour>
      <point x="1185" y="861"/>
      <point x="1106" y="876"/>
      <point x="1031" y="877" type="curve" smooth="yes"/>
      <point x="991" y="878"/>
      <point x="954" y="872"/>
      <point x="919" y="862" type="curve"/>
      <point x="837" y="886"/>
      <point x="765" y="896"/>
      <point x="693" y="896" type="curve" smooth="yes"/>
      <point x="677" y="896"/>
      <point x="617" y="895"/>
      <point x="550" y="874" type="curve" smooth="yes"/>
      <point x="517" y="864"/>
      <point x="481" y="848"/>
      <point x="448" y="826" type="curve"/>
      <point x="448" y="826"/>
      <point x="448" y="826"/>
      <point x="448" y="825" type="curve"/>
      <point x="425" y="852"/>
      <point x="397" y="870"/>
      <point x="374" y="881" type="curve" smooth="yes"/>
      <point x="349" y="893"/>
      <point x="331" y="898"/>
      <point x="330" y="898" type="curve"/>
      <point x="325" y="899"/>
      <point x="320" y="896"/>
      <point x="319" y="892" type="curve"/>
      <point x="318" y="887"/>
      <point x="321" y="882"/>
      <point x="326" y="881" type="curve"/>
      <point x="351" y="873"/>
      <point x="374" y="862"/>
      <point x="393" y="849" type="curve" smooth="yes"/>
      <point x="407" y="840"/>
      <point x="421" y="829"/>
      <point x="433" y="815" type="curve"/>
      <point x="407" y="794"/>
      <point x="383" y="767"/>
      <point x="364" y="734" type="curve" smooth="yes"/>
      <point x="343" y="696"/>
      <point x="336" y="667"/>
      <point x="336" y="645" type="curve" smooth="yes"/>
      <point x="335" y="598"/>
      <point x="364" y="563"/>
      <point x="408" y="563" type="curve" smooth="yes"/>
      <point x="471" y="563"/>
      <point x="491" y="633"/>
      <point x="491" y="682" type="curve" smooth="yes"/>
      <point x="491" y="730"/>
      <point x="483" y="774"/>
      <point x="459" y="811" type="curve"/>
      <point x="505" y="843"/>
      <point x="558" y="860"/>
      <point x="602" y="868" type="curve" smooth="yes"/>
      <point x="647" y="877"/>
      <point x="682" y="878"/>
      <point x="693" y="878" type="curve" smooth="yes"/>
      <point x="760" y="878"/>
      <point x="825" y="869"/>
      <point x="888" y="852" type="curve"/>
      <point x="874" y="847"/>
      <point x="860" y="841"/>
      <point x="847" y="835" type="curve" smooth="yes"/>
      <point x="764" y="794"/>
      <point x="692" y="727"/>
      <point x="627" y="647" type="curve" smooth="yes"/>
      <point x="586" y="597"/>
      <point x="547" y="542"/>
      <point x="509" y="484" type="curve"/>
      <point x="452" y="500"/>
      <point x="386" y="489"/>
      <point x="385" y="421" type="curve" smooth="yes"/>
      <point x="385" y="391"/>
      <point x="402" y="365"/>
      <point x="423" y="349" type="curve"/>
      <point x="351" y="231"/>
      <point x="296" y="118"/>
      <point x="240" y="32" type="curve" smooth="yes"/>
      <point x="211" y="-15"/>
      <point x="181" y="-55"/>
      <point x="148" y="-83" type="curve" smooth="yes"/>
      <point x="111" y="-116"/>
      <point x="68" y="-136"/>
      <point x="22" y="-136" type="curve" smooth="yes"/>
      <point x="-27" y="-136"/>
      <point x="-68" y="-107"/>
      <point x="-78" y="-61" type="curve" smooth="yes"/>
      <point x="-79" y="-56"/>
      <point x="-84" y="-53"/>
      <point x="-89" y="-54" type="curve" smooth="yes"/>
      <point x="-94" y="-55"/>
      <point x="-97" y="-60"/>
      <point x="-96" y="-65" type="curve" smooth="yes"/>
      <point x="-83" y="-122"/>
      <point x="-31" y="-154"/>
      <point x="22" y="-154" type="curve" smooth="yes"/>
      <point x="78" y="-154"/>
      <point x="125" y="-128"/>
      <point x="160" y="-97" type="curve" smooth="yes"/>
      <point x="212" y="-51"/>
      <point x="255" y="17"/>
      <point x="301" y="98" type="curve" smooth="yes"/>
      <point x="342" y="171"/>
      <point x="386" y="253"/>
      <point x="437" y="338" type="curve"/>
      <point x="487" y="306"/>
      <point x="564" y="258"/>
      <point x="710" y="241" type="curve"/>
      <point x="722" y="180"/>
      <point x="717" y="122"/>
      <point x="708" y="62" type="curve"/>
      <point x="699" y="16"/>
      <point x="689" y="-32"/>
      <point x="704" y="-73" type="curve" smooth="yes"/>
      <point x="718" y="-112"/>
      <point x="755" y="-136"/>
      <point x="792" y="-136" type="curve" smooth="yes"/>
      <point x="841" y="-136"/>
      <point x="891" y="-105"/>
      <point x="923" y="-73" type="curve" smooth="yes"/>
      <point x="927" y="-69"/>
      <point x="927" y="-64"/>
      <point x="923" y="-60" type="curve" smooth="yes"/>
      <point x="920" y="-57"/>
      <point x="914" y="-56"/>
      <point x="911" y="-59" type="curve" smooth="yes"/>
      <point x="878" y="-90"/>
      <point x="836" y="-118"/>
      <point x="792" y="-118" type="curve" smooth="yes"/>
      <point x="758" y="-118"/>
      <point x="731" y="-95"/>
      <point x="721" y="-67" type="curve" smooth="yes"/>
      <point x="707" y="-26"/>
      <point x="719" y="21"/>
      <point x="726" y="59" type="curve" smooth="yes"/>
      <point x="736" y="120"/>
      <point x="742" y="180"/>
      <point x="729" y="239" type="curve"/>
      <point x="743" y="238"/>
      <point x="758" y="237"/>
      <point x="772" y="237" type="curve" smooth="yes"/>
      <point x="838" y="237"/>
      <point x="909" y="250"/>
      <point x="977" y="286" type="curve" smooth="yes"/>
      <point x="1063" y="332"/>
      <point x="1109" y="388"/>
      <point x="1134" y="436" type="curve"/>
      <point x="1162" y="478"/>
      <point x="1164" y="551"/>
      <point x="1164" y="569" type="curve" smooth="yes"/>
      <point x="1164" y="603"/>
      <point x="1155" y="682"/>
      <point x="1092" y="754" type="curve" smooth="yes"/>
      <point x="1061" y="790"/>
      <point x="1016" y="825"/>
      <point x="952" y="850" type="curve"/>
      <point x="951" y="850"/>
      <point x="950" y="851"/>
      <point x="949" y="851" type="curve"/>
      <point x="975" y="856"/>
      <point x="1002" y="859"/>
      <point x="1031" y="859" type="curve" smooth="yes"/>
      <point x="1102" y="859"/>
      <point x="1174" y="844"/>
      <point x="1204" y="775" type="curve"/>
      <point x="1206" y="771"/>
      <point x="1211" y="769"/>
      <point x="1216" y="771" type="curve"/>
      <point x="1220" y="773"/>
      <point x="1222" y="778"/>
      <point x="1220" y="783" type="curve"/>
    </contour>
    <contour>
      <point x="470" y="635"/>
      <point x="457" y="580"/>
      <point x="408" y="581" type="curve" smooth="yes"/>
      <point x="375" y="582"/>
      <point x="354" y="606"/>
      <point x="354" y="645" type="curve" smooth="yes"/>
      <point x="354" y="664"/>
      <point x="360" y="689"/>
      <point x="380" y="725" type="curve" smooth="yes"/>
      <point x="397" y="756"/>
      <point x="419" y="781"/>
      <point x="444" y="800" type="curve"/>
      <point x="468" y="763"/>
      <point x="473" y="721"/>
      <point x="473" y="682" type="curve"/>
    </contour>
    <contour>
      <point x="402" y="477"/>
      <point x="462" y="479"/>
      <point x="499" y="468" type="curve"/>
      <point x="471" y="427"/>
      <point x="449" y="393"/>
      <point x="432" y="364" type="curve"/>
      <point x="413" y="378"/>
      <point x="402" y="400"/>
      <point x="402" y="422" type="curve" smooth="yes"/>
    </contour>
    <contour>
      <point x="471" y="391"/>
      <point x="493" y="426"/>
      <point x="516" y="462" type="curve"/>
      <point x="532" y="456"/>
      <point x="548" y="448"/>
      <point x="562" y="437" type="curve"/>
      <point x="579" y="426"/>
      <point x="612" y="400"/>
      <point x="643" y="363" type="curve" smooth="yes"/>
      <point x="667" y="335"/>
      <point x="690" y="300"/>
      <point x="704" y="259" type="curve"/>
      <point x="603" y="272"/>
      <point x="522" y="304"/>
      <point x="447" y="353" type="curve"/>
    </contour>
    <contour>
      <point x="1037" y="796"/>
      <point x="1087" y="742"/>
      <point x="1114" y="692" type="curve" smooth="yes"/>
      <point x="1155" y="615"/>
      <point x="1156" y="517"/>
      <point x="1118" y="444" type="curve" smooth="yes"/>
      <point x="1095" y="399"/>
      <point x="1051" y="347"/>
      <point x="968" y="302" type="curve" smooth="yes"/>
      <point x="903" y="268"/>
      <point x="836" y="255"/>
      <point x="772" y="255" type="curve" smooth="yes"/>
      <point x="756" y="255"/>
      <point x="740" y="256"/>
      <point x="724" y="257" type="curve"/>
      <point x="710" y="304"/>
      <point x="684" y="343"/>
      <point x="657" y="375" type="curve" smooth="yes"/>
      <point x="625" y="413"/>
      <point x="591" y="440"/>
      <point x="573" y="452" type="curve" smooth="yes"/>
      <point x="558" y="462"/>
      <point x="542" y="471"/>
      <point x="526" y="478" type="curve"/>
      <point x="583" y="564"/>
      <point x="642" y="645"/>
      <point x="707" y="710" type="curve" smooth="yes"/>
      <point x="753" y="755"/>
      <point x="802" y="792"/>
      <point x="855" y="819" type="curve"/>
      <point x="875" y="828"/>
      <point x="896" y="837"/>
      <point x="918" y="843" type="curve"/>
      <point x="927" y="840"/>
      <point x="936" y="837"/>
      <point x="945" y="833" type="curve"/>
    </contour>
  </outline>
</glyph>
<glyph name="S" format="1">
  <advance width="942"/>
  <unicode hex="0053"/>
  <outline>
    <contour>
      <point x="-2" y="-19" type="line"/>
      <point x="59" y="-66"/>
      <point x="141" y="-93"/>
      <point x="226" y="-93" type="curve" smooth="yes"/>
      <point x="349" y="-93"/>
      <point x="446" y="-52"/>
      <point x="500" y="-12" type="curve" smooth="yes"/>
      <point x="571" y="41"/>
      <point x="616" y="105"/>
      <point x="642" y="173" type="curve" smooth="yes"/>
      <point x="683" y="275"/>
      <point x="684" y="388"/>
      <point x="688" y="502" type="curve" smooth="yes"/>
      <point x="690" y="555"/>
      <point x="692" y="608"/>
      <point x="698" y="661" type="curve"/>
      <point x="754" y="663"/>
      <point x="812" y="676"/>
      <point x="863" y="699" type="curve" smooth="yes"/>
      <point x="912" y="721"/>
      <point x="971" y="764"/>
      <point x="1008" y="818" type="curve" smooth="yes"/>
      <point x="1040" y="865"/>
      <point x="1058" y="922"/>
      <point x="1034" y="977" type="curve" smooth="yes"/>
      <point x="1018" y="1013"/>
      <point x="979" y="1029"/>
      <point x="937" y="1030" type="curve" smooth="yes"/>
      <point x="831" y="1030"/>
      <point x="762" y="938"/>
      <point x="722" y="843" type="curve" smooth="yes"/>
      <point x="701" y="790"/>
      <point x="689" y="734"/>
      <point x="682" y="679" type="curve"/>
      <point x="625" y="679"/>
      <point x="573" y="693"/>
      <point x="535" y="722" type="curve"/>
      <point x="531" y="726"/>
      <point x="526" y="725"/>
      <point x="522" y="721" type="curve"/>
      <point x="519" y="717"/>
      <point x="520" y="711"/>
      <point x="524" y="708" type="curve" smooth="yes"/>
      <point x="566" y="676"/>
      <point x="621" y="661"/>
      <point x="680" y="661" type="curve"/>
      <point x="670" y="570"/>
      <point x="671" y="478"/>
      <point x="665" y="390" type="curve" smooth="yes"/>
      <point x="660" y="316"/>
      <point x="650" y="245"/>
      <point x="625" y="179" type="curve" smooth="yes"/>
      <point x="599" y="114"/>
      <point x="558" y="55"/>
      <point x="489" y="4" type="curve" smooth="yes"/>
      <point x="439" y="-34"/>
      <point x="345" y="-75"/>
      <point x="226" y="-75" type="curve" smooth="yes"/>
      <point x="145" y="-75"/>
      <point x="67" y="-49"/>
      <point x="10" y="-5" type="curve" smooth="yes"/>
      <point x="6" y="-2"/>
      <point x="3" y="1"/>
      <point x="-1" y="4" type="curve"/>
      <point x="44" y="31"/>
      <point x="78" y="67"/>
      <point x="101" y="97" type="curve" smooth="yes"/>
      <point x="142" y="151"/>
      <point x="165" y="205"/>
      <point x="167" y="277" type="curve" smooth="yes"/>
      <point x="167" y="342"/>
      <point x="128" y="392"/>
      <point x="57" y="396" type="curve"/>
      <point x="0" y="396"/>
      <point x="-40" y="362"/>
      <point x="-68" y="312" type="curve"/>
      <point x="-118" y="213"/>
      <point x="-114" y="95"/>
      <point x="-31" y="7" type="curve"/>
      <point x="-66" y="-10"/>
      <point x="-107" y="-22"/>
      <point x="-155" y="-22" type="curve" smooth="yes"/>
      <point x="-175" y="-22"/>
      <point x="-196" y="-20"/>
      <point x="-219" y="-15" type="curve" smooth="yes"/>
      <point x="-223" y="-14"/>
      <point x="-228" y="-18"/>
      <point x="-229" y="-22" type="curve"/>
      <point x="-230" y="-27"/>
      <point x="-227" y="-32"/>
      <point x="-222" y="-33" type="curve" smooth="yes"/>
      <point x="-199" y="-38"/>
      <point x="-176" y="-40"/>
      <point x="-155" y="-40" type="curve" smooth="yes"/>
      <point x="-110" y="-40"/>
      <point x="-56" y="-28"/>
      <point x="-17" y="-6" type="curve"/>
    </contour>
    <contour>
      <point x="-29" y="345"/>
      <point x="4" y="373"/>
      <point x="57" y="378" type="curve"/>
      <point x="114" y="378"/>
      <point x="147" y="334"/>
      <point x="148" y="278" type="curve" smooth="yes"/>
      <point x="148" y="198"/>
      <point x="109" y="127"/>
      <point x="52" y="68" type="curve" smooth="yes"/>
      <point x="34" y="49"/>
      <point x="11" y="32"/>
      <point x="-15" y="16" type="curve"/>
      <point x="-93" y="94"/>
      <point x="-100" y="205"/>
      <point x="-52" y="305" type="curve"/>
    </contour>
    <contour>
      <point x="772" y="921"/>
      <point x="834" y="1007"/>
      <point x="937" y="1012" type="curve"/>
      <point x="967" y="1012"/>
      <point x="1004" y="1000"/>
      <point x="1017" y="965" type="curve"/>
      <point x="1035" y="926"/>
      <point x="1020" y="869"/>
      <point x="991" y="827" type="curve" smooth="yes"/>
      <point x="959" y="781"/>
      <point x="907" y="742"/>
      <point x="855" y="716" type="curve" smooth="yes"/>
      <point x="807" y="694"/>
      <point x="753" y="681"/>
      <point x="700" y="679" type="curve"/>
      <point x="707" y="733"/>
      <point x="718" y="786"/>
      <point x="738" y="836" type="curve" smooth="yes"/>
    </contour>
  </outline>
</glyph>
<glyph name="T" format="1">
  <advance width="805"/>
  <unicode hex="0054"/>
  <outline>
    <contour>
      <point x="-53" y="-90"/>
      <point x="-8" y="-99"/>
      <point x="26" y="-99" type="curve"/>
      <point x="26" y="-99" type="line"/>
      <point x="133" y="-99"/>
      <point x="215" y="-6"/>
      <point x="282" y="74" type="curve" smooth="yes"/>
      <point x="336" y="140"/>
      <point x="394" y="221"/>
      <point x="464" y="315" type="curve" smooth="yes"/>
      <point x="561" y="445"/>
      <point x="664" y="585"/>
      <point x="778" y="691" type="curve" smooth="yes"/>
      <point x="789" y="701"/>
      <point x="800" y="711"/>
      <point x="811" y="721" type="curve"/>
      <point x="940" y="689"/>
      <point x="1025" y="683"/>
      <point x="1078" y="683" type="curve" smooth="yes"/>
      <point x="1140" y="683"/>
      <point x="1208" y="689"/>
      <point x="1260" y="732" type="curve" smooth="yes"/>
      <point x="1294" y="760"/>
      <point x="1311" y="813"/>
      <point x="1279" y="851" type="curve" smooth="yes"/>
      <point x="1249" y="886"/>
      <point x="1201" y="888"/>
      <point x="1151" y="889" type="curve" smooth="yes"/>
      <point x="1024" y="889"/>
      <point x="910" y="826"/>
      <point x="807" y="741" type="curve"/>
      <point x="740" y="758"/>
      <point x="661" y="782"/>
      <point x="570" y="815" type="curve" smooth="yes"/>
      <point x="516" y="835"/>
      <point x="467" y="842"/>
      <point x="422" y="842" type="curve" smooth="yes"/>
      <point x="341" y="842"/>
      <point x="276" y="817"/>
      <point x="232" y="791" type="curve" smooth="yes"/>
      <point x="187" y="765"/>
      <point x="163" y="739"/>
      <point x="163" y="739" type="curve"/>
      <point x="160" y="735"/>
      <point x="160" y="729"/>
      <point x="163" y="726" type="curve"/>
      <point x="167" y="723"/>
      <point x="172" y="723"/>
      <point x="176" y="727" type="curve"/>
      <point x="179" y="729"/>
      <point x="203" y="754"/>
      <point x="245" y="778" type="curve" smooth="yes"/>
      <point x="287" y="801"/>
      <point x="347" y="824"/>
      <point x="422" y="824" type="curve" smooth="yes"/>
      <point x="465" y="824"/>
      <point x="512" y="817"/>
      <point x="564" y="798" type="curve" smooth="yes"/>
      <point x="650" y="766"/>
      <point x="725" y="743"/>
      <point x="790" y="726" type="curve"/>
      <point x="753" y="693"/>
      <point x="716" y="657"/>
      <point x="681" y="618" type="curve" smooth="yes"/>
      <point x="599" y="527"/>
      <point x="522" y="424"/>
      <point x="450" y="326" type="curve" smooth="yes"/>
      <point x="357" y="200"/>
      <point x="283" y="98"/>
      <point x="216" y="27" type="curve" smooth="yes"/>
      <point x="165" y="-27"/>
      <point x="106" y="-78"/>
      <point x="26" y="-81" type="curve"/>
      <point x="-6" y="-81"/>
      <point x="-39" y="-73"/>
      <point x="-64" y="-50" type="curve"/>
      <point x="-78" y="-34"/>
      <point x="-86" y="-12"/>
      <point x="-86" y="15" type="curve" smooth="yes"/>
      <point x="-86" y="27"/>
      <point x="-84" y="40"/>
      <point x="-81" y="55" type="curve"/>
      <point x="-80" y="59"/>
      <point x="-83" y="64"/>
      <point x="-88" y="65" type="curve" smooth="yes"/>
      <point x="-93" y="66"/>
      <point x="-98" y="63"/>
      <point x="-99" y="58" type="curve" smooth="yes"/>
      <point x="-102" y="43"/>
      <point x="-104" y="29"/>
      <point x="-104" y="15" type="curve" smooth="yes"/>
      <point x="-104" y="-15"/>
      <point x="-95" y="-42"/>
      <point x="-77" y="-62" type="curve" smooth="yes"/>
    </contour>
    <contour>
      <point x="1029" y="701"/>
      <point x="948" y="706"/>
      <point x="828" y="735" type="curve"/>
      <point x="920" y="809"/>
      <point x="1025" y="869"/>
      <point x="1151" y="871" type="curve"/>
      <point x="1189" y="870"/>
      <point x="1238" y="869"/>
      <point x="1265" y="840" type="curve"/>
      <point x="1288" y="809"/>
      <point x="1278" y="771"/>
      <point x="1246" y="744" type="curve" smooth="yes"/>
      <point x="1223" y="725"/>
      <point x="1172" y="700"/>
      <point x="1078" y="701" type="curve" smooth="yes"/>
    </contour>
  </outline>
</glyph>
<glyph name="U" format="1">
  <advance width="902"/>
  <unicode hex="0055"/>
  <outline>
    <contour>
      <point x="1220" y="823"/>
      <point x="1215" y="826"/>
      <point x="1210" y="824" type="curve"/>
      <point x="1209" y="824"/>
      <point x="984" y="763"/>
      <point x="776" y="488" type="curve" smooth="yes"/>
      <point x="762" y="470"/>
      <point x="740" y="438"/>
      <point x="716" y="398" type="curve" smooth="yes"/>
      <point x="679" y="337"/>
      <point x="635" y="258"/>
      <point x="601" y="177" type="curve"/>
      <point x="535" y="34"/>
      <point x="417" y="-77"/>
      <point x="252" y="-76" type="curve" smooth="yes"/>
      <point x="201" y="-76"/>
      <point x="155" y="-59"/>
      <point x="119" y="-30" type="curve" smooth="yes"/>
      <point x="82" y="1"/>
      <point x="55" y="49"/>
      <point x="55" y="118" type="curve" smooth="yes"/>
      <point x="55" y="170"/>
      <point x="70" y="234"/>
      <point x="109" y="311" type="curve" smooth="yes"/>
      <point x="176" y="444"/>
      <point x="267" y="554"/>
      <point x="356" y="642" type="curve" smooth="yes"/>
      <point x="409" y="694"/>
      <point x="461" y="739"/>
      <point x="505" y="775" type="curve"/>
      <point x="554" y="771"/>
      <point x="601" y="771"/>
      <point x="648" y="777" type="curve" smooth="yes"/>
      <point x="685" y="782"/>
      <point x="732" y="800"/>
      <point x="732" y="843" type="curve" smooth="yes"/>
      <point x="732" y="884"/>
      <point x="700" y="899"/>
      <point x="662" y="896" type="curve" smooth="yes"/>
      <point x="598" y="891"/>
      <point x="545" y="832"/>
      <point x="499" y="794" type="curve"/>
      <point x="430" y="801"/>
      <point x="374" y="817"/>
      <point x="324" y="837" type="curve" smooth="yes"/>
      <point x="258" y="861"/>
      <point x="202" y="891"/>
      <point x="137" y="908" type="curve" smooth="yes"/>
      <point x="97" y="919"/>
      <point x="51" y="926"/>
      <point x="5" y="926" type="curve" smooth="yes"/>
      <point x="-51" y="926"/>
      <point x="-112" y="916"/>
      <point x="-145" y="875" type="curve" smooth="yes"/>
      <point x="-177" y="836"/>
      <point x="-179" y="780"/>
      <point x="-148" y="744" type="curve" smooth="yes"/>
      <point x="-129" y="721"/>
      <point x="-102" y="710"/>
      <point x="-81" y="703" type="curve"/>
      <point x="-59" y="697"/>
      <point x="-41" y="696"/>
      <point x="-41" y="696" type="curve"/>
      <point x="-36" y="695"/>
      <point x="-31" y="699"/>
      <point x="-31" y="704" type="curve" smooth="yes"/>
      <point x="-31" y="709"/>
      <point x="-33" y="713"/>
      <point x="-40" y="714" type="curve"/>
      <point x="-77" y="717"/>
      <point x="-113" y="730"/>
      <point x="-135" y="756" type="curve" smooth="yes"/>
      <point x="-161" y="787"/>
      <point x="-153" y="836"/>
      <point x="-131" y="863" type="curve" smooth="yes"/>
      <point x="-99" y="903"/>
      <point x="-39" y="908"/>
      <point x="5" y="908" type="curve" smooth="yes"/>
      <point x="49" y="908"/>
      <point x="94" y="901"/>
      <point x="132" y="891" type="curve" smooth="yes"/>
      <point x="195" y="874"/>
      <point x="251" y="845"/>
      <point x="317" y="820" type="curve" smooth="yes"/>
      <point x="364" y="802"/>
      <point x="417" y="786"/>
      <point x="480" y="778" type="curve"/>
      <point x="438" y="743"/>
      <point x="391" y="702"/>
      <point x="343" y="655" type="curve" smooth="yes"/>
      <point x="254" y="566"/>
      <point x="161" y="455"/>
      <point x="93" y="319" type="curve" smooth="yes"/>
      <point x="53" y="240"/>
      <point x="37" y="173"/>
      <point x="37" y="118" type="curve" smooth="yes"/>
      <point x="37" y="44"/>
      <point x="66" y="-10"/>
      <point x="108" y="-44" type="curve" smooth="yes"/>
      <point x="152" y="-80"/>
      <point x="204" y="-94"/>
      <point x="252" y="-94" type="curve" smooth="yes"/>
      <point x="401" y="-94"/>
      <point x="490" y="-21"/>
      <point x="563" y="78" type="curve"/>
      <point x="541" y="5"/>
      <point x="511" y="-130"/>
      <point x="597" y="-163" type="curve" smooth="yes"/>
      <point x="730" y="-214"/>
      <point x="812" y="-58"/>
      <point x="812" y="51" type="curve"/>
      <point x="811" y="56"/>
      <point x="807" y="59"/>
      <point x="802" y="59" type="curve"/>
      <point x="797" y="58"/>
      <point x="794" y="54"/>
      <point x="794" y="49" type="curve" smooth="yes"/>
      <point x="794" y="-59"/>
      <point x="711" y="-192"/>
      <point x="605" y="-147" type="curve" smooth="yes"/>
      <point x="523" y="-112"/>
      <point x="567" y="32"/>
      <point x="587" y="91" type="curve" smooth="yes"/>
      <point x="613" y="168"/>
      <point x="654" y="252"/>
      <point x="693" y="323" type="curve" smooth="yes"/>
      <point x="732" y="394"/>
      <point x="770" y="452"/>
      <point x="790" y="478" type="curve" smooth="yes"/>
      <point x="892" y="613"/>
      <point x="999" y="695"/>
      <point x="1080" y="744" type="curve" smooth="yes"/>
      <point x="1120" y="768"/>
      <point x="1154" y="784"/>
      <point x="1178" y="794" type="curve"/>
      <point x="1190" y="798"/>
      <point x="1205" y="805"/>
      <point x="1215" y="807" type="curve" smooth="yes"/>
      <point x="1220" y="808"/>
      <point x="1222" y="813"/>
      <point x="1221" y="818" type="curve" smooth="yes"/>
    </contour>
    <contour>
      <point x="695" y="880"/>
      <point x="714" y="869"/>
      <point x="714" y="843" type="curve" smooth="yes"/>
      <point x="714" y="809"/>
      <point x="669" y="798"/>
      <point x="645" y="795" type="curve" smooth="yes"/>
      <point x="605" y="789"/>
      <point x="563" y="788"/>
      <point x="525" y="792" type="curve"/>
      <point x="567" y="826"/>
      <point x="612" y="875"/>
      <point x="664" y="878" type="curve" smooth="yes"/>
    </contour>
  </outline>
</glyph>
<glyph name="V" format="1">
  <advance width="1149"/>
  <unicode hex="0056"/>
  <outline>
    <contour>
      <point x="-32" y="-142"/>
      <point x="-3" y="-125"/>
      <point x="17" y="-107" type="curve" smooth="yes"/>
      <point x="39" y="-87"/>
      <point x="59" y="-58"/>
      <point x="72" y="-30" type="curve"/>
      <point x="173" y="-50"/>
      <point x="270" y="-63"/>
      <point x="392" y="-66" type="curve" smooth="yes"/>
      <point x="471" y="-66"/>
      <point x="637" y="-48"/>
      <point x="797" y="85" type="curve" smooth="yes"/>
      <point x="958" y="219"/>
      <point x="1113" y="467"/>
      <point x="1172" y="923" type="curve"/>
      <point x="1172" y="928"/>
      <point x="1169" y="932"/>
      <point x="1164" y="933" type="curve"/>
      <point x="1159" y="933"/>
      <point x="1154" y="930"/>
      <point x="1154" y="925" type="curve"/>
      <point x="1095" y="472"/>
      <point x="942" y="229"/>
      <point x="786" y="99" type="curve" smooth="yes"/>
      <point x="629" y="-31"/>
      <point x="468" y="-48"/>
      <point x="392" y="-48" type="curve" smooth="yes"/>
      <point x="312" y="-48"/>
      <point x="185" y="-34"/>
      <point x="80" y="-13" type="curve"/>
      <point x="118" y="90"/>
      <point x="214" y="281"/>
      <point x="314" y="419" type="curve" smooth="yes"/>
      <point x="412" y="554"/>
      <point x="480" y="631"/>
      <point x="536" y="685" type="curve" smooth="yes"/>
      <point x="563" y="711"/>
      <point x="588" y="731"/>
      <point x="612" y="751" type="curve"/>
      <point x="632" y="749"/>
      <point x="652" y="748"/>
      <point x="673" y="748" type="curve" smooth="yes"/>
      <point x="715" y="748"/>
      <point x="764" y="746"/>
      <point x="808" y="767" type="curve"/>
      <point x="826" y="777"/>
      <point x="842" y="795"/>
      <point x="840" y="825" type="curve"/>
      <point x="840" y="857"/>
      <point x="812" y="874"/>
      <point x="771" y="871" type="curve" smooth="yes"/>
      <point x="747" y="869"/>
      <point x="716" y="856"/>
      <point x="681" y="828" type="curve" smooth="yes"/>
      <point x="655" y="807"/>
      <point x="631" y="789"/>
      <point x="607" y="769" type="curve"/>
      <point x="538" y="776"/>
      <point x="483" y="793"/>
      <point x="433" y="812" type="curve" smooth="yes"/>
      <point x="367" y="837"/>
      <point x="311" y="866"/>
      <point x="246" y="883" type="curve" smooth="yes"/>
      <point x="206" y="894"/>
      <point x="160" y="901"/>
      <point x="114" y="901" type="curve" smooth="yes"/>
      <point x="74" y="901"/>
      <point x="36" y="895"/>
      <point x="4" y="880" type="curve" smooth="yes"/>
      <point x="-28" y="865"/>
      <point x="-49" y="839"/>
      <point x="-58" y="802" type="curve"/>
      <point x="-63" y="773"/>
      <point x="-58" y="744"/>
      <point x="-39" y="719" type="curve"/>
      <point x="-20" y="696"/>
      <point x="7" y="685"/>
      <point x="28" y="678" type="curve"/>
      <point x="50" y="672"/>
      <point x="68" y="671"/>
      <point x="68" y="671" type="curve"/>
      <point x="73" y="671"/>
      <point x="78" y="674"/>
      <point x="78" y="679" type="curve" smooth="yes"/>
      <point x="78" y="684"/>
      <point x="75" y="688"/>
      <point x="69" y="689" type="curve"/>
      <point x="66" y="689"/>
      <point x="37" y="692"/>
      <point x="10" y="704" type="curve"/>
      <point x="-4" y="711"/>
      <point x="-17" y="720"/>
      <point x="-26" y="732" type="curve" smooth="yes"/>
      <point x="-40" y="751"/>
      <point x="-43" y="775"/>
      <point x="-40" y="799" type="curve" smooth="yes"/>
      <point x="-34" y="837"/>
      <point x="-3" y="859"/>
      <point x="34" y="873" type="curve"/>
      <point x="58" y="880"/>
      <point x="86" y="883"/>
      <point x="114" y="883" type="curve" smooth="yes"/>
      <point x="158" y="883"/>
      <point x="203" y="876"/>
      <point x="241" y="866" type="curve" smooth="yes"/>
      <point x="304" y="850"/>
      <point x="360" y="820"/>
      <point x="426" y="795" type="curve" smooth="yes"/>
      <point x="473" y="777"/>
      <point x="525" y="761"/>
      <point x="587" y="753" type="curve"/>
      <point x="567" y="737"/>
      <point x="546" y="719"/>
      <point x="524" y="698" type="curve" smooth="yes"/>
      <point x="466" y="643"/>
      <point x="398" y="565"/>
      <point x="299" y="430" type="curve" smooth="yes"/>
      <point x="197" y="289"/>
      <point x="101" y="96"/>
      <point x="63" y="-8" type="curve"/>
      <point x="62" y="-9"/>
      <point x="62" y="-10"/>
      <point x="62" y="-10" type="curve"/>
      <point x="30" y="-5"/>
      <point x="1" y="-2"/>
      <point x="-26" y="-2" type="curve" smooth="yes"/>
      <point x="-65" y="-2"/>
      <point x="-109" y="-11"/>
      <point x="-141" y="-36" type="curve"/>
      <point x="-158" y="-51"/>
      <point x="-167" y="-70"/>
      <point x="-167" y="-87" type="curve"/>
      <point x="-165" y="-127"/>
      <point x="-127" y="-144"/>
      <point x="-87" y="-144" type="curve"/>
    </contour>
    <contour>
      <point x="-94" y="-22"/>
      <point x="-44" y="-20"/>
      <point x="-26" y="-20" type="curve" smooth="yes"/>
      <point x="-2" y="-20"/>
      <point x="25" y="-23"/>
      <point x="54" y="-27" type="curve"/>
      <point x="40" y="-52"/>
      <point x="26" y="-75"/>
      <point x="5" y="-94" type="curve" smooth="yes"/>
      <point x="-21" y="-116"/>
      <point x="-53" y="-125"/>
      <point x="-87" y="-127" type="curve"/>
      <point x="-113" y="-127"/>
      <point x="-147" y="-116"/>
      <point x="-149" y="-87" type="curve"/>
      <point x="-149" y="-76"/>
      <point x="-143" y="-62"/>
      <point x="-129" y="-50" type="curve" smooth="yes"/>
    </contour>
    <contour>
      <point x="660" y="766"/>
      <point x="646" y="766"/>
      <point x="633" y="767" type="curve"/>
      <point x="653" y="782"/>
      <point x="672" y="797"/>
      <point x="693" y="814" type="curve" smooth="yes"/>
      <point x="725" y="841"/>
      <point x="753" y="851"/>
      <point x="773" y="853" type="curve" smooth="yes"/>
      <point x="800" y="855"/>
      <point x="819" y="848"/>
      <point x="822" y="825" type="curve"/>
      <point x="824" y="803"/>
      <point x="812" y="790"/>
      <point x="799" y="783" type="curve"/>
      <point x="789" y="777"/>
      <point x="761" y="766"/>
      <point x="673" y="766" type="curve" smooth="yes"/>
    </contour>
  </outline>
</glyph>
